<?xml version="1.0" encoding="UTF-8"?>
<svg xmlns="http://www.w3.org/2000/svg" xmlns:xlink="http://www.w3.org/1999/xlink" width="75pt" height="74.999997pt" viewBox="0 0 75 74.999997" version="1.2">
<defs>
<clipPath id="clip1">
  <path d="M 0.484375 6 L 74.734375 6 L 74.734375 68.992188 L 0.484375 68.992188 Z M 0.484375 6 "/>
</clipPath>
<clipPath id="clip2">
  <path d="M 7.144531 4 L 68.160156 4 L 68.160156 71.996094 L 7.144531 71.996094 Z M 7.144531 4 "/>
</clipPath>
<clipPath id="clip3">
  <path d="M 6.832031 2.996094 L 68.285156 2.996094 L 68.285156 70.449219 L 6.832031 70.449219 Z M 6.832031 2.996094 "/>
</clipPath>
</defs>
<g id="surface1">
<g clip-path="url(#clip1)" clip-rule="nonzero">
<path style=" stroke:none;fill-rule:nonzero;fill:rgb(96.469116%,81.568909%,76.858521%);fill-opacity:1;" d="M 42.640625 6.097656 C 42.390625 6.097656 42.140625 6.097656 41.890625 6.097656 L 41.691406 6.097656 C 40.839844 6.148438 40.136719 6.199219 39.4375 6.296875 C 38.335938 6.449219 37.335938 6.546875 36.382812 6.648438 C 36.234375 6.648438 36.082031 6.699219 35.933594 6.699219 L 35.882812 6.699219 C 35.480469 6.746094 35.082031 6.796875 34.679688 6.847656 C 34.429688 6.898438 34.179688 6.898438 33.929688 6.945312 C 33.730469 6.996094 33.480469 6.996094 33.277344 7.046875 L 33.230469 7.046875 C 32.578125 7.144531 31.828125 7.195312 31.125 7.296875 C 30.625 7.347656 30.125 7.394531 29.574219 7.445312 L 29.375 7.445312 C 29.171875 7.445312 28.921875 7.496094 28.722656 7.496094 C 28.273438 7.546875 27.769531 7.59375 27.320312 7.644531 C 27.019531 7.695312 26.769531 7.695312 26.46875 7.746094 C 26.070312 7.796875 25.667969 7.84375 25.269531 7.84375 C 24.867188 7.894531 24.515625 7.894531 24.117188 7.945312 C 24.015625 7.945312 23.917969 7.945312 23.765625 7.996094 C 23.566406 7.996094 23.316406 8.042969 23.066406 8.042969 C 22.714844 8.09375 22.414062 8.144531 22.0625 8.195312 L 21.8125 8.246094 C 20.960938 8.34375 20.160156 8.542969 19.511719 8.695312 C 18.808594 8.84375 18.109375 9.042969 17.40625 9.242188 C 16.757812 9.441406 16.105469 9.691406 15.355469 10.042969 C 15.003906 10.191406 14.652344 10.339844 14.304688 10.492188 C 13.953125 10.640625 13.601562 10.839844 13.300781 11.039062 C 12.550781 11.539062 11.949219 11.988281 11.449219 12.4375 C 10.949219 12.886719 10.398438 13.433594 9.898438 14.035156 C 9.546875 14.433594 9.195312 14.882812 8.847656 15.332031 C 8.796875 15.332031 8.746094 15.332031 8.644531 15.332031 C 8.394531 15.382812 8.246094 15.628906 8.09375 15.832031 L 8.042969 15.878906 C 7.996094 15.929688 7.945312 16.03125 7.894531 16.078125 L 7.894531 16.128906 C 7.84375 16.179688 7.792969 16.28125 7.746094 16.328125 C 7.644531 16.480469 7.542969 16.628906 7.445312 16.777344 L 7.445312 16.828125 L 7.492188 16.878906 C 7.394531 17.027344 7.34375 17.128906 7.242188 17.277344 C 7.09375 17.527344 6.84375 17.875 6.59375 18.226562 L 6.441406 18.476562 C 6.292969 18.675781 6.191406 18.875 6.042969 19.074219 C 5.890625 19.324219 5.792969 19.523438 5.640625 19.773438 L 5.542969 19.972656 C 5.441406 20.121094 5.390625 20.273438 5.289062 20.421875 L 5.242188 20.523438 C 5.191406 20.621094 5.140625 20.769531 5.039062 20.871094 C 4.738281 21.46875 4.390625 22.167969 4.039062 22.867188 C 3.738281 23.464844 3.539062 24.113281 3.289062 24.863281 C 3.089844 25.414062 2.886719 25.960938 2.6875 26.460938 L 2.636719 26.511719 C 2.285156 27.210938 1.988281 27.808594 1.734375 28.40625 C 1.386719 29.15625 1.136719 29.855469 0.933594 30.503906 C 0.835938 30.851562 0.785156 31.203125 0.683594 31.601562 L 0.683594 31.75 C 0.632812 32.148438 0.585938 32.5 0.535156 32.898438 C 0.484375 33.597656 0.535156 34.394531 0.683594 35.34375 C 0.785156 36.042969 0.886719 36.742188 1.035156 37.492188 C 1.183594 38.140625 1.335938 38.789062 1.585938 39.535156 C 1.734375 40.136719 1.9375 40.683594 2.085938 41.285156 L 2.136719 41.53125 L 2.1875 41.78125 C 2.386719 42.53125 2.636719 43.230469 2.789062 43.929688 C 2.988281 44.675781 3.1875 45.476562 3.339844 46.175781 C 3.488281 46.921875 3.640625 47.570312 3.890625 48.269531 C 4.140625 49.117188 4.390625 49.816406 4.589844 50.464844 C 5.089844 51.8125 5.691406 53.210938 6.492188 54.660156 C 6.644531 54.957031 6.84375 55.257812 7.042969 55.507812 L 7.09375 55.605469 C 7.292969 55.855469 7.492188 56.105469 7.644531 56.355469 L 7.792969 56.554688 C 8.195312 57.105469 8.746094 57.703125 9.296875 58.253906 C 9.597656 58.550781 9.847656 58.800781 10.148438 59.050781 C 10.449219 59.300781 10.75 59.550781 11.148438 59.847656 C 11.398438 60.050781 11.699219 60.199219 11.949219 60.398438 L 12.050781 60.449219 C 12.402344 60.648438 12.75 60.847656 13.101562 61.046875 C 13.851562 61.496094 14.503906 61.894531 15.105469 62.246094 C 15.65625 62.59375 16.304688 62.992188 17.007812 63.34375 C 17.355469 63.492188 17.707031 63.691406 18.058594 63.84375 C 18.308594 63.941406 18.507812 64.042969 18.757812 64.140625 C 19.257812 64.390625 19.808594 64.640625 20.359375 64.890625 L 20.460938 64.941406 L 20.511719 64.988281 C 21.8125 65.589844 22.964844 66.085938 24.066406 66.535156 L 24.265625 66.636719 L 24.367188 66.6875 C 24.617188 66.785156 24.867188 66.886719 25.117188 66.984375 C 25.46875 67.136719 25.820312 67.234375 26.21875 67.386719 C 26.71875 67.585938 27.269531 67.734375 27.769531 67.882812 L 27.871094 67.933594 C 27.972656 67.984375 28.121094 67.984375 28.222656 68.035156 C 28.371094 68.085938 28.523438 68.132812 28.671875 68.183594 C 29.222656 68.332031 29.824219 68.535156 30.425781 68.632812 C 30.875 68.734375 31.277344 68.78125 31.726562 68.78125 C 32.128906 68.832031 32.476562 68.832031 32.828125 68.832031 C 33.277344 68.832031 33.78125 68.882812 34.28125 68.882812 C 34.328125 68.882812 34.429688 68.882812 34.480469 68.882812 C 34.878906 68.882812 35.28125 68.882812 35.683594 68.832031 C 36.03125 68.832031 36.484375 68.78125 36.984375 68.734375 C 37.585938 68.683594 38.085938 68.582031 38.585938 68.535156 C 38.9375 68.484375 39.285156 68.433594 39.636719 68.382812 L 39.738281 68.382812 C 40.1875 68.332031 40.636719 68.285156 41.089844 68.234375 C 41.339844 68.183594 41.589844 68.183594 41.839844 68.132812 L 41.992188 68.132812 C 42.492188 68.085938 42.992188 67.984375 43.441406 67.933594 C 43.941406 67.882812 44.492188 67.785156 44.996094 67.683594 C 45.246094 67.636719 45.496094 67.585938 45.746094 67.535156 C 46.144531 67.484375 46.546875 67.386719 46.945312 67.335938 C 48 67.1875 49.148438 66.984375 50.203125 66.785156 C 50.652344 66.6875 51.050781 66.636719 51.503906 66.488281 C 51.804688 66.4375 52.152344 66.335938 52.453125 66.289062 C 52.855469 66.1875 53.253906 66.136719 53.707031 66.039062 C 54.054688 65.988281 54.40625 65.9375 54.707031 65.839844 C 55.609375 65.636719 56.308594 65.488281 56.910156 65.289062 C 57.261719 65.191406 57.613281 65.089844 57.960938 64.941406 C 58.3125 64.789062 58.710938 64.691406 59.113281 64.492188 C 59.464844 64.339844 59.8125 64.191406 60.113281 63.941406 C 60.464844 63.691406 60.816406 63.441406 61.167969 63.191406 L 61.265625 63.09375 C 61.515625 62.894531 61.765625 62.695312 61.96875 62.496094 C 62.269531 62.195312 62.566406 61.894531 62.820312 61.644531 C 63.320312 61.148438 63.820312 60.546875 64.371094 59.800781 C 64.621094 59.5 64.871094 59.152344 65.121094 58.75 C 65.171875 58.652344 65.273438 58.550781 65.320312 58.402344 L 65.320312 58.351562 C 65.371094 58.300781 65.371094 58.253906 65.421875 58.203125 C 65.523438 58.050781 65.621094 57.902344 65.671875 57.753906 C 65.972656 57.253906 66.222656 56.753906 66.472656 56.257812 L 66.472656 56.207031 C 66.574219 56.007812 66.671875 55.808594 66.824219 55.605469 C 67.125 55.007812 67.425781 54.410156 67.726562 53.808594 L 67.875 53.5625 C 68.527344 52.214844 69.125 50.714844 69.578125 49.117188 C 69.675781 48.71875 69.777344 48.320312 69.878906 47.921875 L 69.878906 47.871094 C 69.976562 47.570312 70.027344 47.273438 70.128906 46.921875 C 70.226562 46.625 70.328125 46.273438 70.429688 45.976562 L 70.429688 45.925781 L 70.480469 45.824219 C 70.578125 45.574219 70.679688 45.324219 70.730469 45.027344 C 70.777344 44.925781 70.828125 44.828125 70.828125 44.726562 C 70.929688 44.378906 71.078125 44.078125 71.230469 43.730469 L 71.230469 43.679688 C 71.378906 43.328125 71.53125 42.929688 71.679688 42.582031 C 71.929688 41.882812 72.179688 41.132812 72.429688 40.386719 C 72.78125 39.1875 73.28125 37.640625 73.632812 35.992188 C 73.832031 35.246094 73.984375 34.546875 74.132812 33.796875 C 74.234375 33.097656 74.382812 32.351562 74.484375 31.550781 C 74.585938 30.652344 74.734375 29.703125 74.632812 28.804688 C 74.535156 27.910156 74.234375 27.058594 73.933594 26.359375 C 73.882812 26.261719 73.832031 26.113281 73.78125 25.960938 C 73.78125 25.910156 73.734375 25.863281 73.734375 25.8125 L 73.734375 25.761719 C 73.683594 25.664062 73.683594 25.5625 73.632812 25.460938 C 73.582031 25.3125 73.484375 25.164062 73.433594 25.011719 L 73.382812 24.914062 L 73.332031 24.8125 C 73.183594 24.464844 73.03125 24.164062 72.832031 23.867188 C 72.632812 23.515625 72.429688 23.21875 72.230469 22.96875 C 71.929688 22.617188 71.679688 22.269531 71.429688 22.019531 C 71.03125 21.621094 70.679688 21.171875 70.277344 20.769531 L 70.179688 20.621094 L 69.976562 20.371094 C 69.527344 19.824219 69.027344 19.273438 68.527344 18.773438 C 68.226562 18.476562 68.027344 18.226562 67.773438 18.027344 C 67.675781 17.925781 67.574219 17.828125 67.476562 17.726562 L 67.425781 17.675781 C 67.273438 17.527344 67.175781 17.425781 67.023438 17.277344 C 66.972656 17.226562 66.925781 17.179688 66.925781 17.179688 C 66.824219 17.078125 66.773438 17.027344 66.671875 16.929688 C 66.523438 16.828125 66.421875 16.679688 66.273438 16.578125 L 66.222656 16.527344 C 65.972656 16.328125 65.722656 16.128906 65.523438 15.980469 C 65.472656 15.929688 65.371094 15.878906 65.320312 15.832031 L 65.273438 15.78125 C 65.222656 15.730469 65.121094 15.679688 65.070312 15.632812 C 64.21875 14.980469 63.519531 14.433594 62.867188 13.984375 C 62.769531 13.882812 62.617188 13.785156 62.519531 13.734375 C 62.269531 13.585938 62.015625 13.386719 61.765625 13.183594 C 61.464844 12.984375 61.167969 12.785156 60.816406 12.488281 C 60.664062 12.386719 60.515625 12.238281 60.414062 12.136719 C 60.214844 11.988281 60.066406 11.835938 59.863281 11.6875 C 59.515625 11.4375 59.164062 11.238281 58.761719 11.039062 C 58.5625 10.941406 58.363281 10.839844 58.164062 10.738281 L 58.0625 10.691406 C 57.863281 10.589844 57.710938 10.492188 57.511719 10.441406 C 57.109375 10.242188 56.710938 10.042969 56.308594 9.890625 L 56.210938 9.839844 C 55.808594 9.691406 55.457031 9.542969 55.15625 9.390625 C 55.058594 9.34375 54.90625 9.292969 54.808594 9.242188 L 54.757812 9.242188 C 54.507812 9.144531 54.308594 9.042969 54.105469 8.992188 C 53.757812 8.894531 53.457031 8.792969 53.105469 8.644531 C 52.804688 8.542969 52.453125 8.445312 52.152344 8.34375 C 52.054688 8.292969 51.902344 8.246094 51.804688 8.246094 L 51.753906 8.246094 C 51.554688 8.195312 51.351562 8.144531 51.203125 8.042969 C 51.050781 7.996094 50.902344 7.945312 50.753906 7.894531 C 50.601562 7.84375 50.402344 7.796875 50.25 7.695312 C 49.652344 7.496094 48.949219 7.246094 48.25 7.046875 L 48.148438 7.046875 C 47.398438 6.847656 46.746094 6.648438 46.046875 6.496094 C 45.292969 6.296875 44.492188 6.199219 43.691406 6.148438 C 43.242188 6.148438 42.890625 6.097656 42.542969 6.097656 C 42.742188 6.097656 42.691406 6.097656 42.640625 6.097656 "/>
</g>
<g clip-path="url(#clip2)" clip-rule="nonzero">
<path style=" stroke:none;fill-rule:nonzero;fill:rgb(99.21875%,87.449646%,60.389709%);fill-opacity:1;" d="M 63.875 39.398438 C 63.691406 39.820312 63.4375 40.21875 63.210938 40.617188 C 62.992188 41.023438 62.726562 41.378906 62.496094 41.71875 C 62.382812 41.886719 62.269531 42.046875 62.164062 42.199219 C 62.050781 42.339844 61.941406 42.472656 61.84375 42.59375 C 61.648438 42.835938 61.492188 43.035156 61.386719 43.164062 C 61.347656 43.210938 61.3125 43.253906 61.273438 43.300781 C 60.667969 43.308594 60.234375 43.429688 59.820312 43.835938 C 59.742188 43.910156 59.625 44.027344 59.480469 44.171875 C 59.269531 44.070312 59.128906 43.9375 59.046875 43.828125 C 58.921875 43.675781 58.902344 43.570312 58.886719 43.566406 C 58.878906 43.5625 58.851562 43.5625 58.824219 43.558594 C 58.816406 43.554688 58.8125 43.554688 58.808594 43.550781 C 58.796875 43.546875 58.78125 43.542969 58.765625 43.535156 C 58.734375 43.519531 58.699219 43.496094 58.65625 43.460938 C 58.570312 43.394531 58.476562 43.285156 58.410156 43.191406 C 58.34375 43.09375 58.300781 43.023438 58.300781 43.023438 C 58.300781 43.023438 58.128906 42.730469 58.027344 42.367188 C 57.917969 42.007812 57.898438 41.59375 57.894531 41.460938 C 57.886719 41.324219 57.765625 41.214844 57.554688 41.078125 C 57.578125 41.003906 57.605469 40.925781 57.632812 40.851562 C 57.65625 40.78125 57.683594 40.710938 57.710938 40.636719 C 57.871094 40.851562 58.101562 41.074219 58.386719 41.34375 C 59.191406 40.960938 59.636719 40.644531 59.722656 40.019531 C 59.765625 39.679688 59.847656 38.652344 59.84375 37.707031 C 59.847656 37.234375 59.832031 36.785156 59.8125 36.453125 C 59.796875 36.121094 59.78125 35.910156 59.78125 35.910156 C 59.78125 35.910156 59.765625 35.695312 59.738281 35.363281 C 59.707031 35.03125 59.664062 34.582031 59.597656 34.117188 C 59.484375 33.28125 59.292969 32.382812 59.191406 31.972656 C 59.160156 31.65625 59.121094 31.335938 59.074219 31.007812 C 59.070312 30.957031 59.0625 30.902344 59.054688 30.847656 C 59.046875 30.804688 59.039062 30.761719 59.03125 30.71875 C 59 30.550781 58.972656 30.398438 58.972656 30.398438 C 58.972656 30.398438 58.914062 29.960938 58.867188 29.78125 C 58.660156 28.746094 58.46875 27.996094 58.316406 27.429688 C 58.164062 26.863281 58.050781 26.480469 57.964844 26.1875 C 57.929688 26.0625 57.890625 25.9375 57.851562 25.8125 C 58.171875 25.671875 58.375 25.492188 58.46875 25.199219 C 58.558594 24.933594 58.796875 24.117188 59.011719 23.367188 C 59.117188 22.996094 59.21875 22.640625 59.292969 22.378906 C 59.363281 22.128906 59.410156 21.992188 59.410156 21.992188 C 59.410156 21.992188 59.425781 21.945312 59.457031 21.871094 C 59.636719 21.957031 59.917969 21.96875 60.308594 21.964844 C 60.765625 22.246094 61.335938 22.824219 61.804688 23.605469 C 62.292969 24.402344 62.679688 25.359375 62.941406 26.199219 C 63.207031 27.039062 63.363281 27.757812 63.4375 28.113281 C 63.574219 28.773438 63.757812 29.277344 64.007812 29.761719 C 64.03125 29.796875 64.046875 29.832031 64.066406 29.867188 C 64.105469 30.453125 64.140625 31.222656 64.140625 32.027344 C 64.140625 32.871094 64.089844 33.753906 64.039062 34.5 C 63.972656 35.246094 63.898438 35.855469 63.863281 36.160156 C 63.746094 37.082031 63.921875 37.710938 64.285156 38.535156 C 64.160156 38.816406 64.015625 39.101562 63.875 39.398438 Z M 55.308594 46.773438 C 55.289062 46.941406 55.269531 47.117188 55.253906 47.292969 C 55.210938 46.75 55.117188 46.183594 54.945312 45.605469 C 54.945312 45.601562 54.945312 45.597656 54.945312 45.589844 C 55.089844 45.710938 55.25 45.824219 55.429688 45.9375 C 55.421875 45.980469 55.417969 46.019531 55.410156 46.0625 C 55.375 46.285156 55.335938 46.527344 55.308594 46.773438 Z M 23.925781 64.382812 C 24.289062 64.539062 24.613281 64.679688 24.902344 64.804688 C 24.785156 64.78125 24.664062 64.773438 24.523438 64.78125 C 24.386719 64.78125 24.230469 64.789062 24.042969 64.804688 L 24.027344 64.804688 C 23.898438 64.632812 23.777344 64.5 23.695312 64.417969 C 23.644531 64.367188 23.589844 64.320312 23.539062 64.277344 C 23.667969 64.316406 23.796875 64.347656 23.925781 64.382812 Z M 51.582031 53.433594 C 51.550781 53.351562 51.511719 53.273438 51.460938 53.191406 C 51.722656 52.964844 51.964844 52.722656 52.191406 52.464844 C 52.117188 52.621094 52.042969 52.769531 51.964844 52.917969 C 51.851562 53.089844 51.722656 53.261719 51.582031 53.433594 Z M 47.195312 59.121094 C 47.449219 58.933594 47.808594 58.652344 48.171875 58.347656 C 47.996094 58.558594 47.808594 58.773438 47.613281 58.996094 C 47.589844 59.019531 47.566406 59.046875 47.539062 59.074219 Z M 45.910156 60.675781 C 45.894531 60.578125 45.871094 60.476562 45.839844 60.382812 C 45.824219 60.335938 45.800781 60.292969 45.78125 60.25 L 46.78125 59.867188 C 46.550781 60.097656 46.265625 60.367188 45.910156 60.675781 Z M 25.050781 67.664062 C 25.050781 67.664062 25.050781 67.660156 25.054688 67.664062 C 25.054688 67.660156 25.054688 67.664062 25.054688 67.664062 Z M 25.050781 67.664062 Z M 25.199219 67.453125 C 25.410156 67.527344 25.640625 67.59375 25.878906 67.648438 C 25.636719 67.664062 25.414062 67.667969 25.230469 67.664062 L 25.054688 67.664062 C 25.054688 67.664062 25.054688 67.660156 25.054688 67.65625 L 25.042969 67.582031 C 25.035156 67.519531 25.027344 67.453125 25.015625 67.382812 C 25.074219 67.40625 25.136719 67.429688 25.199219 67.453125 Z M 27.621094 57.410156 C 28.746094 57.789062 29.742188 58.027344 30.679688 58.164062 C 30.253906 58.246094 29.839844 58.328125 29.453125 58.398438 C 29.207031 58.328125 28.933594 58.25 28.628906 58.164062 C 27.816406 57.921875 26.800781 57.585938 25.5625 57.125 C 25.109375 56.941406 24.5625 56.71875 24.003906 56.484375 C 23.453125 56.230469 22.875 55.992188 22.375 55.734375 C 21.355469 55.25 20.585938 54.816406 20.585938 54.816406 C 20.585938 54.816406 20.363281 54.695312 20.007812 54.496094 C 20.019531 54.5 20.027344 54.503906 20.039062 54.507812 C 20.3125 54.613281 20.625 54.75 20.996094 54.886719 C 21.367188 55.019531 21.792969 55.175781 22.28125 55.351562 C 22.675781 55.488281 23.15625 55.640625 23.6875 55.804688 C 25.59375 56.703125 26.894531 57.15625 27.621094 57.410156 Z M 25.496094 59.597656 C 25.484375 59.585938 25.46875 59.574219 25.453125 59.558594 C 25.476562 59.566406 25.496094 59.574219 25.519531 59.582031 C 25.511719 59.589844 25.503906 59.59375 25.496094 59.597656 Z M 45.386719 57.113281 C 45.457031 57.09375 45.519531 57.078125 45.582031 57.058594 C 45.789062 57.003906 45.992188 56.945312 46.1875 56.882812 C 45.992188 57.050781 45.804688 57.207031 45.636719 57.347656 C 45.542969 57.242188 45.460938 57.164062 45.386719 57.113281 Z M 44.632812 57.285156 C 44.558594 57.324219 44.480469 57.363281 44.402344 57.402344 C 44.109375 57.558594 43.851562 57.714844 43.851562 57.714844 C 43.851562 57.714844 43.585938 57.859375 43.304688 58.03125 C 43.289062 58.042969 43.269531 58.054688 43.253906 58.066406 C 43.027344 58.144531 42.824219 58.230469 42.621094 58.328125 C 42.515625 58.339844 42.421875 58.378906 42.332031 58.445312 C 42.28125 58.480469 42.207031 58.535156 42.117188 58.609375 C 42.113281 58.609375 42.109375 58.613281 42.105469 58.613281 C 42.179688 58.488281 42.257812 58.351562 42.335938 58.203125 C 42.324219 58.195312 42.3125 58.1875 42.304688 58.179688 C 42.664062 58.078125 42.957031 57.996094 43.105469 57.949219 C 43.351562 57.871094 43.53125 57.734375 43.679688 57.542969 C 43.933594 57.472656 44.140625 57.417969 44.285156 57.375 C 44.347656 57.355469 44.40625 57.339844 44.464844 57.320312 C 44.523438 57.308594 44.578125 57.296875 44.632812 57.285156 Z M 24.71875 61.523438 C 24.738281 61.539062 24.761719 61.550781 24.785156 61.5625 C 24.644531 61.695312 24.507812 61.855469 24.367188 62.046875 C 23.855469 61.824219 23.28125 61.578125 22.644531 61.300781 C 23.3125 61.425781 23.996094 61.496094 24.71875 61.523438 Z M 17.746094 56.140625 C 18.6875 56.964844 19.476562 57.632812 20.125 58.167969 C 19.636719 57.835938 19.121094 57.480469 18.5625 57.074219 C 17.996094 56.632812 16.929688 55.871094 15.550781 54.414062 C 15.566406 54.425781 15.582031 54.433594 15.59375 54.441406 C 15.921875 54.679688 16.269531 54.910156 16.621094 55.136719 C 17.015625 55.496094 17.398438 55.835938 17.746094 56.140625 Z M 47.453125 39.394531 C 47.898438 39.738281 48.460938 40.214844 49.167969 40.914062 C 49.246094 41 49.382812 41.136719 49.5 41.25 C 49.613281 41.371094 49.707031 41.46875 49.707031 41.46875 C 49.707031 41.46875 49.832031 41.609375 49.96875 41.769531 L 50.074219 41.886719 C 50.117188 41.9375 50.160156 41.984375 50.195312 42.027344 C 50.933594 42.898438 51.507812 43.75 51.894531 44.492188 C 52.296875 45.230469 52.511719 45.859375 52.636719 46.273438 C 52.871094 47.046875 52.976562 47.746094 53.023438 48.386719 C 53.058594 49.039062 53.023438 49.652344 52.933594 50.25 C 52.914062 50.367188 52.894531 50.484375 52.871094 50.597656 C 52.550781 50.867188 52.230469 51.085938 51.90625 51.273438 C 51.359375 51.589844 50.808594 51.824219 50.238281 52.039062 C 49.089844 52.457031 47.851562 52.804688 46.195312 53.210938 C 45.625 53.339844 44.703125 53.59375 42.753906 53.933594 C 42.382812 53.984375 41.511719 54.136719 41.511719 54.136719 C 41.511719 54.136719 40.777344 54.21875 40.367188 54.277344 C 37.742188 54.574219 36.101562 54.585938 35.25 54.605469 C 33.519531 54.621094 32.164062 54.660156 30.859375 54.738281 C 30.398438 54.765625 29.9375 54.800781 29.472656 54.839844 C 29.117188 54.777344 28.738281 54.707031 28.34375 54.617188 C 27.074219 54.355469 25.675781 53.980469 24.511719 53.632812 C 24.246094 53.503906 23.972656 53.371094 23.6875 53.226562 C 23.40625 53.085938 22.902344 52.832031 22.902344 52.832031 C 22.902344 52.832031 22.3125 52.496094 22.054688 52.367188 C 20.324219 51.398438 19.515625 50.871094 19.011719 50.566406 C 17.535156 49.640625 16.339844 48.953125 15.15625 48.367188 C 14.167969 47.878906 13.183594 47.460938 12.0625 47.011719 C 12.039062 46.96875 12.011719 46.929688 11.988281 46.882812 C 11.667969 46.320312 11.339844 45.546875 11.28125 44.628906 C 11.207031 43.710938 11.414062 42.652344 11.773438 41.707031 C 12.125 40.761719 12.625 39.925781 13.035156 39.34375 C 13.183594 39.128906 13.324219 38.9375 13.460938 38.761719 C 13.636719 38.644531 13.8125 38.527344 13.996094 38.421875 C 14.535156 38.082031 15.09375 37.796875 15.503906 37.585938 C 15.917969 37.378906 16.1875 37.25 16.1875 37.25 C 16.1875 37.25 17.28125 36.746094 18.546875 36.25 C 19.820312 35.753906 21.210938 35.214844 21.671875 35.023438 C 22.027344 34.875 22.296875 34.6875 22.519531 34.453125 C 22.542969 34.449219 22.5625 34.449219 22.585938 34.445312 C 22.960938 34.390625 23.722656 34.300781 24.679688 34.269531 C 25.632812 34.234375 26.777344 34.253906 27.890625 34.300781 C 29.011719 34.359375 30.078125 34.417969 30.871094 34.457031 C 31.652344 34.507812 32.15625 34.542969 32.15625 34.542969 C 32.15625 34.542969 32.660156 34.578125 33.429688 34.660156 C 34.199219 34.738281 35.234375 34.871094 36.292969 35.078125 C 37.347656 35.285156 38.421875 35.582031 39.300781 35.902344 C 40.183594 36.21875 40.859375 36.558594 41.199219 36.726562 C 41.820312 37.042969 42.328125 37.242188 42.871094 37.382812 C 43.414062 37.523438 43.992188 37.601562 44.714844 37.757812 C 44.6875 37.65625 44.660156 37.554688 44.628906 37.457031 C 45.195312 37.8125 45.796875 38.203125 46.453125 38.652344 C 46.691406 38.828125 47.015625 39.039062 47.453125 39.394531 Z M 34.664062 29.347656 C 34.417969 29.289062 34.136719 29.234375 33.839844 29.175781 C 34.96875 29.089844 35.835938 29.054688 36.460938 29.039062 C 36.289062 29.125 36.113281 29.21875 35.921875 29.328125 C 35.996094 29.457031 36.0625 29.574219 36.132812 29.6875 C 35.972656 29.648438 35.882812 29.625 35.882812 29.625 C 35.882812 29.625 35.40625 29.519531 34.664062 29.347656 Z M 24.632812 25.039062 C 24.585938 25.175781 24.539062 25.316406 24.488281 25.464844 C 24.53125 25.164062 24.566406 24.863281 24.597656 24.5625 C 24.597656 24.730469 24.613281 24.886719 24.632812 25.039062 Z M 55.664062 17.613281 C 55.664062 17.613281 55.664062 17.617188 55.664062 17.617188 C 55.609375 17.472656 55.558594 17.328125 55.507812 17.195312 C 55.539062 17.238281 55.566406 17.28125 55.589844 17.316406 C 55.664062 17.445312 55.671875 17.523438 55.671875 17.570312 C 55.671875 17.582031 55.667969 17.597656 55.664062 17.613281 Z M 44.910156 29.328125 C 45.21875 29.390625 45.503906 29.449219 45.753906 29.5 C 45.753906 29.578125 45.757812 29.652344 45.761719 29.726562 C 45.585938 29.636719 45.421875 29.558594 45.28125 29.492188 C 45.15625 29.433594 45.03125 29.378906 44.910156 29.328125 Z M 45.714844 19.320312 L 45.714844 19.324219 C 45.625 19.292969 45.539062 19.265625 45.457031 19.246094 C 45.589844 19.140625 45.726562 19.035156 45.859375 18.929688 C 45.777344 19.148438 45.714844 19.320312 45.714844 19.320312 Z M 27.828125 25.386719 C 27.699219 25.429688 27.578125 25.472656 27.460938 25.511719 C 27.390625 25.535156 27.324219 25.558594 27.257812 25.582031 C 27.265625 25.484375 27.261719 25.390625 27.238281 25.292969 C 27.300781 25.300781 27.363281 25.3125 27.425781 25.320312 C 27.5625 25.34375 27.703125 25.359375 27.839844 25.375 Z M 47.128906 29.757812 C 47.132812 29.769531 47.136719 29.777344 47.140625 29.785156 C 47.113281 29.773438 47.089844 29.761719 47.0625 29.75 C 47.085938 29.753906 47.109375 29.753906 47.128906 29.757812 Z M 45.953125 25.871094 C 45.953125 25.875 45.953125 25.878906 45.957031 25.882812 C 45.945312 25.878906 45.9375 25.875 45.929688 25.867188 C 45.9375 25.871094 45.945312 25.871094 45.953125 25.871094 Z M 46.460938 22.488281 C 46.4375 22.46875 46.414062 22.453125 46.390625 22.433594 C 46.492188 22.359375 46.601562 22.277344 46.71875 22.183594 C 46.75 22.195312 46.78125 22.207031 46.8125 22.214844 C 46.761719 22.363281 46.699219 22.558594 46.628906 22.773438 C 46.578125 22.683594 46.523438 22.589844 46.460938 22.488281 Z M 49.492188 14.734375 L 49.496094 14.738281 C 49.496094 14.738281 49.496094 14.738281 49.492188 14.738281 L 49.488281 14.730469 C 49.488281 14.730469 49.488281 14.726562 49.492188 14.734375 Z M 49.496094 14.742188 L 49.535156 14.785156 C 49.59375 14.863281 49.652344 14.9375 49.707031 15.011719 C 49.695312 15.039062 49.683594 15.070312 49.671875 15.097656 C 49.613281 15.238281 49.558594 15.363281 49.515625 15.476562 C 49.484375 15.558594 49.453125 15.640625 49.425781 15.722656 C 49.441406 15.460938 49.460938 15.195312 49.480469 14.929688 Z M 55.96875 40.59375 C 55.933594 40.546875 55.902344 40.503906 55.867188 40.457031 C 55.855469 40.402344 55.839844 40.34375 55.824219 40.289062 C 55.902344 40.117188 55.972656 39.957031 56.03125 39.808594 C 56.003906 40.050781 55.980469 40.292969 55.972656 40.535156 C 55.96875 40.554688 55.96875 40.574219 55.96875 40.59375 Z M 68.125 31.199219 C 68.117188 30.9375 68.113281 30.683594 68.105469 30.429688 C 68.078125 30.179688 68.054688 29.9375 68.03125 29.707031 C 68.007812 29.476562 67.984375 29.253906 67.960938 29.046875 C 67.941406 28.835938 67.890625 28.648438 67.863281 28.472656 C 67.792969 28.121094 67.738281 27.839844 67.699219 27.652344 C 67.679688 27.566406 67.660156 27.484375 67.644531 27.398438 C 67.617188 27.320312 67.589844 27.242188 67.5625 27.167969 C 67.503906 27.019531 67.441406 26.878906 67.378906 26.746094 C 67.246094 26.476562 67.101562 26.242188 66.933594 26.023438 C 66.628906 25.671875 66.257812 25.371094 65.828125 25.070312 C 65.648438 24.199219 65.410156 23.28125 65.136719 22.5 C 64.867188 21.699219 64.550781 21.054688 64.382812 20.742188 C 64.0625 20.15625 63.671875 19.765625 63.210938 19.503906 C 62.75 19.246094 62.21875 19.109375 61.597656 19.070312 C 61.453125 18.910156 61.261719 18.800781 61.003906 18.75 C 60.953125 18.742188 60.890625 18.730469 60.8125 18.722656 C 60.816406 18.640625 60.816406 18.558594 60.808594 18.480469 C 60.789062 18.128906 60.652344 17.824219 60.5 17.574219 C 60.390625 17.40625 60.261719 17.273438 60.125 17.15625 C 59.992188 16.925781 59.832031 16.671875 59.644531 16.410156 C 59.210938 15.8125 58.648438 15.171875 58.074219 14.625 C 57.496094 14.070312 56.945312 13.617188 56.554688 13.273438 C 56.167969 12.9375 55.917969 12.722656 55.917969 12.722656 C 55.917969 12.722656 55.671875 12.503906 55.320312 12.164062 C 54.964844 11.824219 54.511719 11.359375 54.128906 10.84375 C 53.738281 10.328125 53.453125 9.765625 53.277344 9.257812 C 53.207031 9.054688 53.152344 8.859375 53.105469 8.675781 C 53.105469 8.378906 53.109375 8.039062 53.117188 7.683594 C 53.128906 7.191406 53.167969 6.589844 53.105469 6.011719 C 53.074219 5.722656 53.023438 5.449219 52.957031 5.214844 C 52.921875 5.09375 52.859375 4.898438 52.742188 4.707031 C 52.628906 4.511719 52.417969 4.289062 52.175781 4.164062 C 51.953125 4.046875 51.695312 3.996094 51.46875 4.007812 C 51.238281 4.019531 51.058594 4.085938 50.933594 4.148438 C 50.679688 4.285156 50.574219 4.410156 50.496094 4.507812 C 50.453125 4.5625 50.4375 4.597656 50.425781 4.632812 C 50.421875 4.644531 50.414062 4.660156 50.410156 4.675781 C 50.296875 4.585938 50.167969 4.5 50.015625 4.441406 L 48.992188 4.039062 L 48.882812 4.277344 C 48.734375 4.234375 48.582031 4.226562 48.4375 4.242188 C 48.039062 4.296875 47.671875 4.570312 47.515625 5.015625 C 47.800781 5.292969 47.851562 5.625 47.832031 5.820312 C 47.820312 5.921875 47.796875 5.992188 47.773438 6.039062 C 47.746094 6.085938 47.734375 6.109375 47.757812 6.148438 C 47.777344 6.179688 47.832031 6.261719 47.910156 6.464844 C 47.671875 7.050781 47.402344 7.757812 47.167969 8.503906 C 46.886719 9.382812 46.640625 10.304688 46.464844 11.09375 C 46.433594 11.242188 46.40625 11.378906 46.378906 11.515625 C 46.164062 11.574219 45.988281 11.675781 45.832031 11.847656 C 45.625 12.074219 45.003906 12.765625 44.375 13.34375 C 44.066406 13.640625 43.757812 13.902344 43.523438 14.097656 C 43.292969 14.285156 43.140625 14.410156 43.140625 14.410156 C 43.140625 14.410156 42.984375 14.523438 42.742188 14.703125 C 42.5 14.882812 42.167969 15.117188 41.808594 15.347656 C 41.097656 15.816406 40.273438 16.25 40 16.398438 C 39.960938 16.417969 39.929688 16.4375 39.894531 16.460938 C 39.21875 16.414062 38.640625 16.488281 37.925781 16.808594 C 37.359375 17.070312 35.644531 17.828125 34.027344 18.410156 C 32.414062 19.003906 30.90625 19.433594 30.90625 19.433594 C 30.90625 19.433594 29.40625 19.875 27.726562 20.234375 C 27.515625 20.277344 27.304688 20.324219 27.089844 20.367188 C 26.980469 20.390625 26.851562 20.417969 26.707031 20.453125 C 26.636719 20.472656 26.5625 20.492188 26.484375 20.519531 L 26.363281 20.5625 C 26.320312 20.578125 26.261719 20.601562 26.214844 20.621094 C 25.808594 20.792969 25.457031 21.066406 25.230469 21.417969 C 25 21.75 24.886719 22.238281 24.855469 22.410156 C 24.792969 22.714844 24.746094 23 24.710938 23.257812 C 24.75 22.714844 24.777344 22.148438 24.804688 21.542969 C 24.285156 22.421875 23.832031 23.210938 23.421875 24 C 23.261719 23.824219 22.988281 23.621094 22.621094 23.359375 C 21.8125 23.382812 21.359375 23.445312 21.253906 23.753906 C 21.195312 23.917969 21.0625 24.429688 20.957031 24.902344 C 20.847656 25.375 20.769531 25.804688 20.769531 25.804688 C 20.769531 25.804688 20.679688 26.234375 20.601562 26.714844 C 20.566406 26.941406 20.519531 27.226562 20.503906 27.5 C 20.484375 27.769531 20.503906 28.03125 20.523438 28.164062 C 20.574219 28.539062 20.941406 28.8125 21.457031 28.808594 C 21.363281 29.125 21.339844 29.402344 21.28125 29.707031 C 21.269531 29.796875 21.253906 29.886719 21.238281 29.976562 L 21.21875 30.117188 C 21.21875 30.136719 21.199219 30.167969 21.214844 30.179688 L 21.289062 30.199219 C 21.476562 30.25 21.671875 30.300781 21.863281 30.351562 C 22.125 30.421875 22.410156 30.511719 22.796875 30.574219 C 22.988281 30.601562 23.207031 30.628906 23.445312 30.636719 C 23.566406 30.640625 23.691406 30.644531 23.824219 30.644531 C 23.941406 30.644531 24.136719 30.632812 24.191406 30.628906 C 24.242188 30.628906 24.300781 30.621094 24.355469 30.617188 C 24.441406 30.65625 24.527344 30.683594 24.605469 30.699219 C 24.773438 30.742188 24.972656 30.746094 25.136719 30.726562 C 25.300781 30.703125 25.433594 30.660156 25.542969 30.617188 C 25.746094 30.535156 25.859375 30.453125 25.945312 30.394531 C 26.097656 30.417969 26.253906 30.4375 26.417969 30.453125 C 27.167969 30.519531 29.421875 30.734375 31.464844 31.085938 C 31.976562 31.171875 32.476562 31.257812 32.933594 31.351562 C 33.394531 31.441406 33.816406 31.519531 34.171875 31.601562 C 34.886719 31.761719 35.347656 31.863281 35.347656 31.863281 C 35.347656 31.863281 35.800781 31.980469 36.511719 32.160156 C 36.867188 32.246094 37.277344 32.371094 37.730469 32.496094 C 38.183594 32.617188 38.664062 32.765625 39.160156 32.921875 C 41.140625 33.53125 43.25 34.355469 43.945312 34.636719 C 44.59375 34.890625 45.128906 35.019531 45.6875 35.042969 C 45.855469 35.054688 46.023438 35.058594 46.195312 35.054688 C 46.652344 35.503906 47.230469 36.078125 47.800781 36.660156 C 46.183594 35.582031 44.75 34.988281 43.351562 34.652344 C 42.875 34.539062 42.398438 34.457031 41.917969 34.398438 C 41.488281 34.179688 40.867188 33.894531 40.132812 33.632812 C 39.503906 33.398438 38.789062 33.183594 38.058594 32.996094 C 38 32.976562 37.945312 32.957031 37.882812 32.933594 C 37.171875 32.695312 34.988281 32.078125 32.933594 31.78125 C 31.90625 31.632812 30.921875 31.523438 30.191406 31.480469 C 29.460938 31.421875 28.992188 31.417969 28.992188 31.417969 C 28.992188 31.417969 27.101562 31.324219 25.03125 31.492188 C 24.515625 31.53125 23.984375 31.589844 23.476562 31.648438 C 22.964844 31.726562 22.46875 31.785156 22.007812 31.871094 C 21.089844 32.027344 20.324219 32.238281 19.945312 32.359375 C 19.597656 32.472656 19.296875 32.609375 19.03125 32.769531 C 18.703125 32.8125 18.371094 32.871094 18.039062 32.949219 C 17.695312 33.027344 17.351562 33.140625 17 33.257812 C 16.660156 33.394531 16.296875 33.523438 15.945312 33.710938 C 15.226562 34.054688 14.507812 34.53125 13.761719 35.136719 C 13.515625 35.347656 13.183594 35.621094 12.75 36.066406 C 12.488281 36.328125 12.183594 36.648438 11.847656 37.058594 C 11.546875 37.269531 11.261719 37.488281 11.007812 37.703125 C 10.746094 37.90625 10.527344 38.128906 10.335938 38.296875 C 10.152344 38.472656 10.011719 38.628906 9.917969 38.726562 C 9.828125 38.828125 9.753906 38.925781 9.683594 39.023438 C 9.417969 39.222656 9.175781 39.445312 8.953125 39.683594 C 8.460938 40.222656 8.074219 40.839844 7.789062 41.519531 C 7.507812 42.199219 7.324219 42.941406 7.257812 43.765625 C 7.21875 44.175781 7.226562 44.605469 7.253906 45.054688 C 7.296875 45.496094 7.355469 45.960938 7.464844 46.429688 C 7.539062 46.753906 7.644531 47.171875 7.835938 47.757812 C 8.03125 48.34375 8.316406 49.101562 8.773438 50.058594 C 8.8125 50.152344 8.863281 50.257812 8.917969 50.367188 C 8.921875 50.375 8.921875 50.375 8.921875 50.378906 C 8.910156 50.460938 8.898438 50.546875 8.890625 50.625 C 8.816406 51.351562 8.882812 52.070312 9.050781 52.777344 C 9.214844 53.488281 9.488281 54.191406 9.878906 54.894531 C 10.078125 55.242188 10.296875 55.609375 10.566406 55.941406 C 10.832031 56.28125 11.09375 56.65625 11.429688 56.992188 C 11.65625 57.21875 11.929688 57.550781 12.390625 57.953125 C 12.839844 58.371094 13.453125 58.894531 14.324219 59.519531 C 14.828125 59.886719 15.707031 60.457031 16.476562 60.886719 C 16.859375 61.105469 17.207031 61.300781 17.46875 61.429688 C 17.582031 61.488281 17.675781 61.535156 17.746094 61.574219 C 17.953125 61.726562 18.132812 61.847656 18.261719 61.9375 C 18.421875 62.046875 18.511719 62.101562 18.511719 62.101562 C 18.511719 62.101562 18.808594 62.300781 19.316406 62.589844 C 19.824219 62.875 20.550781 63.234375 21.382812 63.566406 C 21.742188 63.710938 22.125 63.84375 22.515625 63.972656 C 22.164062 64.007812 21.800781 64.171875 21.5 64.464844 C 21.710938 64.878906 21.75 65.207031 21.796875 65.453125 C 21.839844 65.699219 21.886719 65.859375 22.019531 66.011719 C 22.082031 66.082031 22.195312 66.214844 22.304688 66.410156 C 22.417969 66.609375 22.53125 66.882812 22.609375 67.1875 C 22.648438 67.335938 22.679688 67.492188 22.703125 67.648438 C 22.714844 67.722656 22.726562 67.800781 22.738281 67.871094 C 22.753906 68.019531 22.769531 68.152344 22.785156 68.285156 C 22.855469 68.90625 23.136719 69.25 23.246094 69.371094 C 23.605469 69.742188 23.90625 69.8125 24.058594 69.863281 C 24.214844 69.910156 24.253906 69.910156 24.253906 69.910156 C 24.253906 69.910156 24.28125 69.917969 24.332031 69.925781 C 24.371094 69.933594 24.425781 69.9375 24.488281 69.941406 C 24.648438 70.101562 24.847656 70.230469 25.054688 70.316406 C 25.367188 70.449219 25.691406 70.507812 26.007812 70.515625 C 26.324219 70.523438 26.632812 70.480469 26.929688 70.40625 C 27.234375 70.328125 27.503906 70.230469 27.8125 70.089844 C 28.027344 69.992188 28.390625 69.824219 28.84375 69.613281 C 29.023438 69.613281 29.199219 69.601562 29.367188 69.589844 C 29.699219 69.574219 30.027344 69.550781 30.359375 69.519531 C 30.816406 69.476562 31.285156 69.417969 31.769531 69.34375 C 31.808594 69.347656 31.851562 69.351562 31.894531 69.355469 C 30.894531 69.523438 30.03125 69.632812 29.644531 69.679688 C 29.0625 69.753906 28.609375 69.886719 28.1875 70.121094 C 27.761719 70.339844 27.359375 70.640625 26.867188 71.039062 C 27.386719 71.378906 27.832031 71.640625 28.304688 71.808594 C 28.773438 71.960938 29.273438 72.035156 29.894531 71.972656 C 30.566406 71.914062 32.578125 71.652344 34.390625 71.234375 C 34.847656 71.136719 35.289062 71.03125 35.691406 70.921875 C 36.097656 70.8125 36.472656 70.722656 36.785156 70.625 C 37.414062 70.4375 37.816406 70.316406 37.816406 70.316406 C 37.816406 70.316406 38.21875 70.183594 38.839844 69.980469 C 39.152344 69.882812 39.511719 69.742188 39.90625 69.601562 C 40.300781 69.460938 40.722656 69.292969 41.152344 69.117188 C 42.878906 68.425781 44.679688 67.492188 45.265625 67.160156 C 45.808594 66.855469 46.175781 66.511719 46.476562 66.117188 C 46.769531 65.714844 46.988281 65.242188 47.21875 64.667969 C 46.585938 64.625 46.082031 64.601562 45.609375 64.664062 C 45.496094 64.675781 45.382812 64.695312 45.269531 64.714844 C 45.59375 64.574219 45.855469 64.457031 45.996094 64.390625 C 46.605469 64.105469 46.816406 63.609375 47.035156 62.765625 C 48.371094 61.644531 48.953125 60.941406 49.347656 60.527344 C 50.578125 59.097656 51.304688 57.769531 51.757812 56.445312 C 52.09375 55.4375 52.277344 54.425781 52.308594 53.332031 C 52.652344 53.132812 52.96875 52.898438 53.257812 52.636719 C 53.824219 52.125 54.269531 51.5 54.609375 50.804688 C 54.859375 50.277344 55.050781 49.707031 55.164062 49.085938 C 55.160156 49.324219 55.160156 49.5625 55.15625 49.800781 C 55.152344 50.300781 55.148438 50.792969 55.140625 51.246094 C 55.140625 51.363281 55.140625 51.476562 55.136719 51.589844 L 55.136719 51.613281 C 55.140625 51.613281 55.148438 51.605469 55.152344 51.601562 L 55.179688 51.578125 L 55.234375 51.527344 C 55.273438 51.496094 55.3125 51.464844 55.347656 51.429688 C 55.492188 51.304688 55.628906 51.183594 55.753906 51.074219 C 56.253906 50.636719 56.578125 50.351562 56.578125 50.351562 C 56.578125 50.351562 56.65625 50.285156 56.800781 50.160156 C 56.945312 50.03125 57.136719 49.886719 57.433594 49.570312 C 57.980469 49.011719 58.722656 48.253906 59.5 47.460938 C 59.988281 46.964844 60.503906 46.441406 60.894531 46.035156 C 61.199219 45.976562 61.484375 45.902344 61.761719 45.796875 C 62.253906 45.570312 62.730469 45.257812 63.203125 44.738281 C 63.324219 44.589844 63.507812 44.371094 63.734375 44.097656 C 63.847656 43.960938 63.96875 43.808594 64.101562 43.648438 C 64.21875 43.476562 64.347656 43.296875 64.480469 43.105469 C 64.742188 42.722656 65.042969 42.3125 65.292969 41.855469 C 65.550781 41.402344 65.835938 40.945312 66.046875 40.464844 C 66.269531 39.992188 66.507812 39.539062 66.664062 39.089844 C 66.828125 38.644531 67.003906 38.246094 67.109375 37.894531 C 67.320312 37.1875 67.457031 36.730469 67.457031 36.730469 C 67.457031 36.730469 67.496094 36.617188 67.539062 36.410156 C 67.585938 36.203125 67.652344 35.910156 67.730469 35.546875 C 67.765625 35.367188 67.824219 35.171875 67.851562 34.960938 C 67.878906 34.75 67.914062 34.523438 67.945312 34.289062 C 67.980469 34.054688 68.011719 33.808594 68.046875 33.558594 C 68.0625 33.304688 68.078125 33.046875 68.09375 32.785156 C 68.109375 32.523438 68.125 32.257812 68.140625 31.992188 C 68.136719 31.726562 68.128906 31.460938 68.125 31.199219 "/>
</g>
<path style=" stroke:none;fill-rule:nonzero;fill:rgb(74.119568%,87.449646%,57.649231%);fill-opacity:1;" d="M 34.984375 12.363281 C 35.300781 12.421875 35.585938 12.398438 35.902344 12.257812 C 35.914062 12.253906 35.921875 12.25 35.933594 12.242188 C 35.929688 12.257812 35.925781 12.273438 35.921875 12.289062 C 35.890625 12.320312 35.855469 12.347656 35.824219 12.375 C 35.613281 12.558594 35.433594 12.703125 35.3125 12.800781 C 35.1875 12.902344 35.117188 12.960938 35.117188 12.960938 C 35.117188 12.960938 35.046875 13.011719 34.921875 13.109375 C 34.792969 13.203125 34.613281 13.34375 34.386719 13.5 C 34.007812 13.773438 33.5 14.109375 32.941406 14.433594 C 33.308594 14.035156 33.648438 13.664062 33.945312 13.34375 C 34.320312 13.074219 34.652344 12.769531 34.984375 12.363281 Z M 46.0625 8.632812 C 46.042969 8.59375 46.027344 8.5625 46.003906 8.527344 C 45.960938 8.46875 45.917969 8.425781 45.867188 8.386719 C 46 8.210938 46.007812 7.957031 45.945312 7.585938 C 46.019531 7.644531 46.066406 7.703125 46.117188 7.773438 C 46.171875 7.859375 46.21875 7.960938 46.246094 8.078125 C 46.273438 8.1875 46.289062 8.304688 46.289062 8.417969 C 46.214844 8.484375 46.140625 8.554688 46.0625 8.632812 Z M 41.164062 11.964844 C 41.167969 12.011719 41.175781 12.0625 41.183594 12.117188 C 41.15625 12.144531 41.125 12.175781 41.09375 12.207031 C 41.117188 12.128906 41.140625 12.046875 41.164062 11.964844 Z M 40.808594 11.101562 C 41.003906 11.210938 41.171875 11.296875 41.324219 11.347656 C 41.316406 11.355469 41.304688 11.363281 41.296875 11.367188 C 41.265625 11.390625 41.242188 11.421875 41.222656 11.457031 C 40.746094 11.527344 40.34375 11.597656 39.976562 11.695312 C 40.386719 11.394531 40.691406 11.183594 40.691406 11.183594 C 40.691406 11.183594 40.734375 11.152344 40.808594 11.101562 Z M 49.472656 6.433594 C 49.34375 5.988281 49.148438 5.644531 48.996094 5.429688 C 48.925781 5.332031 48.847656 5.242188 48.769531 5.15625 C 48.6875 5.070312 48.59375 4.984375 48.5 4.910156 C 48.3125 4.769531 48.121094 4.660156 47.929688 4.589844 C 47.546875 4.441406 47.171875 4.417969 46.828125 4.472656 C 46.488281 4.53125 46.167969 4.679688 45.914062 4.902344 C 45.878906 4.929688 45.847656 4.960938 45.816406 4.996094 C 45.6875 4.957031 45.5625 4.921875 45.4375 4.882812 C 44.261719 4.589844 43.109375 4.59375 42.296875 4.703125 C 41.882812 4.75 41.554688 4.824219 41.324219 4.871094 C 41.101562 4.925781 40.972656 4.960938 40.972656 4.960938 C 40.972656 4.960938 40.84375 4.988281 40.621094 5.054688 C 40.398438 5.121094 40.078125 5.222656 39.703125 5.371094 C 38.949219 5.660156 37.976562 6.164062 37.054688 6.835938 C 36.605469 7.171875 36.164062 7.539062 35.761719 7.917969 C 35.359375 8.296875 34.988281 8.679688 34.667969 9.046875 C 34.585938 9.140625 34.503906 9.234375 34.421875 9.328125 C 34.210938 9.484375 33.996094 9.640625 33.785156 9.792969 C 32.175781 10.976562 30.46875 12.03125 28.859375 13.203125 C 27.53125 14.167969 26.523438 15.621094 24.9375 16.203125 C 23.21875 16.828125 21.140625 16.609375 19.335938 16.925781 C 18.96875 16.992188 18.808594 17.414062 18.589844 18.183594 C 18.992188 18.871094 19.253906 19.242188 19.628906 19.210938 C 19.765625 19.199219 20.078125 19.160156 20.433594 19.117188 C 20.851562 19.429688 21.238281 19.683594 21.65625 19.867188 C 22.144531 20.054688 22.675781 20.179688 23.351562 20.164062 C 23.488281 20.15625 23.671875 20.148438 23.894531 20.136719 C 23.996094 20.238281 24.101562 20.332031 24.210938 20.417969 C 24.636719 20.710938 25.125 20.957031 25.78125 21.082031 C 25.960938 21.109375 26.230469 21.152344 26.558594 21.203125 C 26.726562 21.226562 26.910156 21.265625 27.105469 21.28125 C 27.304688 21.296875 27.511719 21.3125 27.730469 21.332031 C 27.953125 21.347656 28.183594 21.363281 28.417969 21.382812 C 28.65625 21.394531 28.898438 21.386719 29.144531 21.390625 L 29.894531 21.390625 C 30.144531 21.382812 30.394531 21.355469 30.644531 21.339844 C 30.890625 21.320312 31.136719 21.304688 31.375 21.285156 C 31.613281 21.261719 31.84375 21.21875 32.066406 21.191406 C 32.507812 21.121094 32.917969 21.078125 33.257812 20.992188 C 33.339844 20.972656 33.417969 20.953125 33.492188 20.9375 C 34.160156 21.167969 34.757812 21.230469 35.550781 21.039062 C 36.160156 20.890625 37.992188 20.410156 39.648438 19.785156 C 40.476562 19.476562 41.257812 19.132812 41.824219 18.855469 C 42.390625 18.578125 42.75 18.378906 42.75 18.378906 C 42.75 18.378906 43.109375 18.1875 43.65625 17.855469 C 44.199219 17.523438 44.917969 17.039062 45.621094 16.453125 C 46.328125 15.871094 47.011719 15.1875 47.535156 14.550781 C 48.058594 13.917969 48.433594 13.34375 48.601562 13.050781 C 48.640625 12.980469 48.679688 12.914062 48.714844 12.851562 C 48.757812 12.757812 48.804688 12.667969 48.835938 12.578125 C 48.90625 12.402344 48.949219 12.234375 48.972656 12.066406 C 49.015625 11.738281 48.992188 11.425781 48.902344 11.121094 C 48.835938 10.90625 48.734375 10.683594 48.578125 10.488281 C 48.769531 10.21875 48.949219 9.925781 49.105469 9.613281 C 49.234375 9.355469 49.34375 9.089844 49.429688 8.808594 C 49.519531 8.523438 49.574219 8.238281 49.601562 7.957031 C 49.660156 7.402344 49.605469 6.875 49.472656 6.433594 "/>
<g clip-path="url(#clip3)" clip-rule="nonzero">
<path style=" stroke:none;fill-rule:nonzero;fill:rgb(25.878906%,34.899902%,39.99939%);fill-opacity:1;" d="M 60.894531 23.410156 C 61.042969 23.277344 61.183594 23.253906 61.28125 23.253906 C 61.480469 23.25 61.707031 23.34375 61.882812 23.46875 C 62.066406 23.59375 62.199219 23.742188 62.328125 23.9375 C 62.578125 24.320312 62.742188 24.804688 62.921875 25.382812 C 63.027344 24.789062 63.109375 24.261719 62.945312 23.671875 C 62.871094 23.386719 62.703125 23.066406 62.433594 22.816406 C 62.167969 22.570312 61.792969 22.34375 61.28125 22.332031 C 61.039062 22.328125 60.628906 22.394531 60.257812 22.738281 C 60.078125 22.910156 59.925781 23.144531 59.832031 23.40625 C 59.734375 23.671875 59.683594 23.957031 59.667969 24.261719 C 59.636719 24.675781 59.703125 25.230469 59.75 25.632812 C 59.796875 26.046875 59.835938 26.375 59.835938 26.375 C 59.835938 26.375 60.003906 27.9375 60.078125 28.601562 C 60.164062 29.40625 60.210938 29.792969 60.234375 30.03125 C 60.398438 31.433594 60.644531 32.214844 61.066406 33.359375 C 61.230469 32.152344 61.300781 31.335938 61.152344 29.929688 C 61.125 29.691406 61.085938 29.304688 60.996094 28.5 C 60.925781 27.839844 60.75 26.277344 60.75 26.277344 C 60.75 26.277344 60.714844 25.949219 60.671875 25.53125 C 60.621094 25.097656 60.570312 24.632812 60.59375 24.3125 C 60.617188 23.835938 60.757812 23.53125 60.894531 23.410156 Z M 59.421875 42.265625 C 59.410156 42.398438 59.398438 42.5625 59.433594 42.753906 C 59.460938 42.949219 59.574219 43.1875 59.746094 43.339844 C 59.921875 43.496094 60.121094 43.566406 60.296875 43.605469 C 60.648438 43.675781 60.980469 43.609375 61.242188 43.527344 C 61.515625 43.445312 61.765625 43.324219 61.988281 43.179688 C 62.882812 42.59375 63.332031 41.742188 63.558594 41.164062 C 63.675781 40.867188 63.746094 40.625 63.792969 40.460938 C 63.835938 40.296875 63.859375 40.203125 63.859375 40.203125 C 63.859375 40.203125 63.96875 39.761719 64.070312 39.074219 C 64.175781 38.386719 64.296875 37.441406 64.375 36.398438 C 64.550781 34.3125 64.480469 31.847656 64.335938 30.398438 C 64.261719 29.582031 64.203125 29.183594 64.164062 28.9375 C 64.046875 28.21875 63.859375 27.65625 63.601562 27.160156 C 63.335938 26.671875 62.996094 26.246094 62.523438 25.863281 C 62.761719 26.425781 62.863281 26.898438 62.964844 27.394531 C 63.058594 27.890625 63.148438 28.40625 63.25 29.082031 C 63.285156 29.308594 63.339844 29.683594 63.410156 30.480469 C 63.550781 31.894531 63.617188 34.292969 63.449219 36.328125 C 63.375 37.34375 63.257812 38.269531 63.15625 38.933594 C 63.058594 39.601562 62.960938 39.988281 62.960938 39.988281 C 62.960938 39.988281 62.9375 40.070312 62.902344 40.21875 C 62.859375 40.363281 62.800781 40.574219 62.703125 40.824219 C 62.601562 41.074219 62.46875 41.359375 62.269531 41.636719 C 62.070312 41.914062 61.808594 42.195312 61.484375 42.402344 C 61.179688 42.601562 60.742188 42.753906 60.480469 42.699219 C 60.417969 42.683594 60.382812 42.664062 60.371094 42.652344 C 60.359375 42.640625 60.355469 42.640625 60.34375 42.59375 C 60.324219 42.496094 60.355469 42.226562 60.390625 42.019531 C 60.542969 41.144531 60.960938 40.300781 61.261719 39.550781 C 61.46875 39.039062 61.617188 38.597656 61.707031 38.234375 C 61.792969 37.875 61.835938 37.605469 61.855469 37.417969 C 61.945312 36.667969 61.871094 36.066406 61.71875 35.53125 C 61.5625 35 61.320312 34.523438 60.964844 34.027344 C 61.046875 34.632812 61.050781 35.125 61.050781 35.628906 C 61.039062 36.132812 61.027344 36.652344 60.941406 37.304688 C 60.898438 37.632812 60.808594 38.226562 60.398438 39.203125 C 60.117188 39.921875 59.667969 40.796875 59.476562 41.863281 C 59.449219 41.992188 59.4375 42.128906 59.421875 42.265625 Z M 12.050781 45.886719 C 12.5625 46.769531 13.207031 47.519531 13.882812 48.160156 C 14.5625 48.804688 15.277344 49.339844 15.96875 49.804688 C 16.660156 50.269531 17.34375 50.65625 17.976562 50.988281 C 19.25 51.652344 20.339844 52.089844 21.101562 52.382812 C 21.863281 52.675781 22.300781 52.816406 22.300781 52.816406 C 22.300781 52.816406 24.03125 53.449219 26.808594 54.0625 C 29.582031 54.671875 33.402344 55.222656 37.441406 55.226562 C 39.453125 55.226562 41.523438 55.101562 43.511719 54.78125 C 45.5 54.464844 47.417969 53.976562 49.085938 53.234375 C 49.5 53.046875 49.90625 52.855469 50.285156 52.636719 C 50.476562 52.535156 50.660156 52.417969 50.839844 52.300781 C 50.929688 52.246094 51.019531 52.1875 51.105469 52.128906 C 51.175781 52.082031 51.242188 52.03125 51.308594 51.980469 C 51.488281 51.851562 51.65625 51.734375 51.796875 51.609375 C 52.089844 51.371094 52.304688 51.152344 52.449219 51.007812 C 53.476562 49.902344 53.730469 48.914062 53.640625 47.714844 C 53.136719 48.824219 52.679688 49.402344 51.785156 50.367188 C 51.65625 50.496094 51.46875 50.683594 51.207031 50.894531 C 51.082031 51.007812 50.929688 51.113281 50.765625 51.234375 C 50.707031 51.277344 50.644531 51.320312 50.585938 51.367188 C 50.503906 51.417969 50.421875 51.46875 50.339844 51.523438 C 50.175781 51.628906 50.007812 51.734375 49.828125 51.828125 C 49.476562 52.03125 49.101562 52.210938 48.710938 52.386719 C 47.140625 53.082031 45.296875 53.5625 43.367188 53.867188 C 41.433594 54.175781 39.414062 54.300781 37.441406 54.300781 C 33.484375 54.296875 29.722656 53.757812 27.003906 53.160156 C 24.285156 52.558594 22.597656 51.941406 22.597656 51.941406 C 22.597656 51.941406 22.171875 51.804688 21.429688 51.523438 C 20.691406 51.238281 19.628906 50.808594 18.40625 50.171875 C 17.796875 49.851562 17.144531 49.480469 16.484375 49.035156 C 15.824219 48.59375 15.152344 48.085938 14.523438 47.488281 C 13.894531 46.894531 13.308594 46.207031 12.851562 45.425781 C 12.738281 45.230469 12.644531 45.027344 12.542969 44.824219 C 12.464844 44.613281 12.363281 44.40625 12.308594 44.1875 C 12.164062 43.757812 12.097656 43.304688 12.074219 42.847656 L 12.070312 42.507812 C 12.070312 42.394531 12.089844 42.28125 12.097656 42.164062 C 12.101562 42.050781 12.117188 41.9375 12.140625 41.832031 C 12.15625 41.722656 12.183594 41.617188 12.214844 41.507812 C 12.339844 41.082031 12.542969 40.667969 12.804688 40.285156 C 13.324219 39.515625 14.039062 38.851562 14.808594 38.289062 C 15.578125 37.71875 16.410156 37.246094 17.242188 36.832031 C 17.660156 36.628906 18.074219 36.4375 18.492188 36.265625 C 18.699219 36.175781 18.910156 36.097656 19.117188 36.015625 C 19.308594 35.941406 19.503906 35.871094 19.691406 35.800781 C 20.558594 35.488281 21.285156 35.277344 21.648438 35.175781 C 22.992188 34.800781 23.730469 34.496094 24.847656 34.003906 C 23.632812 33.914062 22.789062 33.917969 21.402344 34.292969 C 21.023438 34.390625 20.273438 34.605469 19.378906 34.929688 C 19.179688 35 18.980469 35.074219 18.78125 35.148438 C 18.566406 35.234375 18.351562 35.316406 18.132812 35.410156 C 17.699219 35.589844 17.265625 35.789062 16.828125 36.003906 C 15.960938 36.433594 15.082031 36.929688 14.257812 37.542969 C 13.429688 38.148438 12.640625 38.871094 12.03125 39.769531 C 11.730469 40.21875 11.476562 40.714844 11.324219 41.253906 C 11.28125 41.386719 11.25 41.523438 11.226562 41.664062 C 11.199219 41.804688 11.183594 41.9375 11.171875 42.074219 C 11.164062 42.210938 11.144531 42.34375 11.140625 42.480469 L 11.144531 42.886719 C 11.1875 43.96875 11.539062 45.007812 12.050781 45.886719 Z M 24.722656 37.964844 C 24.101562 37.75 23.425781 37.617188 22.824219 37.570312 C 22.222656 37.523438 21.6875 37.574219 21.320312 37.65625 C 21.132812 37.691406 21 37.734375 20.917969 37.765625 C 20.835938 37.796875 20.800781 37.816406 20.800781 37.816406 C 20.800781 37.816406 20.753906 37.839844 20.703125 37.878906 C 20.652344 37.921875 20.597656 37.976562 20.546875 38.132812 C 20.523438 38.207031 20.5 38.324219 20.484375 38.445312 C 20.46875 38.5625 20.46875 38.65625 20.488281 38.722656 C 20.503906 38.839844 20.683594 39.039062 20.960938 39.21875 C 21.226562 39.394531 21.570312 39.570312 21.90625 39.753906 C 22.242188 39.933594 22.578125 40.109375 22.902344 40.273438 C 23.550781 40.59375 24.164062 40.847656 24.628906 40.996094 C 25.371094 41.234375 25.75 41.308594 25.980469 41.367188 C 27.269531 41.660156 28.113281 41.992188 28.980469 42.726562 C 29.117188 42.636719 29.265625 42.589844 29.410156 42.554688 C 29.566406 42.523438 29.730469 42.519531 29.890625 42.539062 C 29.925781 42.523438 29.964844 42.511719 30 42.496094 C 29.632812 42.015625 29.328125 41.617188 29.035156 41.230469 C 28.722656 40.828125 28.402344 40.429688 27.9375 39.957031 C 27.820312 39.839844 27.652344 39.671875 27.398438 39.460938 C 27.144531 39.25 26.820312 38.988281 26.386719 38.726562 C 25.933594 38.453125 25.351562 38.175781 24.722656 37.964844 Z M 30.339844 41.035156 C 30.15625 41.460938 30.027344 41.902344 30.03125 42.488281 C 30.398438 42.355469 30.761719 42.273438 31.132812 42.214844 C 31.40625 42.179688 31.683594 42.15625 32.003906 42.164062 C 32.238281 42.171875 32.480469 42.210938 32.738281 42.289062 C 33.347656 41.78125 33.90625 41.382812 34.753906 40.925781 C 34.992188 40.773438 35.257812 40.625 35.5625 40.472656 C 35.664062 40.421875 35.796875 40.355469 35.984375 40.269531 C 36.21875 40.140625 36.476562 39.980469 36.714844 39.769531 C 36.945312 39.570312 37.140625 39.289062 37.152344 39.015625 C 37.160156 38.882812 37.128906 38.753906 37.050781 38.628906 C 36.972656 38.5 36.855469 38.378906 36.71875 38.277344 C 36.445312 38.066406 36.128906 37.929688 35.902344 37.84375 C 35.671875 37.757812 35.523438 37.71875 35.523438 37.71875 C 35.523438 37.71875 35.347656 37.667969 35.058594 37.609375 C 34.769531 37.550781 34.359375 37.484375 33.917969 37.476562 C 33.484375 37.460938 33.015625 37.515625 32.730469 37.6875 C 32.582031 37.773438 32.457031 37.898438 32.332031 38.039062 C 32.207031 38.183594 32.082031 38.347656 31.976562 38.472656 C 31.480469 39.09375 31.273438 39.402344 31.144531 39.589844 C 30.777344 40.152344 30.53125 40.589844 30.339844 41.035156 Z M 37.25 40.746094 C 36.890625 40.882812 36.625 40.996094 36.421875 41.085938 C 36.316406 41.144531 36.222656 41.195312 36.132812 41.242188 C 35.824219 41.402344 35.59375 41.519531 35.4375 41.601562 C 34.570312 42.042969 33.925781 42.289062 33.222656 42.488281 C 33.398438 42.582031 33.628906 42.714844 33.875 43.027344 C 33.890625 43.050781 33.910156 43.078125 33.925781 43.105469 C 34.792969 42.910156 35.53125 42.792969 36.664062 42.738281 C 37.011719 42.71875 37.679688 42.6875 38.75 42.601562 C 39.359375 42.550781 40.089844 42.480469 40.839844 42.390625 C 41.59375 42.296875 42.363281 42.210938 42.964844 42.007812 C 43.265625 41.90625 43.511719 41.78125 43.679688 41.632812 C 43.847656 41.484375 43.925781 41.332031 43.945312 41.230469 C 43.980469 41.039062 43.839844 40.886719 43.847656 40.886719 C 43.847656 40.886719 43.816406 40.839844 43.742188 40.761719 C 43.667969 40.679688 43.539062 40.566406 43.34375 40.453125 C 42.960938 40.21875 42.328125 40.023438 41.574219 39.988281 C 40.828125 39.949219 39.976562 40.039062 39.214844 40.183594 C 38.449219 40.332031 37.757812 40.554688 37.25 40.746094 Z M 41.734375 44.222656 C 40.710938 44.046875 39.746094 43.953125 39.023438 43.898438 C 38.226562 43.835938 37.835938 43.824219 37.597656 43.8125 C 36.988281 43.78125 36.488281 43.738281 36.023438 43.667969 C 35.285156 43.65625 34.703125 43.578125 34.074219 43.445312 C 34.113281 43.605469 34.117188 43.789062 34.074219 43.964844 C 33.984375 44.339844 33.703125 44.636719 33.371094 44.804688 C 33.277344 44.859375 33.160156 44.902344 33.039062 44.933594 C 33.113281 44.972656 33.183594 45.027344 33.226562 45.097656 C 33.394531 45.339844 33.542969 45.570312 33.683594 45.808594 C 33.855469 45.96875 34.03125 46.113281 34.210938 46.265625 C 34.601562 46.59375 35.011719 46.9375 35.535156 47.394531 C 35.664062 47.503906 35.855469 47.667969 36.117188 47.882812 C 36.382812 48.101562 36.730469 48.386719 37.140625 48.738281 C 37.640625 49.160156 38.214844 49.664062 38.855469 50.070312 C 39.488281 50.480469 40.210938 50.761719 40.902344 50.925781 C 41.074219 50.960938 41.246094 50.996094 41.410156 51.03125 C 41.574219 51.054688 41.734375 51.082031 41.886719 51.105469 C 42.179688 51.144531 42.433594 51.148438 42.640625 51.132812 C 42.847656 51.121094 42.996094 51.085938 43.082031 51.054688 C 43.125 51.042969 43.152344 51.03125 43.167969 51.019531 C 43.1875 51.011719 43.195312 51.007812 43.195312 51.007812 C 43.191406 51.007812 43.242188 50.980469 43.265625 50.957031 C 43.277344 50.945312 43.277344 50.9375 43.277344 50.9375 C 43.277344 50.9375 43.277344 50.90625 43.246094 50.835938 C 43.105469 50.527344 42.453125 49.992188 41.820312 49.492188 C 40.511719 48.476562 38.800781 47.472656 37.785156 46.867188 C 37.089844 46.453125 36.761719 46.273438 36.554688 46.160156 C 35.949219 45.832031 35.484375 45.582031 35.03125 45.351562 C 34.582031 45.121094 34.140625 44.902344 33.558594 44.71875 C 34.15625 44.609375 34.699219 44.609375 35.246094 44.710938 C 35.792969 44.808594 36.347656 45.007812 36.992188 45.347656 C 37.042969 45.375 37.101562 45.40625 37.167969 45.445312 C 37.46875 45.53125 37.785156 45.628906 38.144531 45.746094 C 38.472656 45.851562 39.09375 46.050781 40.128906 46.28125 C 40.898438 46.453125 41.835938 46.605469 42.8125 46.71875 C 43.789062 46.828125 44.808594 46.90625 45.726562 46.964844 C 46.191406 47 46.605469 47.023438 46.957031 46.992188 C 47.132812 46.980469 47.289062 46.953125 47.421875 46.914062 C 47.546875 46.878906 47.65625 46.832031 47.730469 46.777344 C 47.8125 46.726562 47.859375 46.675781 47.875 46.644531 C 47.890625 46.617188 47.886719 46.613281 47.886719 46.609375 C 47.890625 46.601562 47.871094 46.558594 47.875 46.5625 C 47.871094 46.5625 47.867188 46.53125 47.773438 46.433594 C 47.679688 46.335938 47.488281 46.191406 47.207031 46.03125 C 46.625 45.703125 45.789062 45.304688 44.816406 44.980469 C 43.851562 44.65625 42.761719 44.394531 41.734375 44.222656 Z M 33.589844 48.578125 C 33.570312 48.265625 33.527344 48.03125 33.5 47.871094 C 33.402344 47.34375 33.289062 46.90625 33.199219 46.484375 C 33.105469 46.066406 33.019531 45.660156 32.949219 45.230469 C 32.945312 45.160156 32.90625 45.09375 32.835938 45.019531 L 32.796875 44.988281 C 32.773438 44.992188 32.746094 44.996094 32.722656 45 C 32.519531 45.027344 32.359375 45.019531 32.359375 45.019531 C 32.359375 45.019531 32.171875 45.027344 31.949219 44.996094 C 31.726562 44.964844 31.476562 44.898438 31.328125 44.84375 C 31.214844 44.804688 31.113281 44.757812 31.015625 44.714844 C 30.921875 44.667969 30.828125 44.613281 30.769531 44.578125 C 30.644531 44.507812 30.59375 44.492188 30.578125 44.492188 C 30.574219 44.492188 30.566406 44.488281 30.5 44.511719 C 30.476562 44.519531 30.449219 44.53125 30.421875 44.542969 C 30.324219 45.101562 30.152344 45.601562 29.84375 46.105469 C 29.835938 46.46875 29.847656 46.859375 29.894531 47.328125 C 29.917969 47.550781 29.949219 47.917969 30.132812 48.675781 C 30.195312 48.917969 30.285156 49.246094 30.402344 49.597656 C 30.507812 49.953125 30.652344 50.261719 30.839844 50.515625 C 31.019531 50.765625 31.234375 50.925781 31.402344 51.007812 C 31.566406 51.09375 31.683594 51.113281 31.683594 51.113281 C 31.683594 51.113281 31.78125 51.140625 31.941406 51.152344 C 32.097656 51.164062 32.316406 51.144531 32.539062 51.039062 C 32.757812 50.9375 32.984375 50.746094 33.132812 50.515625 C 33.285156 50.257812 33.417969 49.984375 33.476562 49.742188 C 33.601562 49.289062 33.605469 48.890625 33.589844 48.578125 Z M 29.140625 45.6875 C 29.160156 45.632812 29.175781 45.574219 29.195312 45.519531 C 29.320312 45.191406 29.484375 44.890625 29.699219 44.609375 C 29.640625 44.601562 29.585938 44.589844 29.535156 44.578125 C 29.328125 44.519531 29.148438 44.429688 28.984375 44.308594 C 28.964844 44.292969 28.945312 44.273438 28.925781 44.257812 C 28.242188 44.671875 27.609375 45.003906 26.644531 45.402344 C 26.425781 45.492188 26.066406 45.640625 25.335938 45.964844 C 24.855469 46.179688 24.21875 46.476562 23.542969 46.820312 C 22.867188 47.164062 22.160156 47.539062 21.617188 47.976562 C 21.34375 48.191406 21.121094 48.421875 20.957031 48.648438 C 20.78125 48.882812 20.746094 49.054688 20.761719 49.109375 C 20.761719 49.152344 20.832031 49.21875 20.898438 49.261719 C 20.96875 49.304688 21.019531 49.320312 21.019531 49.320312 C 21.019531 49.320312 21.058594 49.339844 21.144531 49.363281 C 21.226562 49.382812 21.363281 49.410156 21.546875 49.414062 C 21.726562 49.421875 21.957031 49.410156 22.214844 49.371094 C 22.472656 49.324219 22.78125 49.257812 23.097656 49.191406 C 23.726562 49.039062 24.414062 48.828125 25.0625 48.570312 C 25.699219 48.304688 26.300781 48.003906 26.773438 47.710938 C 27.664062 47.171875 28.113281 46.710938 28.359375 46.492188 C 28.667969 46.203125 28.914062 45.9375 29.140625 45.6875 Z M 29.984375 44.710938 C 30.003906 44.683594 30.023438 44.65625 30.046875 44.628906 C 30.03125 44.628906 30.015625 44.628906 30 44.628906 C 29.996094 44.65625 29.988281 44.683594 29.984375 44.710938 Z M 29.246094 43.363281 C 29.246094 43.425781 29.269531 43.449219 29.300781 43.488281 C 29.324219 43.511719 29.382812 43.558594 29.464844 43.601562 C 29.621094 43.691406 29.886719 43.746094 30.027344 43.703125 C 30.046875 43.699219 30.085938 43.683594 30.183594 43.644531 C 30.273438 43.613281 30.457031 43.550781 30.679688 43.574219 C 30.898438 43.597656 31.089844 43.695312 31.230469 43.777344 C 31.308594 43.820312 31.359375 43.851562 31.421875 43.882812 C 31.484375 43.914062 31.554688 43.945312 31.636719 43.96875 C 31.738281 44.007812 31.921875 44.054688 32.078125 44.078125 C 32.238281 44.101562 32.363281 44.101562 32.363281 44.101562 C 32.363281 44.101562 32.472656 44.101562 32.601562 44.085938 C 32.730469 44.066406 32.867188 44.023438 32.945312 43.984375 C 33.09375 43.90625 33.164062 43.800781 33.175781 43.746094 C 33.1875 43.6875 33.175781 43.648438 33.125 43.570312 C 33.011719 43.417969 32.816406 43.308594 32.695312 43.253906 C 32.429688 43.132812 32.164062 43.058594 31.917969 43.011719 C 31.65625 42.964844 31.390625 42.929688 31.136719 42.890625 C 30.742188 42.839844 30.367188 42.761719 29.9375 42.722656 C 29.792969 42.773438 29.664062 42.839844 29.558594 42.917969 C 29.367188 43.050781 29.242188 43.242188 29.246094 43.363281 Z M 28.570312 43.738281 C 28.511719 43.539062 28.523438 43.3125 28.605469 43.144531 C 28.683594 42.988281 28.78125 42.875 28.894531 42.785156 C 27.824219 42.554688 27.085938 42.554688 25.769531 42.261719 C 25.675781 42.238281 25.554688 42.210938 25.390625 42.171875 C 24.550781 42.070312 23.84375 42.003906 22.78125 41.851562 C 22.554688 41.828125 22.179688 41.769531 21.394531 41.75 C 20.929688 41.742188 20.304688 41.75 19.640625 41.835938 C 18.980469 41.917969 18.269531 42.082031 17.667969 42.296875 C 17.527344 42.351562 17.402344 42.410156 17.324219 42.46875 C 17.285156 42.492188 17.261719 42.519531 17.25 42.53125 C 17.246094 42.539062 17.246094 42.539062 17.246094 42.539062 C 17.246094 42.550781 17.257812 42.585938 17.285156 42.625 C 17.320312 42.683594 17.375 42.746094 17.4375 42.796875 C 17.558594 42.898438 17.699219 42.972656 17.796875 43.019531 C 17.894531 43.066406 17.953125 43.089844 17.953125 43.089844 C 17.953125 43.089844 18.144531 43.175781 18.5 43.273438 C 18.859375 43.375 19.367188 43.488281 19.949219 43.566406 C 21.113281 43.734375 22.59375 43.753906 23.644531 43.765625 C 24.71875 43.773438 25.375 43.75 25.722656 43.730469 C 26.894531 43.671875 27.636719 43.707031 28.570312 43.738281 Z M 17.246094 42.539062 C 17.246094 42.535156 17.246094 42.535156 17.246094 42.539062 Z M 22.890625 36.652344 C 23.582031 36.699219 24.328125 36.847656 25.019531 37.085938 C 25.714844 37.320312 26.359375 37.625 26.867188 37.933594 C 27.359375 38.230469 27.722656 38.523438 27.996094 38.753906 C 28.277344 38.988281 28.46875 39.179688 28.597656 39.3125 C 29.121094 39.859375 29.429688 40.386719 29.625 40.902344 C 29.640625 40.941406 29.65625 40.984375 29.667969 41.027344 C 29.671875 40.972656 29.675781 40.921875 29.683594 40.871094 C 29.75 40.296875 29.96875 39.710938 30.375 39.089844 C 30.511719 38.878906 30.738281 38.535156 31.253906 37.890625 C 31.363281 37.757812 31.476562 37.613281 31.628906 37.433594 C 31.78125 37.257812 31.988281 37.046875 32.261719 36.886719 C 32.820312 36.570312 33.429688 36.542969 33.941406 36.550781 C 34.457031 36.566406 34.910156 36.636719 35.242188 36.703125 C 35.574219 36.773438 35.777344 36.832031 35.777344 36.832031 C 35.777344 36.832031 35.949219 36.878906 36.222656 36.980469 C 36.5 37.082031 36.882812 37.242188 37.285156 37.542969 C 37.484375 37.695312 37.6875 37.890625 37.84375 38.152344 C 38.003906 38.410156 38.101562 38.746094 38.078125 39.066406 C 38.070312 39.230469 38.035156 39.382812 37.988281 39.523438 C 38.3125 39.429688 38.664062 39.34375 39.035156 39.273438 C 39.867188 39.117188 40.765625 39.019531 41.625 39.0625 C 42.054688 39.085938 42.472656 39.148438 42.84375 39.253906 C 43.21875 39.355469 43.550781 39.503906 43.816406 39.660156 C 44.082031 39.816406 44.28125 39.988281 44.414062 40.125 C 44.542969 40.265625 44.601562 40.359375 44.601562 40.359375 C 44.601562 40.359375 44.660156 40.429688 44.742188 40.59375 C 44.816406 40.753906 44.914062 41.042969 44.855469 41.394531 C 44.792969 41.742188 44.574219 42.078125 44.285156 42.328125 C 43.996094 42.582031 43.628906 42.757812 43.261719 42.882812 C 42.6875 43.074219 42.082031 43.167969 41.492188 43.246094 C 41.625 43.261719 41.757812 43.285156 41.890625 43.308594 C 42.957031 43.488281 44.09375 43.757812 45.113281 44.105469 C 46.136719 44.445312 47.035156 44.875 47.664062 45.230469 C 47.984375 45.414062 48.253906 45.605469 48.433594 45.789062 C 48.523438 45.882812 48.589844 45.972656 48.632812 46.035156 C 48.675781 46.101562 48.695312 46.144531 48.695312 46.144531 C 48.683594 46.148438 48.789062 46.257812 48.808594 46.585938 C 48.816406 46.746094 48.769531 46.945312 48.667969 47.121094 C 48.5625 47.292969 48.414062 47.433594 48.246094 47.546875 C 47.53125 48.011719 46.582031 47.949219 45.667969 47.886719 C 44.738281 47.828125 43.707031 47.753906 42.707031 47.636719 C 41.808594 47.535156 40.9375 47.398438 40.1875 47.246094 C 40.921875 47.707031 41.699219 48.230469 42.386719 48.761719 C 42.730469 49.03125 43.054688 49.292969 43.335938 49.550781 C 43.625 49.808594 43.898438 50.078125 44.078125 50.441406 C 44.167969 50.621094 44.226562 50.847656 44.191406 51.070312 C 44.160156 51.292969 44.050781 51.460938 43.957031 51.5625 C 43.761719 51.769531 43.640625 51.804688 43.644531 51.8125 C 43.644531 51.8125 43.621094 51.824219 43.574219 51.847656 C 43.527344 51.871094 43.464844 51.898438 43.378906 51.925781 C 43.210938 51.984375 42.980469 52.035156 42.707031 52.054688 C 42.433594 52.074219 42.113281 52.066406 41.765625 52.019531 C 41.601562 51.996094 41.429688 51.96875 41.246094 51.941406 C 41.066406 51.902344 40.878906 51.871094 40.6875 51.824219 C 39.921875 51.648438 39.074219 51.320312 38.355469 50.851562 C 37.632812 50.390625 37.035156 49.863281 36.539062 49.445312 C 36.128906 49.089844 35.800781 48.820312 35.53125 48.597656 C 35.257812 48.375 35.058594 48.203125 34.925781 48.085938 C 34.722656 47.902344 34.539062 47.726562 34.375 47.550781 C 34.386719 47.601562 34.398438 47.648438 34.40625 47.699219 C 34.441406 47.882812 34.492188 48.152344 34.511719 48.527344 C 34.53125 48.902344 34.535156 49.398438 34.371094 49.988281 C 34.289062 50.3125 34.125 50.667969 33.910156 51.023438 C 33.667969 51.390625 33.316406 51.703125 32.929688 51.878906 C 32.542969 52.058594 32.148438 52.089844 31.882812 52.070312 C 31.617188 52.050781 31.460938 52.003906 31.460938 52.003906 C 31.460938 52.003906 31.269531 51.972656 30.984375 51.832031 C 30.703125 51.695312 30.355469 51.425781 30.09375 51.066406 C 29.828125 50.714844 29.632812 50.261719 29.519531 49.886719 C 29.394531 49.515625 29.300781 49.164062 29.234375 48.898438 C 29.035156 48.078125 29 47.664062 28.976562 47.410156 C 28.96875 47.335938 28.964844 47.261719 28.960938 47.191406 C 28.683594 47.449219 28.183594 47.9375 27.261719 48.5 C 26.746094 48.816406 26.097656 49.144531 25.40625 49.429688 C 24.714844 49.707031 23.980469 49.929688 23.308594 50.089844 C 22.96875 50.160156 22.660156 50.230469 22.355469 50.28125 C 22.042969 50.328125 21.757812 50.34375 21.511719 50.335938 C 21.019531 50.324219 20.683594 50.179688 20.683594 50.179688 C 20.683594 50.179688 20.585938 50.148438 20.410156 50.042969 C 20.324219 49.988281 20.222656 49.917969 20.113281 49.796875 C 20.007812 49.679688 19.894531 49.496094 19.855469 49.277344 C 19.769531 48.824219 19.988281 48.402344 20.203125 48.113281 C 20.425781 47.800781 20.714844 47.511719 21.035156 47.253906 C 21.679688 46.742188 22.4375 46.34375 23.125 45.996094 C 23.816406 45.644531 24.464844 45.339844 24.953125 45.121094 C 25.53125 44.867188 25.878906 44.71875 26.109375 44.625 C 26 44.636719 25.886719 44.644531 25.769531 44.652344 C 25.414062 44.671875 24.730469 44.703125 23.636719 44.695312 C 22.570312 44.679688 21.074219 44.660156 19.824219 44.484375 C 19.199219 44.398438 18.644531 44.273438 18.25 44.160156 C 17.851562 44.050781 17.605469 43.941406 17.605469 43.941406 C 17.605469 43.941406 17.53125 43.914062 17.398438 43.851562 C 17.261719 43.78125 17.070312 43.691406 16.839844 43.5 C 16.722656 43.402344 16.605469 43.28125 16.496094 43.113281 C 16.398438 42.945312 16.285156 42.707031 16.332031 42.390625 C 16.351562 42.246094 16.425781 42.089844 16.511719 41.976562 C 16.59375 41.867188 16.691406 41.78125 16.785156 41.714844 C 16.972656 41.582031 17.160156 41.5 17.339844 41.433594 C 18.039062 41.179688 18.800781 41.007812 19.523438 40.917969 C 20.246094 40.824219 20.917969 40.816406 21.414062 40.824219 C 21.640625 40.832031 21.828125 40.839844 21.996094 40.851562 C 21.820312 40.757812 21.640625 40.664062 21.464844 40.570312 C 21.128906 40.382812 20.789062 40.214844 20.445312 39.984375 C 20.273438 39.875 20.105469 39.742188 19.949219 39.578125 C 19.796875 39.417969 19.648438 39.199219 19.589844 38.949219 C 19.527344 38.707031 19.546875 38.488281 19.566406 38.324219 C 19.589844 38.164062 19.617188 38.019531 19.664062 37.863281 C 19.75 37.550781 19.960938 37.28125 20.125 37.164062 C 20.289062 37.035156 20.378906 36.996094 20.378906 36.996094 C 20.378906 36.996094 20.691406 36.832031 21.132812 36.753906 C 21.578125 36.65625 22.203125 36.597656 22.890625 36.652344 Z M 55.292969 52.257812 C 54.375 53.3125 53.261719 54.128906 52.109375 54.78125 C 50.75 55.539062 49.324219 56.089844 47.898438 56.476562 C 46.480469 56.832031 45.089844 57.152344 43.722656 57.347656 C 40.992188 57.773438 38.386719 57.882812 36.011719 57.8125 C 31.246094 57.671875 27.386719 56.882812 24.753906 56.214844 C 23.433594 55.882812 22.417969 55.570312 21.726562 55.363281 C 21.035156 55.148438 20.671875 55.023438 20.671875 55.023438 C 20.671875 55.023438 20.609375 55.003906 20.457031 54.949219 C 20.304688 54.902344 20.070312 54.816406 19.726562 54.695312 C 19.042969 54.441406 17.921875 54.042969 16.277344 53.226562 C 15.457031 52.8125 14.503906 52.292969 13.464844 51.5625 C 12.421875 50.835938 11.285156 49.890625 10.199219 48.617188 C 9.28125 47.527344 8.378906 46.183594 7.761719 44.53125 C 7.742188 45.347656 7.785156 46.199219 7.898438 47.078125 C 8.105469 48.625 8.628906 50.96875 10.082031 53.53125 C 11.519531 56.089844 13.925781 58.816406 17.246094 60.96875 C 18.070312 61.511719 18.960938 61.980469 19.894531 62.523438 C 20.808594 63.070312 21.773438 63.683594 22.539062 64.617188 C 22.914062 65.078125 23.222656 65.628906 23.394531 66.230469 C 23.570312 66.839844 23.574219 67.417969 23.714844 67.878906 C 23.839844 68.332031 24.113281 68.683594 24.523438 68.929688 C 24.929688 69.175781 25.445312 69.308594 25.980469 69.375 C 26.519531 69.4375 27.066406 69.433594 27.652344 69.398438 C 28.234375 69.375 28.816406 69.335938 29.402344 69.292969 C 30.570312 69.195312 31.746094 69.0625 32.925781 68.882812 C 34.101562 68.695312 35.273438 68.464844 36.441406 68.1875 C 37.605469 67.902344 38.761719 67.5625 39.898438 67.171875 C 42.167969 66.378906 44.359375 65.351562 46.34375 64.035156 C 47.34375 63.390625 48.277344 62.65625 49.148438 61.875 C 50.027344 61.097656 50.820312 60.238281 51.542969 59.339844 C 52.273438 58.449219 52.894531 57.484375 53.457031 56.503906 C 53.589844 56.257812 53.722656 56.007812 53.855469 55.761719 C 53.988281 55.515625 54.097656 55.257812 54.21875 55.007812 L 54.398438 54.628906 C 54.421875 54.570312 54.464844 54.488281 54.476562 54.453125 L 54.480469 54.4375 L 54.507812 54.375 C 54.570312 54.214844 54.632812 54.058594 54.695312 53.910156 C 54.945312 53.316406 55.105469 52.808594 55.199219 52.527344 C 55.230469 52.433594 55.261719 52.34375 55.292969 52.257812 Z M 8.128906 41.734375 C 8.105469 41.835938 8.09375 41.933594 8.082031 42.027344 C 8.136719 42.03125 8.117188 42.03125 8.082031 42.03125 C 8.078125 42.050781 8.074219 42.070312 8.074219 42.09375 C 8.144531 42.542969 8.234375 42.984375 8.363281 43.402344 C 8.910156 45.300781 9.894531 46.820312 10.90625 48.023438 C 11.929688 49.222656 13 50.113281 13.992188 50.804688 C 14.984375 51.503906 15.902344 52.003906 16.691406 52.402344 C 18.28125 53.191406 19.375 53.582031 20.042969 53.828125 C 20.378906 53.953125 20.609375 54.03125 20.757812 54.078125 C 20.902344 54.128906 20.964844 54.152344 20.964844 54.152344 C 20.964844 54.152344 21.324219 54.273438 22 54.484375 C 22.683594 54.691406 23.683594 54.996094 24.980469 55.320312 C 27.570312 55.976562 31.367188 56.753906 36.035156 56.890625 C 38.367188 56.957031 40.914062 56.851562 43.582031 56.433594 C 44.921875 56.246094 46.277344 55.933594 47.65625 55.585938 C 49.015625 55.214844 50.375 54.691406 51.652344 53.976562 C 52.925781 53.257812 54.125 52.332031 55.007812 51.148438 C 55.886719 49.96875 56.359375 48.484375 56.164062 46.992188 C 55.984375 45.503906 55.269531 44.054688 54.324219 42.792969 C 53.367188 41.519531 52.15625 40.417969 50.851562 39.421875 C 48.230469 37.425781 45.246094 35.855469 42.136719 34.664062 C 39.007812 33.503906 35.734375 32.75 32.464844 32.402344 C 29.195312 32.082031 25.933594 32.121094 22.816406 32.566406 C 19.699219 33.003906 16.703125 33.78125 14.140625 35.121094 C 12.859375 35.789062 11.707031 36.609375 10.726562 37.554688 C 10.230469 38.019531 9.796875 38.535156 9.402344 39.058594 C 9.3125 39.1875 9.21875 39.324219 9.125 39.457031 C 9.035156 39.589844 8.960938 39.730469 8.875 39.867188 L 8.753906 40.070312 L 8.652344 40.285156 L 8.550781 40.496094 C 8.453125 40.667969 8.40625 40.84375 8.34375 40.996094 C 8.316406 41.074219 8.289062 41.148438 8.261719 41.21875 C 8.246094 41.289062 8.226562 41.355469 8.210938 41.417969 C 8.179688 41.542969 8.152344 41.648438 8.128906 41.734375 Z M 56.5 50.441406 C 56.496094 50.640625 56.488281 50.839844 56.46875 51.039062 C 56.433594 51.304688 56.390625 51.578125 56.332031 51.867188 C 56.300781 52.015625 56.273438 52.167969 56.230469 52.324219 C 56.183594 52.480469 56.128906 52.644531 56.078125 52.8125 C 55.976562 53.105469 55.816406 53.632812 55.554688 54.253906 C 55.492188 54.410156 55.425781 54.574219 55.363281 54.738281 L 55.335938 54.804688 L 55.328125 54.820312 C 55.316406 54.855469 55.273438 54.941406 55.246094 55.003906 L 55.0625 55.394531 C 54.9375 55.65625 54.824219 55.925781 54.683594 56.183594 C 54.546875 56.441406 54.40625 56.699219 54.265625 56.957031 C 53.679688 57.980469 53.03125 58.988281 52.269531 59.917969 C 51.515625 60.859375 50.6875 61.75 49.769531 62.5625 C 48.863281 63.378906 47.890625 64.140625 46.859375 64.808594 C 44.800781 66.171875 42.535156 67.230469 40.207031 68.046875 C 39.039062 68.449219 37.855469 68.800781 36.660156 69.089844 C 35.46875 69.375 34.265625 69.609375 33.066406 69.796875 C 31.867188 69.980469 30.667969 70.117188 29.476562 70.214844 C 28.878906 70.261719 28.285156 70.300781 27.695312 70.324219 C 27.105469 70.359375 26.480469 70.367188 25.867188 70.292969 C 25.253906 70.21875 24.621094 70.070312 24.042969 69.722656 C 23.460938 69.390625 22.984375 68.777344 22.820312 68.136719 C 22.644531 67.507812 22.644531 66.941406 22.5 66.484375 C 22.367188 66.011719 22.128906 65.582031 21.816406 65.199219 C 21.183594 64.425781 20.308594 63.847656 19.421875 63.320312 C 18.535156 62.800781 17.597656 62.3125 16.742188 61.746094 C 13.296875 59.515625 10.785156 56.671875 9.273438 53.988281 C 7.75 51.292969 7.199219 48.828125 6.980469 47.195312 C 6.816406 45.910156 6.792969 44.667969 6.894531 43.496094 C 6.917969 43.203125 6.960938 42.914062 6.992188 42.628906 C 7.015625 42.488281 7.039062 42.347656 7.0625 42.210938 L 7.097656 42 L 7.117188 41.898438 L 7.121094 41.871094 L 7.121094 41.859375 L 7.179688 41.859375 L 7.179688 41.855469 C 7.105469 41.851562 6.90625 41.84375 7.179688 41.851562 C 7.191406 41.75 7.203125 41.652344 7.226562 41.554688 C 7.25 41.453125 7.28125 41.328125 7.316406 41.179688 C 7.335938 41.105469 7.355469 41.027344 7.378906 40.941406 C 7.40625 40.863281 7.4375 40.777344 7.472656 40.6875 C 7.542969 40.511719 7.601562 40.308594 7.703125 40.109375 L 7.820312 39.875 L 7.9375 39.632812 L 8.070312 39.40625 C 8.164062 39.253906 8.246094 39.097656 8.347656 38.949219 C 8.449219 38.800781 8.550781 38.65625 8.652344 38.511719 C 9.082031 37.941406 9.550781 37.390625 10.082031 36.890625 C 11.128906 35.878906 12.359375 35 13.707031 34.300781 C 16.410156 32.890625 19.5 32.097656 22.683594 31.648438 C 25.878906 31.191406 29.21875 31.148438 32.5625 31.480469 C 35.90625 31.835938 39.257812 32.609375 42.460938 33.796875 C 45.652344 35.019531 48.714844 36.628906 51.414062 38.6875 C 52.761719 39.71875 54.035156 40.871094 55.066406 42.234375 C 55.582031 42.910156 56.019531 43.652344 56.375 44.425781 C 56.726562 45.199219 56.984375 46.03125 57.082031 46.890625 C 57.246094 48.109375 57.007812 49.351562 56.5 50.441406 Z M 42.769531 7.757812 C 42.375 8.074219 41.960938 8.394531 41.410156 8.800781 C 41.21875 8.941406 40.917969 9.164062 40.246094 9.605469 C 39.441406 10.132812 38.082031 11.019531 36.914062 11.746094 C 35.746094 12.476562 34.761719 13.042969 34.761719 13.042969 C 34.761719 13.042969 33.945312 13.527344 32.875 14.089844 C 31.804688 14.664062 30.476562 15.292969 29.511719 15.699219 C 28.527344 16.109375 27.902344 16.324219 27.578125 16.445312 C 26.257812 16.898438 25.546875 17.25 24.457031 17.800781 C 25.671875 17.824219 26.515625 17.769531 27.882812 17.316406 C 28.214844 17.195312 28.859375 16.972656 29.875 16.554688 C 30.863281 16.136719 32.222656 15.492188 33.308594 14.90625 C 34.398438 14.332031 35.226562 13.839844 35.226562 13.839844 C 35.226562 13.839844 36.226562 13.265625 37.402344 12.53125 C 38.585938 11.796875 39.949219 10.910156 40.757812 10.378906 C 41.441406 9.929688 41.765625 9.6875 41.960938 9.539062 C 42.542969 9.097656 42.957031 8.667969 43.269531 8.210938 C 43.582031 7.75 43.796875 7.25 43.925781 6.65625 C 43.53125 7.125 43.160156 7.4375 42.769531 7.757812 Z M 67.683594 38.300781 C 67.269531 40.058594 66.632812 41.804688 65.785156 43.390625 C 65.570312 43.785156 65.339844 44.167969 65.121094 44.550781 C 64.894531 44.929688 64.632812 45.28125 64.398438 45.640625 C 64.167969 46.003906 63.878906 46.320312 63.628906 46.652344 C 63.496094 46.816406 63.375 46.980469 63.242188 47.136719 C 63.113281 47.277344 62.984375 47.417969 62.855469 47.554688 C 62.230469 48.28125 61.628906 48.789062 61.351562 49.0625 C 61.09375 49.320312 60.820312 49.496094 60.582031 49.675781 C 60.335938 49.847656 60.105469 50 59.875 50.136719 C 59.394531 50.386719 58.917969 50.582031 58.351562 50.800781 C 58.753906 50.339844 59.089844 49.964844 59.464844 49.601562 C 59.640625 49.40625 59.828125 49.214844 60.035156 49.015625 C 60.242188 48.8125 60.488281 48.628906 60.730469 48.378906 C 60.996094 48.113281 61.570312 47.628906 62.167969 46.933594 C 62.289062 46.800781 62.410156 46.667969 62.535156 46.535156 C 62.664062 46.386719 62.777344 46.226562 62.902344 46.070312 C 63.144531 45.753906 63.417969 45.453125 63.636719 45.105469 C 63.863281 44.761719 64.113281 44.429688 64.328125 44.0625 C 64.539062 43.699219 64.757812 43.335938 64.964844 42.957031 C 65.773438 41.445312 66.386719 39.773438 66.777344 38.089844 C 67.574219 34.71875 67.441406 31.347656 67.03125 28.949219 C 66.835938 27.742188 66.582031 26.765625 66.394531 26.09375 C 66.3125 25.753906 66.21875 25.496094 66.160156 25.320312 C 66.101562 25.144531 66.070312 25.046875 66.070312 25.046875 C 66.070312 25.046875 66.042969 24.953125 65.984375 24.777344 C 65.953125 24.6875 65.921875 24.578125 65.878906 24.449219 C 65.828125 24.324219 65.773438 24.179688 65.710938 24.015625 C 65.464844 23.359375 65.089844 22.425781 64.527344 21.339844 C 63.445312 19.152344 61.554688 16.363281 58.957031 14.058594 C 58.625 13.785156 58.300781 13.488281 57.957031 13.222656 L 56.90625 12.4375 C 56.1875 11.9375 55.394531 11.4375 54.742188 10.726562 C 54.582031 10.542969 54.429688 10.371094 54.296875 10.144531 C 54.152344 9.929688 54.046875 9.6875 53.964844 9.441406 C 53.8125 8.9375 53.832031 8.421875 53.898438 7.972656 C 54.042969 7.082031 54.324219 6.316406 54.210938 5.714844 C 54.1875 5.566406 54.132812 5.433594 54.074219 5.304688 L 53.957031 5.117188 C 53.9375 5.078125 53.925781 5.089844 53.914062 5.074219 C 53.894531 5.0625 53.902344 5.046875 53.867188 5.03125 C 53.777344 4.972656 53.644531 4.917969 53.5 4.875 C 53.425781 4.855469 53.351562 4.835938 53.277344 4.816406 C 53.210938 4.808594 53.148438 4.796875 53.085938 4.785156 C 52.902344 4.753906 52.71875 4.742188 52.554688 4.734375 C 52.222656 4.71875 51.949219 4.730469 51.769531 4.738281 C 51.101562 4.78125 50.578125 4.839844 50.074219 4.898438 C 49.695312 4.949219 49.328125 4.996094 48.925781 5.109375 C 49.003906 5.359375 49.042969 5.625 49.011719 5.898438 C 48.890625 5.609375 48.738281 5.394531 48.5625 5.222656 C 48.546875 5.226562 48.53125 5.230469 48.515625 5.238281 C 48.527344 5.226562 48.535156 5.214844 48.546875 5.207031 C 48.375 5.042969 48.191406 4.914062 48 4.800781 C 47.589844 4.566406 47.125 4.375 46.496094 4.199219 C 46.328125 4.152344 46.066406 4.085938 45.738281 4.039062 C 45.570312 4.019531 45.382812 4 45.179688 3.976562 C 44.980469 3.960938 44.78125 3.949219 44.574219 3.933594 C 44.34375 3.929688 44.109375 3.914062 43.875 3.921875 C 43.402344 3.925781 42.914062 3.960938 42.417969 4.015625 C 40.429688 4.246094 38.3125 4.933594 36.332031 6.027344 C 34.347656 7.113281 32.5 8.578125 30.84375 10.167969 C 30.015625 10.964844 29.242188 11.792969 28.472656 12.617188 C 27.703125 13.441406 26.917969 14.238281 26.0625 14.914062 C 25.210938 15.601562 24.28125 16.125 23.386719 16.519531 C 22.488281 16.914062 21.621094 17.199219 20.816406 17.429688 C 20.421875 17.546875 20.019531 17.640625 19.699219 17.738281 C 19.375 17.839844 19.09375 17.96875 18.90625 18.117188 C 18.546875 18.414062 18.582031 18.738281 18.765625 19 C 18.953125 19.269531 19.230469 19.402344 19.390625 19.457031 C 19.582031 19.515625 19.691406 19.523438 19.691406 19.523438 C 19.691406 19.523438 19.800781 19.546875 20.019531 19.554688 C 20.242188 19.5625 20.578125 19.542969 21.054688 19.507812 C 21.535156 19.476562 22.121094 19.453125 22.796875 19.460938 C 23.46875 19.476562 24.230469 19.511719 25.054688 19.585938 C 26.699219 19.722656 28.609375 20.007812 30.667969 20.007812 C 31.695312 20.007812 32.757812 19.917969 33.824219 19.695312 C 34.902344 19.46875 35.992188 19.171875 37.074219 18.792969 C 39.226562 18.039062 41.332031 16.964844 43.128906 15.597656 C 44.027344 14.914062 44.847656 14.164062 45.554688 13.351562 C 45.914062 12.949219 46.242188 12.527344 46.550781 12.109375 C 46.699219 11.894531 46.855469 11.6875 46.988281 11.46875 C 47.058594 11.363281 47.128906 11.257812 47.195312 11.148438 C 47.230469 11.097656 47.261719 11.042969 47.292969 10.988281 L 47.363281 10.871094 C 47.820312 10.09375 48.113281 9.417969 48.230469 9.074219 C 48.355469 8.761719 48.433594 8.472656 48.53125 8.214844 C 48.570312 8.082031 48.605469 7.953125 48.644531 7.832031 C 48.683594 7.707031 48.722656 7.585938 48.746094 7.464844 C 48.777344 7.34375 48.808594 7.222656 48.84375 7.101562 C 48.871094 6.980469 48.890625 6.855469 48.917969 6.726562 C 48.980469 6.472656 48.980469 6.207031 49.011719 5.898438 C 49.125 6.171875 49.257812 6.441406 49.308594 6.714844 C 49.335938 6.847656 49.371094 6.984375 49.390625 7.121094 C 49.402344 7.257812 49.414062 7.394531 49.421875 7.535156 C 49.433594 7.679688 49.425781 7.820312 49.410156 7.964844 C 49.398438 8.109375 49.386719 8.257812 49.363281 8.410156 C 49.296875 8.710938 49.230469 9.042969 49.09375 9.386719 C 48.96875 9.773438 48.652344 10.507812 48.164062 11.339844 L 48.089844 11.464844 C 48.058594 11.523438 48.023438 11.582031 47.984375 11.636719 C 47.914062 11.75 47.839844 11.863281 47.765625 11.976562 C 47.625 12.210938 47.457031 12.425781 47.300781 12.652344 C 46.976562 13.097656 46.628906 13.539062 46.25 13.960938 C 45.507812 14.820312 44.632812 15.621094 43.691406 16.335938 C 41.804688 17.773438 39.617188 18.886719 37.378906 19.664062 C 36.261719 20.058594 35.128906 20.371094 34.011719 20.601562 C 32.878906 20.835938 31.742188 20.929688 30.671875 20.933594 C 28.929688 20.929688 27.339844 20.738281 25.941406 20.597656 C 25.902344 20.632812 25.871094 20.667969 25.847656 20.707031 C 25.726562 20.882812 25.675781 21.101562 25.601562 21.351562 C 25.453125 21.855469 25.273438 22.367188 25.027344 23.015625 C 24.953125 23.234375 24.808594 23.59375 24.578125 24.351562 C 24.539062 24.480469 24.449219 24.78125 24.449219 24.78125 C 24.449219 24.78125 24.378906 25.035156 24.339844 25.179688 C 24.074219 26.203125 23.96875 26.851562 23.910156 27.191406 C 23.792969 27.871094 23.695312 28.40625 23.574219 28.914062 C 23.449219 29.425781 23.316406 29.910156 23.160156 30.496094 C 22.890625 29.3125 22.78125 28.464844 23 27.039062 C 23.058594 26.6875 23.164062 26.011719 23.441406 24.941406 C 23.484375 24.796875 23.558594 24.53125 23.558594 24.53125 C 23.558594 24.53125 23.648438 24.210938 23.691406 24.082031 C 23.933594 23.289062 24.082031 22.921875 24.164062 22.691406 C 24.425781 22.015625 24.691406 21.515625 24.988281 21.0625 C 25.101562 20.898438 25.230469 20.703125 25.410156 20.546875 C 25.261719 20.53125 25.117188 20.519531 24.972656 20.507812 C 24.160156 20.429688 23.425781 20.398438 22.78125 20.382812 C 22.136719 20.375 21.578125 20.394531 21.121094 20.425781 C 20.664062 20.460938 20.265625 20.488281 19.988281 20.472656 C 19.707031 20.464844 19.554688 20.433594 19.554688 20.433594 C 19.554688 20.433594 19.515625 20.425781 19.441406 20.414062 C 19.367188 20.402344 19.253906 20.378906 19.109375 20.332031 C 18.808594 20.230469 18.375 20.035156 18.011719 19.527344 C 17.835938 19.28125 17.679688 18.921875 17.710938 18.496094 C 17.742188 18.082031 17.992188 17.65625 18.328125 17.398438 C 18.660156 17.136719 19.039062 16.984375 19.421875 16.859375 C 19.8125 16.738281 20.171875 16.65625 20.5625 16.542969 C 22.105469 16.09375 23.910156 15.457031 25.484375 14.191406 C 27.078125 12.941406 28.484375 11.125 30.203125 9.5 C 31.898438 7.871094 33.808594 6.351562 35.886719 5.214844 C 37.960938 4.066406 40.195312 3.339844 42.308594 3.09375 C 42.835938 3.035156 43.355469 3 43.863281 2.996094 C 44.117188 2.988281 44.367188 3.003906 44.617188 3.007812 C 44.835938 3.023438 45.054688 3.039062 45.269531 3.054688 C 45.484375 3.078125 45.6875 3.101562 45.871094 3.125 C 46.25 3.175781 46.550781 3.257812 46.75 3.3125 C 47.480469 3.523438 48.027344 3.847656 48.429688 4.28125 C 48.605469 4.464844 48.746094 4.675781 48.847656 4.910156 C 49.167969 4.628906 49.515625 4.417969 49.886719 4.25 C 50.398438 4.027344 50.96875 3.871094 51.714844 3.816406 C 51.914062 3.804688 52.21875 3.792969 52.601562 3.808594 C 52.792969 3.820312 53 3.832031 53.230469 3.871094 C 53.308594 3.882812 53.386719 3.898438 53.464844 3.910156 C 53.5625 3.933594 53.664062 3.960938 53.761719 3.988281 C 53.964844 4.046875 54.179688 4.125 54.398438 4.273438 C 54.503906 4.34375 54.636719 4.476562 54.710938 4.574219 C 54.773438 4.675781 54.832031 4.773438 54.894531 4.875 C 55 5.089844 55.089844 5.320312 55.125 5.554688 C 55.207031 6.035156 55.144531 6.496094 55.0625 6.914062 C 54.980469 7.335938 54.875 7.730469 54.820312 8.109375 C 54.761719 8.488281 54.753906 8.851562 54.855469 9.175781 C 54.914062 9.335938 54.976562 9.496094 55.078125 9.644531 C 55.160156 9.796875 55.300781 9.957031 55.429688 10.101562 C 55.96875 10.691406 56.695312 11.164062 57.4375 11.679688 C 57.804688 11.945312 58.167969 12.222656 58.53125 12.496094 C 58.890625 12.773438 59.226562 13.078125 59.574219 13.367188 C 62.277344 15.765625 64.230469 18.660156 65.351562 20.921875 C 65.933594 22.042969 66.320312 23.015625 66.574219 23.691406 C 66.636719 23.859375 66.695312 24.011719 66.746094 24.144531 C 66.789062 24.277344 66.828125 24.390625 66.855469 24.480469 C 66.917969 24.664062 66.949219 24.761719 66.949219 24.761719 C 66.949219 24.761719 66.980469 24.859375 67.039062 25.042969 C 67.097656 25.222656 67.195312 25.492188 67.28125 25.84375 C 67.476562 26.539062 67.742188 27.550781 67.941406 28.800781 C 68.371094 31.285156 68.511719 34.78125 67.683594 38.300781 "/>
</g>
</g>
</svg>
