<?xml version="1.0" encoding="UTF-8"?>
<svg xmlns="http://www.w3.org/2000/svg" xmlns:xlink="http://www.w3.org/1999/xlink" width="75pt" height="74.999997pt" viewBox="0 0 75 74.999997" version="1.2">
<defs>
<clipPath id="clip1">
  <path d="M 0.484375 6 L 74.734375 6 L 74.734375 68.992188 L 0.484375 68.992188 Z M 0.484375 6 "/>
</clipPath>
<clipPath id="clip2">
  <path d="M 9 9 L 67 9 L 67 67 L 9 67 Z M 9 9 "/>
</clipPath>
<clipPath id="clip3">
  <path d="M 17.890625 0 L 77.367188 22.949219 L 57.390625 74.726562 L -2.085938 51.78125 Z M 17.890625 0 "/>
</clipPath>
<clipPath id="clip4">
  <path d="M 17.890625 0 L 77.367188 22.949219 L 57.390625 74.726562 L -2.085938 51.78125 Z M 17.890625 0 "/>
</clipPath>
<clipPath id="clip5">
  <path d="M 15.578125 7.84375 L 73.050781 30.015625 L 55.992188 74.234375 L -1.484375 52.058594 Z M 15.578125 7.84375 "/>
</clipPath>
<clipPath id="clip6">
  <path d="M 15.578125 7.84375 L 73.050781 30.015625 L 56.011719 74.1875 L -1.464844 52.011719 Z M 15.578125 7.84375 "/>
</clipPath>
<clipPath id="clip7">
  <path d="M 8 1 L 69 1 L 69 66 L 8 66 Z M 8 1 "/>
</clipPath>
<clipPath id="clip8">
  <path d="M 17.890625 0 L 77.367188 22.949219 L 57.390625 74.726562 L -2.085938 51.78125 Z M 17.890625 0 "/>
</clipPath>
<clipPath id="clip9">
  <path d="M 17.890625 0 L 77.367188 22.949219 L 57.390625 74.726562 L -2.085938 51.78125 Z M 17.890625 0 "/>
</clipPath>
<clipPath id="clip10">
  <path d="M 17.886719 0.0117188 L 77.464844 22.996094 L 58.421875 72.355469 L -1.15625 49.371094 Z M 17.886719 0.0117188 "/>
</clipPath>
<clipPath id="clip11">
  <path d="M 17.886719 0.0117188 L 77.367188 22.957031 L 58.320312 72.316406 L -1.15625 49.371094 Z M 17.886719 0.0117188 "/>
</clipPath>
</defs>
<g id="surface1">
<g clip-path="url(#clip1)" clip-rule="nonzero">
<path style=" stroke:none;fill-rule:nonzero;fill:rgb(96.469116%,81.568909%,76.858521%);fill-opacity:1;" d="M 42.640625 6.097656 C 42.390625 6.097656 42.140625 6.097656 41.890625 6.097656 L 41.691406 6.097656 C 40.839844 6.148438 40.136719 6.199219 39.4375 6.296875 C 38.335938 6.449219 37.335938 6.546875 36.382812 6.648438 C 36.234375 6.648438 36.082031 6.699219 35.933594 6.699219 L 35.882812 6.699219 C 35.480469 6.746094 35.082031 6.796875 34.679688 6.847656 C 34.429688 6.898438 34.179688 6.898438 33.929688 6.945312 C 33.730469 6.996094 33.480469 6.996094 33.277344 7.046875 L 33.230469 7.046875 C 32.578125 7.144531 31.828125 7.195312 31.125 7.296875 C 30.625 7.347656 30.125 7.394531 29.574219 7.445312 L 29.375 7.445312 C 29.171875 7.445312 28.921875 7.496094 28.722656 7.496094 C 28.273438 7.546875 27.769531 7.59375 27.320312 7.644531 C 27.019531 7.695312 26.769531 7.695312 26.46875 7.746094 C 26.070312 7.796875 25.667969 7.84375 25.269531 7.84375 C 24.867188 7.894531 24.515625 7.894531 24.117188 7.945312 C 24.015625 7.945312 23.917969 7.945312 23.765625 7.996094 C 23.566406 7.996094 23.316406 8.042969 23.066406 8.042969 C 22.714844 8.09375 22.414062 8.144531 22.0625 8.195312 L 21.8125 8.246094 C 20.960938 8.34375 20.160156 8.542969 19.511719 8.695312 C 18.808594 8.84375 18.109375 9.042969 17.40625 9.242188 C 16.757812 9.441406 16.105469 9.691406 15.355469 10.042969 C 15.003906 10.191406 14.652344 10.339844 14.304688 10.492188 C 13.953125 10.640625 13.601562 10.839844 13.300781 11.039062 C 12.550781 11.539062 11.949219 11.988281 11.449219 12.4375 C 10.949219 12.886719 10.398438 13.433594 9.898438 14.035156 C 9.546875 14.433594 9.195312 14.882812 8.847656 15.332031 C 8.796875 15.332031 8.746094 15.332031 8.644531 15.332031 C 8.394531 15.382812 8.246094 15.628906 8.09375 15.832031 L 8.042969 15.878906 C 7.996094 15.929688 7.945312 16.03125 7.894531 16.078125 L 7.894531 16.128906 C 7.84375 16.179688 7.792969 16.28125 7.746094 16.328125 C 7.644531 16.480469 7.542969 16.628906 7.445312 16.777344 L 7.445312 16.828125 L 7.492188 16.878906 C 7.394531 17.027344 7.34375 17.128906 7.242188 17.277344 C 7.09375 17.527344 6.84375 17.875 6.59375 18.226562 L 6.441406 18.476562 C 6.292969 18.675781 6.191406 18.875 6.042969 19.074219 C 5.890625 19.324219 5.792969 19.523438 5.640625 19.773438 L 5.542969 19.972656 C 5.441406 20.121094 5.390625 20.273438 5.289062 20.421875 L 5.242188 20.523438 C 5.191406 20.621094 5.140625 20.769531 5.039062 20.871094 C 4.738281 21.46875 4.390625 22.167969 4.039062 22.867188 C 3.738281 23.464844 3.539062 24.113281 3.289062 24.863281 C 3.089844 25.414062 2.886719 25.960938 2.6875 26.460938 L 2.636719 26.511719 C 2.285156 27.210938 1.988281 27.808594 1.734375 28.40625 C 1.386719 29.15625 1.136719 29.855469 0.933594 30.503906 C 0.835938 30.851562 0.785156 31.203125 0.683594 31.601562 L 0.683594 31.75 C 0.632812 32.148438 0.585938 32.5 0.535156 32.898438 C 0.484375 33.597656 0.535156 34.394531 0.683594 35.34375 C 0.785156 36.042969 0.886719 36.742188 1.035156 37.492188 C 1.183594 38.140625 1.335938 38.789062 1.585938 39.535156 C 1.734375 40.136719 1.9375 40.683594 2.085938 41.285156 L 2.136719 41.53125 L 2.1875 41.78125 C 2.386719 42.53125 2.636719 43.230469 2.789062 43.929688 C 2.988281 44.675781 3.1875 45.476562 3.339844 46.175781 C 3.488281 46.921875 3.640625 47.570312 3.890625 48.269531 C 4.140625 49.117188 4.390625 49.816406 4.589844 50.464844 C 5.089844 51.8125 5.691406 53.210938 6.492188 54.660156 C 6.644531 54.957031 6.84375 55.257812 7.042969 55.507812 L 7.09375 55.605469 C 7.292969 55.855469 7.492188 56.105469 7.644531 56.355469 L 7.792969 56.554688 C 8.195312 57.105469 8.746094 57.703125 9.296875 58.253906 C 9.597656 58.550781 9.847656 58.800781 10.148438 59.050781 C 10.449219 59.300781 10.75 59.550781 11.148438 59.847656 C 11.398438 60.050781 11.699219 60.199219 11.949219 60.398438 L 12.050781 60.449219 C 12.402344 60.648438 12.75 60.847656 13.101562 61.046875 C 13.851562 61.496094 14.503906 61.894531 15.105469 62.246094 C 15.65625 62.59375 16.304688 62.992188 17.007812 63.34375 C 17.355469 63.492188 17.707031 63.691406 18.058594 63.84375 C 18.308594 63.941406 18.507812 64.042969 18.757812 64.140625 C 19.257812 64.390625 19.808594 64.640625 20.359375 64.890625 L 20.460938 64.941406 L 20.511719 64.988281 C 21.8125 65.589844 22.964844 66.085938 24.066406 66.535156 L 24.265625 66.636719 L 24.367188 66.6875 C 24.617188 66.785156 24.867188 66.886719 25.117188 66.984375 C 25.46875 67.136719 25.820312 67.234375 26.21875 67.386719 C 26.71875 67.585938 27.269531 67.734375 27.769531 67.882812 L 27.871094 67.933594 C 27.972656 67.984375 28.121094 67.984375 28.222656 68.035156 C 28.371094 68.085938 28.523438 68.132812 28.671875 68.183594 C 29.222656 68.332031 29.824219 68.535156 30.425781 68.632812 C 30.875 68.734375 31.277344 68.78125 31.726562 68.78125 C 32.128906 68.832031 32.476562 68.832031 32.828125 68.832031 C 33.277344 68.832031 33.78125 68.882812 34.28125 68.882812 C 34.328125 68.882812 34.429688 68.882812 34.480469 68.882812 C 34.878906 68.882812 35.28125 68.882812 35.683594 68.832031 C 36.03125 68.832031 36.484375 68.78125 36.984375 68.734375 C 37.585938 68.683594 38.085938 68.582031 38.585938 68.535156 C 38.9375 68.484375 39.285156 68.433594 39.636719 68.382812 L 39.738281 68.382812 C 40.1875 68.332031 40.636719 68.285156 41.089844 68.234375 C 41.339844 68.183594 41.589844 68.183594 41.839844 68.132812 L 41.992188 68.132812 C 42.492188 68.085938 42.992188 67.984375 43.441406 67.933594 C 43.941406 67.882812 44.492188 67.785156 44.996094 67.683594 C 45.246094 67.636719 45.496094 67.585938 45.746094 67.535156 C 46.144531 67.484375 46.546875 67.386719 46.945312 67.335938 C 48 67.1875 49.148438 66.984375 50.203125 66.785156 C 50.652344 66.6875 51.050781 66.636719 51.503906 66.488281 C 51.804688 66.4375 52.152344 66.335938 52.453125 66.289062 C 52.855469 66.1875 53.253906 66.136719 53.707031 66.039062 C 54.054688 65.988281 54.40625 65.9375 54.707031 65.839844 C 55.609375 65.636719 56.308594 65.488281 56.910156 65.289062 C 57.261719 65.191406 57.613281 65.089844 57.960938 64.941406 C 58.3125 64.789062 58.710938 64.691406 59.113281 64.492188 C 59.464844 64.339844 59.8125 64.191406 60.113281 63.941406 C 60.464844 63.691406 60.816406 63.441406 61.167969 63.191406 L 61.265625 63.09375 C 61.515625 62.894531 61.765625 62.695312 61.96875 62.496094 C 62.269531 62.195312 62.566406 61.894531 62.820312 61.644531 C 63.320312 61.148438 63.820312 60.546875 64.371094 59.800781 C 64.621094 59.5 64.871094 59.152344 65.121094 58.75 C 65.171875 58.652344 65.273438 58.550781 65.320312 58.402344 L 65.320312 58.351562 C 65.371094 58.300781 65.371094 58.253906 65.421875 58.203125 C 65.523438 58.050781 65.621094 57.902344 65.671875 57.753906 C 65.972656 57.253906 66.222656 56.753906 66.472656 56.257812 L 66.472656 56.207031 C 66.574219 56.007812 66.671875 55.808594 66.824219 55.605469 C 67.125 55.007812 67.425781 54.410156 67.726562 53.808594 L 67.875 53.5625 C 68.527344 52.214844 69.125 50.714844 69.578125 49.117188 C 69.675781 48.71875 69.777344 48.320312 69.878906 47.921875 L 69.878906 47.871094 C 69.976562 47.570312 70.027344 47.273438 70.128906 46.921875 C 70.226562 46.625 70.328125 46.273438 70.429688 45.976562 L 70.429688 45.925781 L 70.480469 45.824219 C 70.578125 45.574219 70.679688 45.324219 70.730469 45.027344 C 70.777344 44.925781 70.828125 44.828125 70.828125 44.726562 C 70.929688 44.378906 71.078125 44.078125 71.230469 43.730469 L 71.230469 43.679688 C 71.378906 43.328125 71.53125 42.929688 71.679688 42.582031 C 71.929688 41.882812 72.179688 41.132812 72.429688 40.386719 C 72.78125 39.1875 73.28125 37.640625 73.632812 35.992188 C 73.832031 35.246094 73.984375 34.546875 74.132812 33.796875 C 74.234375 33.097656 74.382812 32.351562 74.484375 31.550781 C 74.585938 30.652344 74.734375 29.703125 74.632812 28.804688 C 74.535156 27.910156 74.234375 27.058594 73.933594 26.359375 C 73.882812 26.261719 73.832031 26.113281 73.78125 25.960938 C 73.78125 25.910156 73.734375 25.863281 73.734375 25.8125 L 73.734375 25.761719 C 73.683594 25.664062 73.683594 25.5625 73.632812 25.460938 C 73.582031 25.3125 73.484375 25.164062 73.433594 25.011719 L 73.382812 24.914062 L 73.332031 24.8125 C 73.183594 24.464844 73.03125 24.164062 72.832031 23.867188 C 72.632812 23.515625 72.429688 23.21875 72.230469 22.96875 C 71.929688 22.617188 71.679688 22.269531 71.429688 22.019531 C 71.03125 21.621094 70.679688 21.171875 70.277344 20.769531 L 70.179688 20.621094 L 69.976562 20.371094 C 69.527344 19.824219 69.027344 19.273438 68.527344 18.773438 C 68.226562 18.476562 68.027344 18.226562 67.773438 18.027344 C 67.675781 17.925781 67.574219 17.828125 67.476562 17.726562 L 67.425781 17.675781 C 67.273438 17.527344 67.175781 17.425781 67.023438 17.277344 C 66.972656 17.226562 66.925781 17.179688 66.925781 17.179688 C 66.824219 17.078125 66.773438 17.027344 66.671875 16.929688 C 66.523438 16.828125 66.421875 16.679688 66.273438 16.578125 L 66.222656 16.527344 C 65.972656 16.328125 65.722656 16.128906 65.523438 15.980469 C 65.472656 15.929688 65.371094 15.878906 65.320312 15.832031 L 65.273438 15.78125 C 65.222656 15.730469 65.121094 15.679688 65.070312 15.628906 C 64.21875 14.980469 63.519531 14.433594 62.867188 13.984375 C 62.769531 13.882812 62.617188 13.785156 62.519531 13.734375 C 62.269531 13.585938 62.015625 13.386719 61.765625 13.183594 C 61.464844 12.984375 61.167969 12.785156 60.816406 12.488281 C 60.664062 12.386719 60.515625 12.238281 60.414062 12.136719 C 60.214844 11.988281 60.066406 11.835938 59.863281 11.6875 C 59.515625 11.4375 59.164062 11.238281 58.761719 11.039062 C 58.5625 10.941406 58.363281 10.839844 58.164062 10.738281 L 58.0625 10.691406 C 57.863281 10.589844 57.710938 10.492188 57.511719 10.441406 C 57.109375 10.242188 56.710938 10.042969 56.308594 9.890625 L 56.210938 9.839844 C 55.808594 9.691406 55.457031 9.542969 55.15625 9.390625 C 55.058594 9.34375 54.90625 9.292969 54.808594 9.242188 L 54.757812 9.242188 C 54.507812 9.144531 54.308594 9.042969 54.105469 8.992188 C 53.757812 8.894531 53.457031 8.792969 53.105469 8.644531 C 52.804688 8.542969 52.453125 8.445312 52.152344 8.34375 C 52.054688 8.292969 51.902344 8.246094 51.804688 8.246094 L 51.753906 8.246094 C 51.554688 8.195312 51.351562 8.144531 51.203125 8.042969 C 51.050781 7.996094 50.902344 7.945312 50.753906 7.894531 C 50.601562 7.84375 50.402344 7.796875 50.25 7.695312 C 49.652344 7.496094 48.949219 7.246094 48.25 7.046875 L 48.148438 7.046875 C 47.398438 6.847656 46.746094 6.648438 46.046875 6.496094 C 45.292969 6.296875 44.492188 6.199219 43.691406 6.148438 C 43.242188 6.148438 42.890625 6.097656 42.542969 6.097656 C 42.742188 6.097656 42.691406 6.097656 42.640625 6.097656 "/>
</g>
<g clip-path="url(#clip2)" clip-rule="nonzero">
<g clip-path="url(#clip3)" clip-rule="nonzero">
<g clip-path="url(#clip4)" clip-rule="nonzero">
<g clip-path="url(#clip5)" clip-rule="nonzero">
<g clip-path="url(#clip6)" clip-rule="nonzero">
<path style=" stroke:none;fill-rule:nonzero;fill:rgb(99.21875%,87.449646%,60.389709%);fill-opacity:1;" d="M 18.847656 26.484375 C 18.847656 26.484375 18.847656 26.480469 18.847656 26.480469 C 18.867188 26.546875 18.886719 26.613281 18.910156 26.679688 C 18.941406 26.789062 18.976562 26.902344 19.011719 27.011719 C 18.976562 26.992188 18.945312 26.96875 18.910156 26.945312 C 18.890625 26.789062 18.867188 26.636719 18.847656 26.484375 Z M 27.523438 30.875 C 27.484375 30.820312 27.445312 30.761719 27.410156 30.707031 C 27.175781 30.367188 26.953125 30.035156 26.761719 29.714844 C 26.570312 29.398438 26.378906 29.113281 26.246094 28.855469 C 25.957031 28.351562 25.773438 28.027344 25.773438 28.027344 C 25.773438 28.027344 25.605469 27.691406 25.347656 27.175781 C 25.292969 27.078125 25.242188 26.96875 25.191406 26.855469 C 25.65625 27.6875 26.144531 28.523438 26.636719 29.296875 C 26.929688 29.765625 27.214844 30.210938 27.496094 30.625 C 27.503906 30.707031 27.515625 30.792969 27.523438 30.875 Z M 51.316406 46.769531 C 51.957031 46.988281 52.554688 47.191406 53.121094 47.363281 C 53.070312 47.398438 53.019531 47.441406 52.96875 47.484375 C 52.511719 47.308594 52.046875 47.121094 51.546875 46.910156 C 51.273438 46.796875 50.988281 46.675781 50.6875 46.550781 C 50.714844 46.550781 50.738281 46.550781 50.765625 46.550781 C 50.972656 46.632812 51.15625 46.707031 51.316406 46.769531 Z M 66.304688 46.390625 C 65.425781 45.984375 65.054688 45.664062 64.621094 45.804688 C 64.390625 45.886719 63.644531 46.082031 62.851562 46.140625 C 62.460938 46.175781 62.070312 46.1875 61.777344 46.195312 C 61.480469 46.199219 61.289062 46.203125 61.289062 46.203125 C 61.289062 46.203125 60.5 46.199219 59.632812 46.195312 C 58.761719 46.195312 57.808594 46.195312 57.492188 46.203125 C 57.339844 46.210938 57.207031 46.246094 57.082031 46.308594 C 56.992188 46.265625 56.902344 46.226562 56.808594 46.191406 C 56.132812 45.90625 55.449219 45.59375 54.695312 45.316406 C 53.941406 45.023438 53.144531 44.683594 52.226562 44.363281 C 51.78125 44.183594 51.132812 43.917969 50.253906 43.558594 C 49.8125 43.378906 49.332031 43.136719 48.78125 42.882812 C 48.503906 42.757812 48.214844 42.621094 47.910156 42.480469 C 47.613281 42.324219 47.300781 42.160156 46.96875 41.988281 C 45.984375 41.496094 44.84375 40.824219 43.675781 40.125 C 43.101562 39.753906 42.523438 39.378906 41.949219 39.007812 C 41.390625 38.621094 40.855469 38.222656 40.339844 37.855469 C 39.816406 37.5 39.363281 37.105469 38.933594 36.773438 C 38.507812 36.433594 38.117188 36.144531 37.816406 35.871094 C 37.207031 35.335938 36.832031 35.011719 36.832031 35.011719 C 36.832031 35.011719 36.71875 34.914062 36.519531 34.738281 C 36.316406 34.566406 36.042969 34.289062 35.703125 33.960938 C 35.363281 33.628906 34.949219 33.246094 34.511719 32.796875 C 34.082031 32.339844 33.613281 31.839844 33.125 31.320312 C 31.195312 29.195312 29.242188 26.460938 28.175781 24.753906 C 26.988281 22.867188 26.476562 21.914062 26.140625 21.339844 C 25.648438 20.460938 25.191406 19.683594 24.75 18.972656 C 24.703125 18.84375 24.65625 18.710938 24.613281 18.582031 C 24.296875 17.667969 23.988281 16.773438 23.710938 15.769531 C 23.628906 15.464844 22.765625 14.160156 22.371094 13.820312 C 22.425781 13.246094 22.503906 12.6875 22.527344 12.480469 C 22.578125 12.035156 22.179688 11.710938 21.445312 11.15625 C 21.140625 11.234375 20.882812 11.304688 20.671875 11.390625 C 20.640625 11.34375 20.605469 11.292969 20.566406 11.242188 C 20.585938 11.058594 20.601562 10.871094 20.621094 10.683594 C 20.542969 10.804688 20.464844 10.921875 20.386719 11.039062 C 20.285156 10.933594 20.167969 10.820312 20.035156 10.699219 C 20.050781 10.367188 20.070312 10.023438 20.09375 9.664062 C 19.90625 9.964844 19.730469 10.261719 19.558594 10.558594 C 18.875 10.558594 18.484375 10.625 18.347656 10.917969 C 18.179688 11.289062 17.453125 13.183594 17.453125 13.183594 C 17.453125 13.183594 17.429688 13.242188 17.390625 13.339844 C 17.257812 12.878906 16.933594 12.460938 16.453125 11.921875 C 16.347656 11.984375 16.25 12.046875 16.15625 12.105469 C 16.078125 12.007812 15.996094 11.90625 15.910156 11.800781 C 15.054688 12.46875 14.558594 12.949219 14.394531 13.804688 C 14.277344 13.953125 14.160156 14.101562 14.046875 14.246094 C 13.925781 14.40625 13.804688 14.566406 13.6875 14.722656 C 13.582031 14.886719 13.476562 15.050781 13.375 15.210938 C 13.171875 15.535156 12.976562 15.863281 12.785156 16.191406 C 12.601562 16.523438 12.449219 16.871094 12.289062 17.222656 C 11.953125 17.917969 11.730469 18.675781 11.492188 19.5 C 11.375 19.910156 11.308594 20.347656 11.21875 20.808594 C 11.179688 21.039062 11.136719 21.273438 11.097656 21.515625 C 11.070312 21.757812 11.046875 22.007812 11.023438 22.265625 C 11.007812 22.4375 10.988281 22.640625 10.96875 22.878906 C 10.964844 22.910156 10.960938 22.941406 10.960938 22.96875 C 10.65625 23.476562 10.390625 24 10.160156 24.554688 C 10.023438 24.054688 9.894531 23.53125 9.789062 22.964844 C 9.273438 24.589844 9.125 26.089844 9.175781 27.617188 C 9.195312 28.089844 9.234375 28.5625 9.292969 29.050781 C 9.289062 29.316406 9.289062 29.59375 9.300781 29.875 C 9.296875 30.230469 9.339844 30.691406 9.398438 31.367188 C 9.417969 31.703125 9.46875 32.089844 9.539062 32.535156 C 9.570312 32.761719 9.605469 33 9.644531 33.257812 C 9.683594 33.515625 9.746094 33.785156 9.800781 34.078125 C 10.101562 35.65625 10.664062 37.730469 11.476562 39.886719 C 11.519531 40.003906 11.566406 40.125 11.613281 40.246094 C 11.808594 40.90625 12.058594 41.59375 12.382812 42.324219 C 12.585938 42.765625 12.863281 43.40625 13.425781 44.421875 C 13.734375 45.054688 14.042969 45.679688 14.359375 46.28125 C 15.40625 48.289062 16.511719 50.066406 17.394531 51.308594 C 17.828125 51.933594 18.207031 52.425781 18.472656 52.765625 C 18.742188 53.097656 18.890625 53.285156 18.890625 53.285156 C 18.890625 53.285156 19.382812 53.910156 20.296875 54.867188 C 20.523438 55.101562 20.761719 55.375 21.039062 55.648438 C 21.324219 55.910156 21.628906 56.195312 21.953125 56.488281 C 22.5 57.03125 23.171875 57.535156 23.863281 58.082031 C 23.5 57.839844 23.15625 57.601562 22.839844 57.378906 C 21.636719 56.523438 20.703125 55.773438 19.976562 55.160156 C 19.253906 54.546875 18.738281 54.082031 18.398438 53.757812 C 17.007812 52.449219 15.992188 51.414062 15.074219 50.367188 C 14.621094 49.835938 14.195312 49.304688 13.792969 48.707031 C 13.394531 48.113281 13.011719 47.449219 12.707031 46.648438 C 12.5 48.347656 12.820312 49.902344 13.457031 51.351562 C 14.113281 52.804688 15.113281 54.179688 16.613281 55.617188 C 16.984375 55.976562 17.53125 56.472656 18.292969 57.125 C 19.058594 57.777344 20.050781 58.574219 21.332031 59.488281 C 22.179688 60.089844 23.222656 60.789062 24.339844 61.4375 C 25.460938 62.09375 26.644531 62.707031 27.742188 63.210938 C 28.839844 63.71875 29.847656 64.097656 30.578125 64.363281 C 31.308594 64.621094 31.761719 64.765625 31.761719 64.765625 C 31.761719 64.765625 32.300781 64.9375 33.179688 65.183594 C 34.058594 65.425781 35.285156 65.703125 36.644531 65.917969 C 38.003906 66.128906 39.496094 66.257812 40.890625 66.277344 C 42.285156 66.296875 43.574219 66.195312 44.53125 66.089844 C 46.910156 65.796875 48.019531 65.445312 48.707031 65.273438 C 49.710938 64.972656 50.578125 64.648438 51.371094 64.261719 C 52.160156 63.871094 52.859375 63.425781 53.480469 62.90625 C 54.09375 62.386719 54.632812 61.792969 55.0625 61.105469 C 55.492188 60.417969 55.789062 59.621094 55.886719 58.777344 C 55.398438 59.472656 54.84375 59.96875 54.265625 60.351562 C 54.292969 60.304688 54.324219 60.253906 54.347656 60.203125 C 54.605469 59.699219 54.71875 59.121094 54.699219 58.460938 C 54.054688 58.621094 53.550781 58.667969 53.109375 58.761719 C 52.664062 58.847656 52.277344 58.980469 51.8125 59.222656 C 51.558594 59.351562 51.042969 59.605469 50.351562 59.816406 C 49.796875 59.988281 49.121094 60.128906 48.425781 60.21875 C 47.832031 59.949219 47.257812 59.695312 46.667969 59.445312 C 45.316406 58.871094 43.890625 58.320312 42.066406 57.644531 C 41.078125 57.285156 39.109375 56.523438 36.808594 55.371094 C 36.722656 55.332031 36.625 55.28125 36.53125 55.234375 C 36.367188 55.160156 36.21875 55.089844 36.21875 55.089844 C 36.21875 55.089844 35.816406 54.855469 35.636719 54.773438 C 33.675781 53.714844 32.769531 53.136719 32.210938 52.789062 C 30.570312 51.746094 29.25 50.96875 28.050781 50.222656 C 27.609375 49.949219 27.179688 49.671875 26.753906 49.378906 C 26.402344 49.019531 26.011719 48.597656 25.632812 48.148438 C 25.046875 47.464844 24.488281 46.707031 24.058594 46.042969 C 23.625 45.378906 23.3125 44.808594 23.15625 44.527344 C 22.589844 43.472656 21.933594 43.050781 20.796875 42.304688 C 20.792969 42.316406 20.785156 42.332031 20.78125 42.347656 C 20.507812 41.699219 20.207031 40.957031 19.894531 40.109375 C 19.757812 39.753906 19.582031 39.253906 19.433594 38.84375 C 19.28125 38.4375 19.175781 38.113281 19.175781 38.113281 C 19.175781 38.113281 19.050781 37.726562 18.898438 37.257812 C 18.753906 36.785156 18.582031 36.230469 18.484375 35.902344 C 18.464844 35.84375 18.449219 35.785156 18.433594 35.726562 C 18.820312 36.398438 19.257812 37 19.757812 37.519531 C 20.183594 38.390625 20.679688 39.332031 21.214844 40.222656 C 21.765625 41.152344 22.359375 42.027344 22.882812 42.730469 C 23.828125 44.015625 24.714844 44.972656 25.445312 45.703125 C 26.175781 46.433594 26.769531 46.914062 27.171875 47.25 C 28.828125 48.5625 30.355469 49.316406 31.863281 49.765625 C 32.132812 49.84375 32.398438 49.914062 32.667969 49.972656 C 32.828125 50.074219 33.003906 50.183594 33.191406 50.296875 C 33.589844 50.554688 34.058594 50.792969 34.5 51.046875 C 34.953125 51.28125 35.394531 51.503906 35.765625 51.683594 C 38.664062 53.03125 40.609375 53.472656 41.601562 53.730469 C 43.636719 54.195312 45.285156 54.28125 46.824219 54.164062 C 47.960938 54.070312 49.042969 53.867188 50.175781 53.53125 C 50.28125 53.542969 50.339844 53.546875 50.339844 53.546875 C 50.339844 53.546875 50.855469 53.597656 51.679688 53.652344 C 52.503906 53.707031 53.644531 53.765625 54.875 53.683594 C 56.105469 53.605469 57.40625 53.363281 58.496094 52.945312 C 59.574219 52.542969 60.378906 52.011719 60.761719 51.722656 C 61.359375 51.273438 61.753906 50.773438 62 50.242188 C 62.085938 50.195312 62.175781 50.144531 62.261719 50.089844 C 62.3125 50.085938 62.355469 50.082031 62.386719 50.078125 C 63.007812 50.007812 63.339844 49.578125 63.71875 48.800781 C 63.761719 48.75 63.800781 48.691406 63.839844 48.636719 C 64.074219 48.605469 64.300781 48.5625 64.515625 48.515625 C 64.953125 48.425781 65.320312 48.300781 65.5 48.234375 C 66.15625 47.976562 66.378906 47.34375 66.304688 46.390625 Z M 37.46875 25.726562 C 37.246094 25.46875 37.03125 25.207031 36.820312 24.941406 C 37.175781 25.234375 37.574219 25.554688 37.945312 25.859375 C 37.792969 25.820312 37.636719 25.78125 37.46875 25.726562 Z M 29.890625 17.363281 C 30.28125 18.011719 30.722656 18.65625 31.222656 19.339844 C 31.386719 19.542969 31.554688 19.753906 31.730469 19.964844 C 31.683594 20.429688 31.667969 20.855469 31.710938 21.273438 C 31.796875 21.855469 31.972656 22.433594 32.359375 23.082031 C 32.582031 23.425781 32.984375 24.136719 33.574219 24.9375 C 33.71875 25.140625 33.867188 25.355469 34.023438 25.574219 C 34.179688 25.789062 34.355469 26.003906 34.527344 26.222656 C 34.699219 26.441406 34.875 26.667969 35.050781 26.890625 C 35.226562 27.109375 35.417969 27.320312 35.601562 27.535156 C 35.785156 27.746094 35.964844 27.957031 36.144531 28.164062 C 36.324219 28.363281 36.511719 28.550781 36.683594 28.738281 C 37.035156 29.101562 37.351562 29.449219 37.640625 29.714844 C 38.214844 30.261719 38.585938 30.617188 38.585938 30.617188 C 38.585938 30.617188 38.972656 30.953125 39.566406 31.472656 C 39.859375 31.742188 40.234375 32.019531 40.628906 32.339844 C 40.832031 32.496094 41.035156 32.664062 41.253906 32.828125 C 41.472656 32.984375 41.699219 33.144531 41.929688 33.308594 C 42.15625 33.472656 42.382812 33.644531 42.621094 33.800781 C 42.859375 33.957031 43.097656 34.109375 43.335938 34.261719 C 43.570312 34.414062 43.796875 34.566406 44.03125 34.707031 C 44.261719 34.839844 44.488281 34.96875 44.703125 35.097656 C 45.558594 35.613281 46.308594 35.949219 46.667969 36.144531 C 47.246094 36.421875 47.761719 36.550781 48.265625 36.605469 C 48.410156 36.757812 48.558594 36.902344 48.710938 37.035156 C 48.699219 37.371094 48.71875 37.65625 48.785156 37.898438 C 48.875 38.195312 49.039062 38.429688 49.324219 38.582031 C 49.488281 38.671875 49.839844 38.835938 50.273438 39 C 50.445312 39.105469 50.667969 39.238281 50.929688 39.351562 C 51.035156 39.402344 51.148438 39.457031 51.261719 39.507812 C 51.375 39.558594 51.5 39.597656 51.621094 39.644531 C 51.746094 39.691406 51.871094 39.734375 51.992188 39.777344 C 52.121094 39.820312 52.25 39.851562 52.375 39.886719 C 52.628906 39.957031 52.875 40.015625 53.109375 40.050781 C 53.339844 40.085938 53.554688 40.132812 53.738281 40.140625 C 54.101562 40.171875 54.335938 40.191406 54.335938 40.191406 C 54.335938 40.191406 54.574219 40.195312 54.941406 40.199219 C 55.125 40.207031 55.339844 40.179688 55.574219 40.167969 C 55.808594 40.15625 56.058594 40.117188 56.320312 40.070312 C 56.445312 40.046875 56.578125 40.03125 56.707031 40 C 56.835938 39.96875 56.960938 39.9375 57.089844 39.902344 C 57.214844 39.867188 57.339844 39.839844 57.460938 39.800781 C 57.578125 39.757812 57.691406 39.71875 57.800781 39.675781 C 58.246094 39.53125 58.582031 39.332031 58.753906 39.253906 C 59.066406 39.082031 59.242188 38.820312 59.335938 38.511719 C 59.335938 38.511719 59.335938 38.507812 59.335938 38.503906 C 59.417969 38.472656 59.507812 38.441406 59.609375 38.402344 C 59.835938 38.328125 60.089844 38.199219 60.371094 38.074219 C 60.511719 38.007812 60.660156 37.945312 60.804688 37.867188 C 60.949219 37.789062 61.097656 37.710938 61.246094 37.628906 C 61.394531 37.542969 61.550781 37.464844 61.699219 37.375 C 61.84375 37.277344 61.984375 37.183594 62.128906 37.09375 C 62.269531 37 62.414062 36.910156 62.542969 36.816406 C 62.675781 36.714844 62.800781 36.617188 62.921875 36.527344 C 63.414062 36.167969 63.761719 35.804688 63.949219 35.644531 C 64.277344 35.320312 64.429688 34.964844 64.496094 34.582031 C 64.542969 34.179688 64.488281 33.734375 64.371094 33.222656 C 63.816406 33.246094 63.402344 33.257812 63.058594 33.332031 C 62.738281 33.382812 62.492188 33.5 62.25 33.691406 L 62.035156 33.027344 L 61.453125 33.007812 C 61.453125 32.957031 61.453125 32.902344 61.449219 32.847656 C 60.875 32.832031 60.476562 32.753906 60.125 32.71875 C 59.996094 32.710938 59.871094 32.703125 59.75 32.707031 C 59.792969 32.632812 59.835938 32.558594 59.878906 32.480469 C 59.257812 32.277344 58.808594 32.09375 58.371094 31.972656 C 57.941406 31.859375 57.527344 31.800781 57.007812 31.847656 C 56.726562 31.863281 56.160156 31.898438 55.449219 31.855469 C 54.738281 31.820312 53.886719 31.710938 53.066406 31.558594 C 52.84375 31.515625 52.621094 31.46875 52.40625 31.421875 C 52.125 31.277344 51.839844 31.136719 51.539062 30.996094 C 50.824219 30.621094 50.039062 30.25 49.160156 29.832031 C 48.730469 29.617188 48.105469 29.300781 47.257812 28.871094 C 46.429688 28.40625 45.363281 27.84375 44.109375 27.039062 C 43.53125 26.703125 42.757812 26.160156 42.117188 25.726562 C 41.792969 25.511719 41.507812 25.320312 41.3125 25.167969 C 41.113281 25.019531 40.988281 24.929688 40.988281 24.929688 L 39.714844 23.960938 C 39.042969 23.398438 38.234375 22.757812 37.777344 22.351562 C 36.105469 20.882812 35.375 20.097656 34.898438 19.644531 C 34.21875 18.953125 33.617188 18.332031 33.03125 17.773438 C 32.472656 17.195312 31.921875 16.6875 31.378906 16.191406 C 30.851562 15.683594 30.316406 15.203125 29.742188 14.710938 C 29.195312 14.203125 28.613281 13.679688 27.96875 13.109375 C 28.269531 13.90625 28.554688 14.640625 28.855469 15.347656 C 29.179688 16.039062 29.519531 16.699219 29.890625 17.363281 "/>
</g>
</g>
</g>
</g>
</g>
<g clip-path="url(#clip7)" clip-rule="nonzero">
<g clip-path="url(#clip8)" clip-rule="nonzero">
<g clip-path="url(#clip9)" clip-rule="nonzero">
<g clip-path="url(#clip10)" clip-rule="nonzero">
<g clip-path="url(#clip11)" clip-rule="nonzero">
<path style=" stroke:none;fill-rule:nonzero;fill:rgb(25.878906%,34.899902%,39.99939%);fill-opacity:1;" d="M 21.011719 8.230469 C 20.703125 8.070312 20.539062 7.984375 20.546875 7.878906 C 20.550781 7.820312 20.570312 7.65625 20.585938 7.5 C 20.601562 7.347656 20.605469 7.207031 20.605469 7.207031 C 20.605469 7.207031 20.609375 7.066406 20.601562 6.910156 C 20.59375 6.757812 20.585938 6.589844 20.582031 6.53125 C 20.578125 6.425781 20.75 6.351562 21.066406 6.210938 C 21.40625 6.261719 21.59375 6.3125 21.613281 6.4375 C 21.625 6.503906 21.644531 6.703125 21.644531 6.886719 C 21.652344 7.074219 21.644531 7.242188 21.644531 7.242188 C 21.644531 7.242188 21.640625 7.410156 21.628906 7.59375 C 21.613281 7.777344 21.585938 7.976562 21.570312 8.042969 C 21.542969 8.160156 21.355469 8.203125 21.011719 8.230469 Z M 50.574219 52.085938 C 50.449219 52.402344 50.367188 52.574219 50.25 52.570312 C 50.121094 52.570312 49.484375 52.503906 49.484375 52.503906 C 49.484375 52.503906 48.84375 52.453125 48.714844 52.433594 C 48.597656 52.417969 48.546875 52.234375 48.476562 51.898438 C 48.601562 51.578125 48.683594 51.40625 48.804688 51.40625 C 48.933594 51.410156 49.570312 51.476562 49.570312 51.476562 C 49.570312 51.476562 50.207031 51.523438 50.335938 51.542969 C 50.453125 51.5625 50.503906 51.746094 50.574219 52.085938 Z M 43.222656 50.820312 C 44.765625 51.054688 45.632812 51.242188 46.96875 51.589844 C 45.640625 51.902344 44.691406 52.070312 43.078125 51.839844 C 42.878906 51.808594 42.585938 51.78125 42.195312 51.707031 C 41.804688 51.621094 41.308594 51.53125 40.699219 51.394531 C 39.636719 51.117188 38.148438 50.691406 36.988281 50.183594 C 36.394531 49.960938 35.890625 49.703125 35.519531 49.535156 C 35.335938 49.449219 35.191406 49.378906 35.085938 49.332031 C 34.984375 49.285156 34.933594 49.253906 34.933594 49.253906 C 34.933594 49.253906 34.671875 49.113281 34.253906 48.886719 C 34.046875 48.769531 33.789062 48.648438 33.523438 48.484375 C 33.257812 48.320312 32.964844 48.140625 32.660156 47.953125 C 32.351562 47.769531 32.046875 47.550781 31.742188 47.335938 C 31.4375 47.113281 31.117188 46.914062 30.839844 46.679688 C 30.269531 46.230469 29.738281 45.820312 29.378906 45.472656 C 28.675781 44.859375 28.371094 44.527344 28.175781 44.332031 C 27.035156 43.171875 26.605469 42.308594 26.070312 41.058594 C 27.140625 41.925781 27.808594 42.511719 28.914062 43.613281 C 29.101562 43.800781 29.394531 44.113281 30.070312 44.699219 C 30.417969 45.03125 30.925781 45.425781 31.472656 45.859375 C 31.738281 46.085938 32.046875 46.273438 32.335938 46.488281 C 32.632812 46.691406 32.921875 46.90625 33.21875 47.082031 C 33.511719 47.261719 33.792969 47.4375 34.046875 47.59375 C 34.304688 47.75 34.550781 47.871094 34.746094 47.984375 C 35.148438 48.199219 35.398438 48.335938 35.398438 48.335938 C 35.398438 48.335938 35.449219 48.367188 35.550781 48.410156 C 35.648438 48.457031 35.789062 48.523438 35.96875 48.605469 C 36.320312 48.769531 36.804688 49.015625 37.375 49.226562 C 38.496094 49.714844 39.921875 50.117188 40.941406 50.382812 C 41.523438 50.519531 42 50.605469 42.375 50.6875 C 42.75 50.761719 43.03125 50.789062 43.222656 50.820312 Z M 67.488281 45.441406 C 67.292969 45.738281 67.007812 46.082031 66.65625 46.453125 C 66.457031 46.65625 66.257812 46.863281 66.054688 47.070312 C 65.824219 47.285156 65.59375 47.503906 65.363281 47.722656 C 64.886719 48.148438 64.386719 48.570312 63.859375 48.96875 C 62.808594 49.769531 61.652344 50.503906 60.425781 51.144531 C 57.972656 52.425781 55.222656 53.3125 52.457031 53.703125 C 51.058594 53.894531 49.667969 54.03125 48.308594 54.113281 C 46.953125 54.183594 45.628906 54.179688 44.363281 54.109375 C 43.097656 54.039062 41.898438 53.863281 40.773438 53.652344 C 40.21875 53.527344 39.671875 53.417969 39.164062 53.265625 C 38.90625 53.191406 38.652344 53.132812 38.40625 53.050781 C 38.164062 52.96875 37.925781 52.886719 37.695312 52.808594 C 35.832031 52.167969 34.402344 51.382812 33.4375 50.804688 C 32.957031 50.511719 32.582031 50.277344 32.332031 50.101562 C 32.078125 49.933594 31.945312 49.84375 31.945312 49.84375 C 31.945312 49.84375 31.8125 49.753906 31.5625 49.585938 C 31.3125 49.410156 30.949219 49.152344 30.484375 48.820312 C 29.566406 48.144531 28.246094 47.164062 26.753906 45.847656 C 25.257812 44.539062 23.566406 42.90625 21.941406 40.953125 C 20.316406 39.003906 18.730469 36.734375 17.550781 34.203125 C 17.234375 33.582031 17.003906 32.921875 16.730469 32.273438 C 16.507812 31.609375 16.273438 30.945312 16.097656 30.265625 C 15.730469 28.910156 15.453125 27.527344 15.328125 26.152344 L 15.273438 25.636719 L 15.246094 25.125 C 15.234375 24.78125 15.203125 24.441406 15.203125 24.105469 C 15.210938 23.425781 15.199219 22.753906 15.261719 22.097656 C 15.289062 21.4375 15.394531 20.796875 15.476562 20.160156 C 15.515625 19.84375 15.597656 19.539062 15.65625 19.230469 C 15.722656 18.925781 15.765625 18.617188 15.859375 18.328125 C 16.027344 17.738281 16.167969 17.15625 16.386719 16.617188 C 16.484375 16.34375 16.582031 16.074219 16.679688 15.808594 C 16.785156 15.578125 16.886719 15.355469 16.988281 15.132812 C 17.082031 14.925781 17.167969 14.730469 17.25 14.550781 C 17.425781 14.207031 17.585938 13.9375 17.683594 13.753906 C 17.867188 13.417969 18.019531 13.109375 18.1875 12.835938 C 18.347656 12.558594 18.480469 12.296875 18.605469 12.03125 C 18.8125 11.621094 19.019531 11.226562 19.234375 10.769531 C 19.289062 10.839844 19.347656 10.914062 19.414062 10.992188 C 19.746094 11.199219 19.929688 11.3125 20.140625 11.238281 C 20.257812 11.199219 20.601562 11.078125 20.933594 11.003906 C 21.261719 10.925781 21.566406 10.886719 21.566406 10.886719 C 21.566406 10.886719 21.871094 10.847656 22.207031 10.84375 C 22.546875 10.835938 22.914062 10.867188 23.035156 10.878906 C 23.136719 10.886719 23.222656 10.855469 23.3125 10.796875 C 23.347656 10.832031 23.386719 10.871094 23.429688 10.910156 C 23.5625 10.8125 23.667969 10.726562 23.753906 10.636719 C 23.953125 10.816406 24.117188 11.019531 24.292969 11.214844 C 24.652344 11.644531 25.011719 12.113281 25.484375 12.726562 C 25.609375 12.894531 25.796875 13.148438 26.023438 13.46875 C 26.132812 13.632812 26.257812 13.804688 26.382812 14 C 26.464844 14.125 26.546875 14.246094 26.628906 14.375 C 26.71875 14.515625 26.808594 14.65625 26.898438 14.800781 C 27.078125 15.089844 27.261719 15.390625 27.449219 15.699219 C 28.191406 16.933594 28.949219 18.3125 29.730469 19.742188 C 30.515625 21.167969 31.300781 22.648438 32.191406 24.070312 C 32.414062 24.429688 32.660156 24.757812 32.898438 25.089844 C 33.136719 25.417969 33.375 25.746094 33.609375 26.070312 C 34.082031 26.714844 34.519531 27.363281 35.019531 27.921875 C 35.5 28.5 35.960938 29.050781 36.398438 29.570312 C 36.507812 29.699219 36.609375 29.828125 36.722656 29.949219 C 36.835938 30.066406 36.949219 30.183594 37.058594 30.296875 C 37.28125 30.523438 37.492188 30.746094 37.695312 30.953125 C 38.105469 31.375 38.476562 31.757812 38.800781 32.097656 C 39.140625 32.425781 39.453125 32.6875 39.703125 32.914062 C 40.203125 33.359375 40.484375 33.613281 40.484375 33.613281 C 40.484375 33.613281 40.554688 33.675781 40.691406 33.792969 C 40.824219 33.910156 41.011719 34.09375 41.273438 34.304688 C 41.804688 34.714844 42.570312 35.304688 43.5 36.019531 C 43.988281 36.34375 44.519531 36.695312 45.089844 37.074219 C 45.375 37.257812 45.660156 37.460938 45.96875 37.644531 C 46.28125 37.824219 46.605469 38.003906 46.929688 38.191406 C 47.585938 38.558594 48.261719 38.960938 48.996094 39.289062 C 49.726562 39.625 50.453125 40.019531 51.238281 40.300781 C 52.015625 40.601562 52.789062 40.949219 53.597656 41.183594 C 54.402344 41.441406 55.195312 41.71875 56.007812 41.902344 C 56.40625 42.003906 56.808594 42.105469 57.203125 42.203125 C 57.597656 42.296875 58 42.359375 58.390625 42.4375 C 58.78125 42.507812 59.164062 42.589844 59.542969 42.652344 C 59.914062 42.695312 60.277344 42.742188 60.636719 42.789062 C 60.902344 42.820312 61.15625 42.851562 61.394531 42.882812 C 61.632812 42.910156 61.855469 42.917969 62.058594 42.933594 C 62.464844 42.957031 62.796875 42.976562 63.015625 42.992188 C 63.421875 43.027344 63.78125 43.003906 64.117188 42.984375 C 64.453125 42.964844 64.761719 42.929688 65.058594 42.890625 C 65.636719 42.792969 66.175781 42.625 66.796875 42.4375 C 67.003906 42.464844 67.175781 42.546875 67.316406 42.65625 C 67.519531 42.816406 67.667969 43.011719 67.78125 43.226562 C 68.011719 43.675781 68.0625 44.09375 67.851562 44.726562 C 67.792969 44.890625 67.6875 45.140625 67.488281 45.441406 Z M 19.824219 8.074219 C 19.789062 7.363281 19.785156 6.730469 19.785156 6.730469 C 19.785156 6.730469 19.78125 6.09375 19.832031 5.40625 C 19.875 4.722656 20.015625 4 20.078125 3.761719 C 20.085938 3.714844 20.09375 3.671875 20.101562 3.625 C 20.449219 4.042969 20.808594 4.382812 21.226562 4.683594 C 21.476562 4.863281 21.75 5.03125 22.0625 5.183594 C 22.371094 5.335938 22.742188 5.484375 23.175781 5.574219 C 23.265625 5.59375 23.375 5.613281 23.511719 5.628906 C 23.507812 5.652344 23.5 5.671875 23.496094 5.695312 C 23.457031 5.875 23.367188 6.417969 23.296875 6.917969 C 23.230469 7.417969 23.171875 7.875 23.171875 7.875 C 23.171875 7.875 23.121094 8.332031 23.0625 8.832031 C 23.027344 9.195312 22.992188 9.578125 22.976562 9.835938 C 22.777344 9.816406 22.46875 9.796875 22.179688 9.808594 C 21.785156 9.8125 21.429688 9.863281 21.429688 9.863281 C 21.429688 9.863281 21.074219 9.902344 20.6875 9.992188 C 20.367188 10.066406 20.035156 10.175781 19.855469 10.242188 C 19.890625 10.117188 19.90625 9.980469 19.902344 9.824219 C 19.890625 9.566406 19.855469 8.785156 19.824219 8.074219 Z M 20.65625 2.8125 C 21.171875 2.738281 21.730469 2.738281 22.40625 2.894531 C 22.574219 2.933594 22.816406 3.003906 23.121094 3.148438 C 23.425781 3.296875 23.8125 3.527344 24.117188 3.902344 C 24.171875 3.972656 24.242188 4.070312 24.28125 4.148438 C 24.320312 4.226562 24.339844 4.285156 24.339844 4.285156 C 24.339844 4.285156 24.363281 4.359375 24.367188 4.417969 C 24.367188 4.480469 24.355469 4.5 24.351562 4.503906 C 24.339844 4.523438 24.273438 4.574219 24.167969 4.59375 C 24.070312 4.617188 23.953125 4.625 23.851562 4.621094 C 23.648438 4.617188 23.492188 4.585938 23.378906 4.566406 C 23.03125 4.496094 22.730469 4.402344 22.425781 4.300781 C 22.148438 4.207031 21.875 4.117188 21.578125 4.015625 C 21.105469 3.851562 20.644531 3.691406 20.121094 3.460938 C 20.125 3.363281 20.117188 3.273438 20.097656 3.175781 C 20.089844 3.109375 20.074219 3.039062 20.054688 2.96875 C 20.246094 2.890625 20.449219 2.84375 20.65625 2.8125 Z M 65.132812 31.976562 C 65.144531 31.984375 65.160156 31.988281 65.171875 31.996094 C 65.097656 32.089844 65.027344 32.183594 64.957031 32.277344 C 65.015625 32.179688 65.070312 32.078125 65.132812 31.976562 Z M 68.835938 45.0625 C 68.90625 44.839844 68.957031 44.621094 68.972656 44.402344 C 68.988281 44.296875 68.980469 44.1875 68.980469 44.085938 C 68.964844 43.972656 68.964844 43.863281 68.933594 43.761719 C 68.835938 43.347656 68.636719 43.019531 68.386719 42.769531 C 68.132812 42.519531 67.828125 42.335938 67.488281 42.257812 C 67.191406 42.179688 66.859375 42.21875 66.597656 42.367188 C 66.035156 42.265625 65.546875 42.199219 65.039062 42.132812 C 64.746094 42.089844 64.449219 42.054688 64.125 42.03125 C 63.800781 42.003906 63.449219 42 63.058594 41.964844 C 62.847656 41.949219 62.53125 41.929688 62.136719 41.902344 C 61.9375 41.886719 61.722656 41.878906 61.492188 41.851562 C 61.261719 41.824219 61.015625 41.792969 60.757812 41.757812 C 60.414062 41.714844 60.058594 41.671875 59.699219 41.625 C 59.332031 41.566406 58.957031 41.488281 58.578125 41.417969 C 58.199219 41.34375 57.8125 41.28125 57.429688 41.195312 C 57.386719 41.183594 57.347656 41.171875 57.304688 41.164062 C 57.730469 41.035156 58.464844 40.804688 59.476562 40.21875 C 59.921875 39.96875 60.511719 39.5625 60.960938 39.183594 C 61.414062 38.808594 61.734375 38.480469 61.734375 38.480469 C 61.734375 38.480469 62.125 38.105469 62.550781 37.605469 C 62.980469 37.109375 63.4375 36.492188 63.691406 36.121094 C 64.214844 35.351562 64.425781 34.964844 64.570312 34.730469 C 65.183594 33.667969 65.464844 32.898438 65.699219 32.003906 C 65.84375 31.941406 65.921875 31.859375 65.925781 31.75 C 65.925781 31.675781 65.910156 31.488281 65.875 31.292969 C 65.886719 31.234375 65.902344 31.175781 65.914062 31.117188 C 65.894531 31.140625 65.871094 31.164062 65.851562 31.1875 C 65.84375 31.171875 65.839844 31.152344 65.835938 31.132812 C 65.773438 30.886719 65.675781 30.679688 65.675781 30.679688 C 65.675781 30.679688 65.585938 30.46875 65.449219 30.253906 C 65.3125 30.039062 65.121094 29.832031 65.050781 29.773438 C 64.925781 29.664062 64.734375 29.722656 64.460938 29.898438 C 64.042969 29.804688 63.65625 29.730469 63.257812 29.675781 C 62.671875 29.5625 62.054688 29.5 61.269531 29.453125 C 61.078125 29.4375 60.796875 29.414062 60.410156 29.378906 C 60.027344 29.347656 59.542969 29.3125 58.945312 29.222656 C 58.625 29.179688 58.289062 29.136719 57.941406 29.089844 C 57.589844 29.039062 57.234375 28.964844 56.863281 28.902344 C 56.125 28.78125 55.359375 28.597656 54.578125 28.417969 C 54.183594 28.335938 53.800781 28.210938 53.414062 28.105469 C 53.027344 27.988281 52.632812 27.898438 52.257812 27.765625 C 51.503906 27.503906 50.753906 27.277344 50.066406 26.984375 C 49.722656 26.847656 49.386719 26.714844 49.0625 26.585938 C 48.746094 26.441406 48.441406 26.300781 48.152344 26.167969 C 47.863281 26.035156 47.585938 25.914062 47.335938 25.789062 C 47.085938 25.65625 46.855469 25.535156 46.648438 25.421875 C 45.796875 24.992188 45.308594 24.675781 45.308594 24.675781 C 45.308594 24.675781 45.097656 24.550781 44.726562 24.328125 C 44.347656 24.117188 43.84375 23.753906 43.222656 23.328125 C 42 22.449219 40.378906 21.179688 38.929688 19.605469 C 37.46875 18.054688 36.082031 16.199219 34.546875 14.894531 C 34.175781 14.570312 33.765625 14.257812 33.421875 14.03125 C 33.21875 13.890625 33.019531 13.769531 32.835938 13.660156 C 32.472656 13.449219 32.164062 13.296875 31.953125 13.203125 C 31.179688 12.855469 30.507812 12.722656 29.875 12.707031 C 29.246094 12.695312 28.640625 12.808594 28.007812 13.066406 C 28.695312 13.132812 29.222656 13.28125 29.761719 13.453125 C 30.296875 13.628906 30.84375 13.824219 31.523438 14.140625 C 31.707031 14.222656 31.980469 14.359375 32.3125 14.554688 C 32.472656 14.652344 32.652344 14.757812 32.839844 14.886719 C 32.976562 14.980469 33.171875 15.121094 33.339844 15.246094 C 33.511719 15.382812 33.6875 15.523438 33.863281 15.675781 C 34.566406 16.285156 35.273438 17.03125 35.980469 17.835938 C 36.691406 18.640625 37.402344 19.507812 38.167969 20.3125 C 39.675781 21.945312 41.355469 23.257812 42.621094 24.167969 C 43.269531 24.609375 43.789062 24.984375 44.183594 25.199219 C 44.566406 25.429688 44.78125 25.5625 44.78125 25.5625 C 44.78125 25.5625 44.910156 25.640625 45.144531 25.78125 C 45.371094 25.929688 45.730469 26.101562 46.164062 26.335938 C 46.378906 26.449219 46.617188 26.574219 46.875 26.710938 C 47.132812 26.84375 47.421875 26.964844 47.71875 27.105469 C 48.015625 27.242188 48.328125 27.386719 48.65625 27.539062 C 48.988281 27.667969 49.332031 27.804688 49.691406 27.949219 C 50.394531 28.25 51.167969 28.484375 51.945312 28.753906 C 52.332031 28.890625 52.734375 28.984375 53.132812 29.101562 C 53.535156 29.214844 53.929688 29.339844 54.332031 29.421875 C 55.132812 29.609375 55.921875 29.800781 56.683594 29.921875 C 57.0625 29.988281 57.429688 30.066406 57.789062 30.117188 C 58.144531 30.164062 58.492188 30.207031 58.820312 30.25 C 59.433594 30.339844 59.929688 30.378906 60.324219 30.410156 C 60.71875 30.441406 61.007812 30.46875 61.207031 30.484375 C 62.015625 30.523438 62.652344 30.492188 63.25 30.429688 C 63.613281 30.375 63.964844 30.304688 64.335938 30.21875 C 64.292969 30.363281 64.277344 30.449219 64.320312 30.503906 C 64.359375 30.546875 64.484375 30.675781 64.574219 30.816406 C 64.664062 30.953125 64.726562 31.089844 64.726562 31.089844 C 64.726562 31.089844 64.785156 31.226562 64.824219 31.386719 C 64.867188 31.546875 64.882812 31.722656 64.886719 31.78125 C 64.886719 31.792969 64.890625 31.804688 64.898438 31.816406 C 64.023438 32.40625 63.355469 32.925781 62.382812 33.785156 C 62.179688 33.949219 61.871094 34.242188 61.15625 34.742188 C 60.917969 34.914062 60.5 35.175781 60.132812 35.375 C 59.949219 35.476562 59.777344 35.558594 59.652344 35.617188 C 59.527344 35.675781 59.449219 35.714844 59.449219 35.714844 C 59.449219 35.714844 59.382812 35.742188 59.269531 35.785156 C 59.160156 35.828125 59.011719 35.898438 58.835938 35.957031 C 58.484375 36.082031 58.050781 36.21875 57.738281 36.296875 C 56.601562 36.585938 55.863281 36.652344 55.484375 36.707031 C 53.9375 36.882812 53.042969 37.074219 51.726562 37.449219 C 53.066406 37.730469 53.988281 37.898438 55.609375 37.730469 C 56.007812 37.675781 56.78125 37.613281 58.007812 37.300781 C 58.347656 37.214844 58.820312 37.070312 59.199219 36.929688 C 59.394531 36.863281 59.558594 36.785156 59.679688 36.738281 C 59.800781 36.6875 59.875 36.65625 59.875 36.65625 C 59.875 36.65625 59.960938 36.617188 60.101562 36.550781 C 60.238281 36.488281 60.429688 36.398438 60.632812 36.289062 C 61.042969 36.070312 61.5 35.78125 61.757812 35.59375 C 62.53125 35.050781 62.859375 34.742188 63.070312 34.5625 C 63.496094 34.175781 63.832031 33.828125 64.117188 33.484375 C 63.976562 33.707031 63.832031 33.941406 63.675781 34.203125 C 63.535156 34.425781 63.324219 34.800781 62.828125 35.53125 C 62.582031 35.886719 62.15625 36.46875 61.753906 36.929688 C 61.359375 37.398438 61 37.746094 61 37.746094 C 61 37.746094 60.703125 38.046875 60.292969 38.382812 C 59.882812 38.726562 59.347656 39.09375 58.945312 39.324219 C 57.945312 39.902344 57.253906 40.09375 56.902344 40.207031 C 56.234375 40.398438 55.691406 40.507812 55.171875 40.601562 C 54.757812 40.472656 54.34375 40.335938 53.929688 40.203125 C 53.140625 39.972656 52.390625 39.636719 51.636719 39.34375 C 50.871094 39.070312 50.164062 38.6875 49.457031 38.359375 C 48.738281 38.042969 48.085938 37.652344 47.445312 37.292969 C 47.125 37.113281 46.8125 36.9375 46.507812 36.765625 C 46.207031 36.585938 45.929688 36.386719 45.652344 36.207031 C 45.097656 35.84375 44.582031 35.5 44.105469 35.183594 C 43.199219 34.484375 42.453125 33.914062 41.933594 33.511719 C 41.683594 33.308594 41.496094 33.128906 41.367188 33.015625 C 41.234375 32.898438 41.167969 32.839844 41.167969 32.839844 C 41.167969 32.839844 40.890625 32.59375 40.402344 32.15625 C 40.164062 31.933594 39.855469 31.679688 39.527344 31.359375 C 39.207031 31.027344 38.84375 30.65625 38.445312 30.242188 C 38.25 30.039062 38.039062 29.824219 37.824219 29.601562 C 37.71875 29.492188 37.609375 29.375 37.496094 29.261719 C 37.386719 29.144531 37.285156 29.015625 37.179688 28.890625 C 36.753906 28.382812 36.300781 27.839844 35.832031 27.28125 C 35.34375 26.734375 34.914062 26.097656 34.453125 25.46875 C 34.226562 25.148438 33.992188 24.828125 33.757812 24.503906 C 33.527344 24.179688 33.28125 23.855469 33.070312 23.519531 C 32.21875 22.160156 31.433594 20.675781 30.648438 19.25 C 29.867188 17.820312 29.101562 16.429688 28.347656 15.171875 C 28.15625 14.859375 27.96875 14.554688 27.785156 14.253906 C 27.691406 14.105469 27.601562 13.960938 27.507812 13.816406 C 27.421875 13.6875 27.339844 13.558594 27.253906 13.433594 C 27.125 13.234375 26.992188 13.050781 26.878906 12.882812 C 26.640625 12.546875 26.445312 12.28125 26.304688 12.105469 C 25.800781 11.460938 25.324219 10.996094 24.792969 10.648438 C 24.542969 10.480469 24.269531 10.347656 23.980469 10.246094 C 23.988281 10.214844 23.992188 10.183594 23.996094 10.148438 C 24.011719 9.96875 24.058594 9.433594 24.101562 8.941406 C 24.15625 8.449219 24.203125 8.003906 24.203125 8.003906 C 24.203125 8.003906 24.261719 7.5625 24.332031 7.074219 C 24.40625 6.585938 24.488281 6.054688 24.519531 5.878906 C 24.535156 5.769531 24.527344 5.671875 24.503906 5.582031 C 24.722656 5.519531 25.003906 5.394531 25.222656 5.078125 C 25.277344 5 25.339844 4.882812 25.375 4.75 C 25.40625 4.617188 25.414062 4.480469 25.40625 4.367188 C 25.390625 4.132812 25.328125 3.972656 25.328125 3.972656 C 25.328125 3.972656 25.289062 3.835938 25.210938 3.683594 C 25.132812 3.527344 25.019531 3.367188 24.933594 3.261719 C 24.460938 2.691406 23.964844 2.414062 23.574219 2.21875 C 23.171875 2.027344 22.859375 1.941406 22.640625 1.890625 C 21.757812 1.695312 21.019531 1.808594 20.414062 2.09375 C 20.117188 2.238281 19.832031 2.433594 19.625 2.710938 C 19.613281 2.722656 19.601562 2.742188 19.589844 2.757812 C 19.511719 2.8125 19.4375 2.871094 19.375 2.9375 C 19.242188 3.089844 19.128906 3.265625 19.070312 3.511719 C 18.992188 3.777344 18.835938 4.585938 18.789062 5.324219 C 18.738281 6.066406 18.75 6.726562 18.75 6.726562 C 18.75 6.726562 18.75 7.390625 18.78125 8.109375 C 18.816406 8.824219 18.855469 9.601562 18.867188 9.859375 C 18.882812 10.171875 18.972656 10.390625 19.125 10.617188 C 18.707031 10.9375 18.324219 11.234375 17.984375 11.59375 C 17.785156 11.816406 17.582031 12.054688 17.378906 12.320312 C 17.160156 12.582031 16.976562 12.894531 16.777344 13.25 C 16.671875 13.441406 16.503906 13.726562 16.316406 14.089844 C 16.230469 14.277344 16.136719 14.480469 16.039062 14.699219 C 15.929688 14.933594 15.824219 15.171875 15.714844 15.414062 C 15.609375 15.695312 15.507812 15.976562 15.402344 16.265625 C 15.175781 16.835938 15.027344 17.449219 14.847656 18.066406 C 14.75 18.375 14.707031 18.695312 14.632812 19.015625 C 14.574219 19.339844 14.488281 19.660156 14.445312 19.992188 C 14.359375 20.65625 14.25 21.328125 14.222656 22.019531 C 14.15625 22.707031 14.164062 23.410156 14.160156 24.113281 C 14.160156 24.46875 14.191406 24.824219 14.203125 25.179688 L 14.234375 25.714844 L 14.289062 26.25 C 14.421875 27.683594 14.707031 29.121094 15.089844 30.535156 C 15.273438 31.242188 15.515625 31.933594 15.753906 32.628906 C 16.035156 33.304688 16.277344 33.992188 16.609375 34.640625 C 17.835938 37.273438 19.472656 39.609375 21.140625 41.609375 C 22.8125 43.621094 24.542969 45.285156 26.070312 46.621094 C 27.597656 47.96875 28.941406 48.960938 29.875 49.652344 C 30.351562 49.988281 30.722656 50.253906 30.972656 50.433594 C 31.230469 50.601562 31.367188 50.695312 31.367188 50.695312 C 31.367188 50.695312 31.503906 50.785156 31.757812 50.960938 C 32.011719 51.136719 32.402344 51.378906 32.90625 51.683594 C 33.910156 52.289062 35.40625 53.113281 37.355469 53.785156 C 37.597656 53.867188 37.847656 53.953125 38.101562 54.039062 C 38.359375 54.121094 38.625 54.183594 38.894531 54.261719 C 39.425781 54.421875 39.996094 54.535156 40.574219 54.664062 C 41.746094 54.886719 42.996094 55.070312 44.308594 55.140625 C 45.617188 55.21875 46.980469 55.222656 48.375 55.148438 C 49.242188 55.097656 50.121094 55.019531 51.003906 54.925781 C 51.210938 55.199219 51.371094 55.355469 51.644531 55.386719 C 51.8125 55.40625 52.316406 55.460938 52.765625 55.535156 C 53.222656 55.609375 53.625 55.707031 53.625 55.707031 C 53.625 55.707031 54.027344 55.800781 54.453125 55.945312 C 54.878906 56.089844 55.3125 56.292969 55.453125 56.367188 C 55.460938 56.371094 55.472656 56.375 55.484375 56.378906 C 55.453125 56.460938 55.449219 56.519531 55.484375 56.558594 C 55.515625 56.605469 55.632812 56.734375 55.730469 56.859375 C 55.828125 56.984375 55.910156 57.105469 55.910156 57.105469 C 55.910156 57.105469 55.988281 57.226562 56.066406 57.363281 C 56.144531 57.503906 56.21875 57.660156 56.246094 57.710938 C 56.257812 57.726562 56.273438 57.742188 56.292969 57.75 C 55.945312 57.816406 55.617188 57.878906 55.285156 57.945312 C 54.699219 58.046875 54.121094 58.238281 53.359375 58.421875 C 53.175781 58.472656 52.902344 58.546875 52.535156 58.648438 C 52.164062 58.734375 51.691406 58.828125 51.109375 58.953125 C 50.828125 59.015625 50.511719 59.050781 50.179688 59.101562 C 49.847656 59.148438 49.503906 59.222656 49.148438 59.246094 C 48.789062 59.277344 48.429688 59.3125 48.074219 59.34375 C 47.71875 59.382812 47.367188 59.375 47.035156 59.394531 C 46.371094 59.429688 45.777344 59.410156 45.351562 59.398438 C 45.140625 59.394531 44.964844 59.390625 44.847656 59.386719 C 44.730469 59.386719 44.664062 59.378906 44.664062 59.378906 C 44.664062 59.378906 44.355469 59.355469 43.855469 59.316406 C 43.609375 59.289062 43.3125 59.28125 42.984375 59.234375 C 42.660156 59.1875 42.304688 59.136719 41.929688 59.085938 C 40.441406 58.84375 38.714844 58.433594 37.726562 58.074219 C 37.296875 57.941406 36.984375 57.835938 36.75 57.738281 L 36.226562 57.535156 C 35.488281 57.273438 34.929688 57.023438 34.359375 56.863281 C 33.792969 56.691406 33.257812 56.523438 32.585938 56.351562 C 33.089844 56.804688 33.523438 57.203125 34.027344 57.542969 C 34.539062 57.863281 35.082031 58.210938 35.847656 58.492188 C 35.976562 58.542969 36.144531 58.609375 36.390625 58.703125 C 36.632812 58.808594 36.957031 58.917969 37.40625 59.058594 C 38.433594 59.433594 40.226562 59.859375 41.773438 60.109375 C 42.160156 60.160156 42.53125 60.214844 42.871094 60.261719 C 43.207031 60.308594 43.519531 60.316406 43.777344 60.34375 C 44.292969 60.382812 44.613281 60.410156 44.613281 60.410156 C 44.613281 60.410156 44.683594 60.417969 44.804688 60.417969 C 44.929688 60.421875 45.109375 60.425781 45.328125 60.429688 C 45.769531 60.441406 46.386719 60.464844 47.078125 60.429688 C 47.421875 60.410156 47.785156 60.417969 48.15625 60.378906 C 48.523438 60.34375 48.898438 60.3125 49.269531 60.277344 C 49.640625 60.25 50 60.175781 50.34375 60.128906 C 50.6875 60.074219 51.015625 60.039062 51.308594 59.972656 C 51.914062 59.84375 52.40625 59.742188 52.792969 59.652344 C 53.175781 59.546875 53.457031 59.46875 53.652344 59.410156 C 54.4375 59.210938 55.015625 58.921875 55.550781 58.65625 C 55.730469 58.5625 55.898438 58.457031 56.066406 58.347656 C 55.890625 58.546875 55.71875 58.753906 55.542969 58.980469 C 55.34375 59.226562 55.101562 59.464844 54.863281 59.761719 C 54.796875 59.839844 54.714844 59.9375 54.617188 60.054688 C 54.507812 60.15625 54.382812 60.277344 54.246094 60.410156 C 54.109375 60.542969 53.957031 60.6875 53.796875 60.84375 C 53.636719 61.003906 53.433594 61.132812 53.242188 61.292969 C 53.136719 61.371094 53.035156 61.449219 52.929688 61.53125 C 52.8125 61.625 52.6875 61.71875 52.554688 61.796875 C 52.289062 61.960938 52.023438 62.125 51.753906 62.292969 C 51.1875 62.574219 50.621094 62.882812 49.992188 63.089844 C 48.765625 63.550781 47.425781 63.859375 46.042969 63.964844 C 44.664062 64.082031 43.246094 64.054688 41.835938 63.878906 C 40.429688 63.6875 39.039062 63.378906 37.675781 62.980469 C 34.949219 62.179688 32.375 61.101562 30.070312 59.949219 C 27.765625 58.796875 25.710938 57.605469 24.046875 56.5 C 23.214844 55.941406 22.476562 55.40625 21.84375 54.917969 C 21.210938 54.417969 20.695312 53.957031 20.253906 53.59375 C 19.839844 53.207031 19.511719 52.898438 19.292969 52.691406 C 19.070312 52.484375 18.957031 52.371094 18.957031 52.371094 C 18.957031 52.371094 18.84375 52.253906 18.636719 52.035156 C 18.429688 51.8125 18.113281 51.5 17.734375 51.078125 C 16.988281 50.210938 15.914062 48.96875 14.828125 47.300781 C 13.734375 45.640625 12.597656 43.578125 11.664062 41.207031 C 10.730469 38.839844 10.03125 36.15625 9.691406 33.367188 C 9.671875 33.191406 9.644531 33.015625 9.625 32.84375 L 9.589844 32.316406 C 9.5625 31.964844 9.535156 31.613281 9.507812 31.257812 C 9.496094 30.550781 9.457031 29.84375 9.496094 29.136719 C 9.519531 27.71875 9.679688 26.3125 9.921875 24.941406 C 10.152344 23.566406 10.527344 22.242188 10.945312 20.980469 C 11.058594 20.667969 11.171875 20.355469 11.28125 20.046875 C 11.390625 19.738281 11.535156 19.445312 11.660156 19.148438 C 11.898438 18.550781 12.199219 17.992188 12.472656 17.4375 C 12.609375 17.160156 12.777344 16.90625 12.925781 16.640625 C 13.082031 16.382812 13.214844 16.117188 13.386719 15.875 C 13.550781 15.632812 13.710938 15.394531 13.871094 15.15625 C 13.953125 15.039062 14.023438 14.917969 14.113281 14.804688 C 14.179688 14.71875 14.246094 14.632812 14.3125 14.546875 C 14.453125 14.367188 14.582031 14.195312 14.703125 14.042969 C 14.933594 13.726562 15.152344 13.503906 15.289062 13.34375 C 16.296875 12.171875 16.839844 11.492188 17.648438 10.382812 C 16.425781 10.972656 15.574219 11.445312 14.503906 12.664062 C 14.359375 12.828125 14.125 13.066406 13.882812 13.394531 C 13.757812 13.554688 13.621094 13.734375 13.476562 13.921875 C 13.40625 14.015625 13.335938 14.105469 13.265625 14.195312 C 13.171875 14.3125 13.097656 14.4375 13.011719 14.5625 C 12.84375 14.808594 12.675781 15.0625 12.503906 15.316406 C 12.324219 15.570312 12.183594 15.847656 12.019531 16.117188 C 11.867188 16.390625 11.691406 16.660156 11.550781 16.949219 C 11.261719 17.527344 10.949219 18.109375 10.699219 18.734375 C 10.570312 19.042969 10.421875 19.347656 10.308594 19.671875 C 10.191406 19.992188 10.074219 20.3125 9.953125 20.640625 C 9.519531 21.953125 9.128906 23.328125 8.894531 24.753906 C 8.640625 26.175781 8.476562 27.632812 8.449219 29.101562 C 8.410156 29.835938 8.453125 30.570312 8.464844 31.300781 C 8.492188 31.667969 8.519531 32.03125 8.546875 32.394531 L 8.589844 32.941406 C 8.605469 33.121094 8.632812 33.300781 8.65625 33.480469 C 9.007812 36.363281 9.730469 39.132812 10.695312 41.578125 C 11.660156 44.023438 12.832031 46.148438 13.957031 47.863281 C 15.082031 49.585938 16.191406 50.867188 16.957031 51.757812 C 17.355469 52.195312 17.679688 52.523438 17.894531 52.75 C 18.109375 52.976562 18.222656 53.097656 18.222656 53.097656 C 18.222656 53.097656 18.339844 53.214844 18.570312 53.429688 C 18.796875 53.644531 19.132812 53.957031 19.5625 54.363281 C 20.019531 54.738281 20.554688 55.214844 21.203125 55.726562 C 21.859375 56.238281 22.617188 56.785156 23.472656 57.355469 C 25.179688 58.492188 27.261719 59.703125 29.609375 60.875 C 31.953125 62.046875 34.585938 63.152344 37.386719 63.972656 C 38.78125 64.382812 40.238281 64.710938 41.710938 64.910156 C 43.1875 65.089844 44.679688 65.121094 46.144531 65 C 47.609375 64.886719 49.042969 64.558594 50.367188 64.0625 C 51.039062 63.835938 51.65625 63.503906 52.269531 63.195312 C 52.5625 63.015625 52.851562 62.835938 53.140625 62.660156 C 53.289062 62.574219 53.421875 62.472656 53.550781 62.371094 C 53.664062 62.28125 53.777344 62.195312 53.886719 62.109375 C 54.097656 61.9375 54.320312 61.792969 54.492188 61.621094 C 54.667969 61.449219 54.832031 61.292969 54.984375 61.148438 C 55.132812 61 55.265625 60.871094 55.382812 60.757812 C 55.488281 60.628906 55.578125 60.523438 55.648438 60.4375 C 55.90625 60.113281 56.148438 59.835938 56.324219 59.542969 C 56.492188 59.25 56.636719 58.96875 56.765625 58.695312 C 56.90625 58.425781 56.988281 58.136719 57.070312 57.839844 C 57.113281 57.695312 57.152344 57.546875 57.1875 57.394531 C 57.191406 57.382812 57.195312 57.375 57.195312 57.363281 C 57.234375 57.21875 57.269531 57.066406 57.304688 56.910156 C 57.242188 56.984375 57.179688 57.058594 57.117188 57.125 C 57.078125 57.046875 57.027344 56.949219 56.976562 56.855469 C 56.878906 56.6875 56.773438 56.539062 56.773438 56.539062 C 56.773438 56.539062 56.679688 56.390625 56.558594 56.234375 C 56.464844 56.109375 56.351562 55.980469 56.289062 55.90625 C 56.230469 55.710938 56.125 55.5625 55.933594 55.457031 C 55.773438 55.359375 55.261719 55.121094 54.78125 54.964844 C 54.304688 54.804688 53.863281 54.703125 53.863281 54.703125 C 53.863281 54.703125 53.675781 54.65625 53.410156 54.601562 C 56.019531 54.148438 58.597656 53.277344 60.917969 52.066406 C 62.199219 51.398438 63.402344 50.632812 64.5 49.796875 C 65.050781 49.378906 65.574219 48.9375 66.070312 48.492188 C 66.3125 48.261719 66.554688 48.035156 66.792969 47.8125 C 67.007812 47.589844 67.214844 47.375 67.425781 47.160156 C 67.796875 46.773438 68.121094 46.378906 68.363281 46.011719 C 68.605469 45.644531 68.757812 45.300781 68.835938 45.0625 "/>
</g>
</g>
</g>
</g>
</g>
</g>
</svg>
