<?xml version="1.0" encoding="UTF-8"?>
<svg xmlns="http://www.w3.org/2000/svg" xmlns:xlink="http://www.w3.org/1999/xlink" width="75pt" height="74.999997pt" viewBox="0 0 75 74.999997" version="1.2">
<defs>
<clipPath id="clip1">
  <path d="M 0.484375 6 L 74.734375 6 L 74.734375 68.992188 L 0.484375 68.992188 Z M 0.484375 6 "/>
</clipPath>
<clipPath id="clip2">
  <path d="M 39.507812 4.070312 L 64.921875 4.070312 L 64.921875 37.464844 L 39.507812 37.464844 Z M 39.507812 4.070312 "/>
</clipPath>
<clipPath id="clip3">
  <path d="M 13.078125 36.460938 L 58.320312 36.460938 L 58.320312 71.21875 L 13.078125 71.21875 Z M 13.078125 36.460938 "/>
</clipPath>
<clipPath id="clip4">
  <path d="M 10.179688 3.75 L 64.929688 3.75 L 64.929688 71 L 10.179688 71 Z M 10.179688 3.75 "/>
</clipPath>
</defs>
<g id="surface1">
<g clip-path="url(#clip1)" clip-rule="nonzero">
<path style=" stroke:none;fill-rule:nonzero;fill:rgb(96.469116%,81.568909%,76.858521%);fill-opacity:1;" d="M 42.640625 6.097656 C 42.390625 6.097656 42.140625 6.097656 41.890625 6.097656 L 41.691406 6.097656 C 40.839844 6.148438 40.136719 6.199219 39.4375 6.296875 C 38.335938 6.449219 37.335938 6.546875 36.382812 6.648438 C 36.234375 6.648438 36.082031 6.699219 35.933594 6.699219 L 35.882812 6.699219 C 35.480469 6.746094 35.082031 6.796875 34.679688 6.847656 C 34.429688 6.898438 34.179688 6.898438 33.929688 6.945312 C 33.730469 6.996094 33.480469 6.996094 33.277344 7.046875 L 33.230469 7.046875 C 32.578125 7.144531 31.828125 7.195312 31.125 7.296875 C 30.625 7.347656 30.125 7.394531 29.574219 7.445312 L 29.375 7.445312 C 29.171875 7.445312 28.921875 7.496094 28.722656 7.496094 C 28.273438 7.546875 27.769531 7.59375 27.320312 7.644531 C 27.019531 7.695312 26.769531 7.695312 26.46875 7.746094 C 26.070312 7.796875 25.667969 7.84375 25.269531 7.84375 C 24.867188 7.894531 24.515625 7.894531 24.117188 7.945312 C 24.015625 7.945312 23.917969 7.945312 23.765625 7.996094 C 23.566406 7.996094 23.316406 8.042969 23.066406 8.042969 C 22.714844 8.09375 22.414062 8.144531 22.0625 8.195312 L 21.8125 8.246094 C 20.960938 8.34375 20.160156 8.542969 19.511719 8.695312 C 18.808594 8.84375 18.109375 9.042969 17.40625 9.242188 C 16.757812 9.441406 16.105469 9.691406 15.355469 10.042969 C 15.003906 10.191406 14.652344 10.339844 14.304688 10.492188 C 13.953125 10.640625 13.601562 10.839844 13.300781 11.039062 C 12.550781 11.539062 11.949219 11.988281 11.449219 12.4375 C 10.949219 12.886719 10.398438 13.433594 9.898438 14.035156 C 9.546875 14.433594 9.195312 14.882812 8.847656 15.332031 C 8.796875 15.332031 8.746094 15.332031 8.644531 15.332031 C 8.394531 15.382812 8.246094 15.628906 8.09375 15.832031 L 8.042969 15.878906 C 7.996094 15.929688 7.945312 16.03125 7.894531 16.078125 L 7.894531 16.128906 C 7.84375 16.179688 7.792969 16.28125 7.746094 16.328125 C 7.644531 16.480469 7.542969 16.628906 7.445312 16.777344 L 7.445312 16.828125 L 7.492188 16.878906 C 7.394531 17.027344 7.34375 17.128906 7.242188 17.277344 C 7.09375 17.527344 6.84375 17.875 6.59375 18.226562 L 6.441406 18.476562 C 6.292969 18.675781 6.191406 18.875 6.042969 19.074219 C 5.890625 19.324219 5.792969 19.523438 5.640625 19.773438 L 5.542969 19.972656 C 5.441406 20.121094 5.390625 20.273438 5.289062 20.421875 L 5.242188 20.523438 C 5.191406 20.621094 5.140625 20.769531 5.039062 20.871094 C 4.738281 21.46875 4.390625 22.167969 4.039062 22.867188 C 3.738281 23.464844 3.539062 24.113281 3.289062 24.863281 C 3.089844 25.414062 2.886719 25.960938 2.6875 26.460938 L 2.636719 26.511719 C 2.285156 27.210938 1.988281 27.808594 1.734375 28.40625 C 1.386719 29.15625 1.136719 29.855469 0.933594 30.503906 C 0.835938 30.851562 0.785156 31.203125 0.683594 31.601562 L 0.683594 31.75 C 0.632812 32.148438 0.585938 32.5 0.535156 32.898438 C 0.484375 33.597656 0.535156 34.394531 0.683594 35.34375 C 0.785156 36.042969 0.886719 36.742188 1.035156 37.492188 C 1.183594 38.140625 1.335938 38.789062 1.585938 39.535156 C 1.734375 40.136719 1.9375 40.683594 2.085938 41.285156 L 2.136719 41.53125 L 2.1875 41.78125 C 2.386719 42.53125 2.636719 43.230469 2.789062 43.929688 C 2.988281 44.675781 3.1875 45.476562 3.339844 46.175781 C 3.488281 46.921875 3.640625 47.570312 3.890625 48.269531 C 4.140625 49.117188 4.390625 49.816406 4.589844 50.464844 C 5.089844 51.8125 5.691406 53.210938 6.492188 54.660156 C 6.644531 54.957031 6.84375 55.257812 7.042969 55.507812 L 7.09375 55.605469 C 7.292969 55.855469 7.492188 56.105469 7.644531 56.355469 L 7.792969 56.554688 C 8.195312 57.105469 8.746094 57.703125 9.296875 58.253906 C 9.597656 58.550781 9.847656 58.800781 10.148438 59.050781 C 10.449219 59.300781 10.75 59.550781 11.148438 59.847656 C 11.398438 60.050781 11.699219 60.199219 11.949219 60.398438 L 12.050781 60.449219 C 12.402344 60.648438 12.75 60.847656 13.101562 61.046875 C 13.851562 61.496094 14.503906 61.894531 15.105469 62.246094 C 15.65625 62.59375 16.304688 62.992188 17.007812 63.34375 C 17.355469 63.492188 17.707031 63.691406 18.058594 63.84375 C 18.308594 63.941406 18.507812 64.042969 18.757812 64.140625 C 19.257812 64.390625 19.808594 64.640625 20.359375 64.890625 L 20.460938 64.941406 L 20.511719 64.988281 C 21.8125 65.589844 22.964844 66.085938 24.066406 66.535156 L 24.265625 66.636719 L 24.367188 66.6875 C 24.617188 66.785156 24.867188 66.886719 25.117188 66.984375 C 25.46875 67.136719 25.820312 67.234375 26.21875 67.386719 C 26.71875 67.585938 27.269531 67.734375 27.769531 67.882812 L 27.871094 67.933594 C 27.972656 67.984375 28.121094 67.984375 28.222656 68.035156 C 28.371094 68.085938 28.523438 68.132812 28.671875 68.183594 C 29.222656 68.332031 29.824219 68.535156 30.425781 68.632812 C 30.875 68.734375 31.277344 68.78125 31.726562 68.78125 C 32.128906 68.832031 32.476562 68.832031 32.828125 68.832031 C 33.277344 68.832031 33.78125 68.882812 34.28125 68.882812 C 34.328125 68.882812 34.429688 68.882812 34.480469 68.882812 C 34.878906 68.882812 35.28125 68.882812 35.683594 68.832031 C 36.03125 68.832031 36.484375 68.78125 36.984375 68.734375 C 37.585938 68.683594 38.085938 68.582031 38.585938 68.535156 C 38.9375 68.484375 39.285156 68.433594 39.636719 68.382812 L 39.738281 68.382812 C 40.1875 68.332031 40.636719 68.285156 41.089844 68.234375 C 41.339844 68.183594 41.589844 68.183594 41.839844 68.132812 L 41.992188 68.132812 C 42.492188 68.085938 42.992188 67.984375 43.441406 67.933594 C 43.941406 67.882812 44.492188 67.785156 44.996094 67.683594 C 45.246094 67.636719 45.496094 67.585938 45.746094 67.535156 C 46.144531 67.484375 46.546875 67.386719 46.945312 67.335938 C 48 67.1875 49.148438 66.984375 50.203125 66.785156 C 50.652344 66.6875 51.050781 66.636719 51.503906 66.488281 C 51.804688 66.4375 52.152344 66.335938 52.453125 66.289062 C 52.855469 66.1875 53.253906 66.136719 53.707031 66.039062 C 54.054688 65.988281 54.40625 65.9375 54.707031 65.839844 C 55.609375 65.636719 56.308594 65.488281 56.910156 65.289062 C 57.261719 65.191406 57.613281 65.089844 57.960938 64.941406 C 58.3125 64.789062 58.710938 64.691406 59.113281 64.492188 C 59.464844 64.339844 59.8125 64.191406 60.113281 63.941406 C 60.464844 63.691406 60.816406 63.441406 61.167969 63.191406 L 61.265625 63.09375 C 61.515625 62.894531 61.765625 62.695312 61.96875 62.496094 C 62.269531 62.195312 62.566406 61.894531 62.820312 61.644531 C 63.320312 61.148438 63.820312 60.546875 64.371094 59.800781 C 64.621094 59.5 64.871094 59.152344 65.121094 58.75 C 65.171875 58.652344 65.273438 58.550781 65.320312 58.402344 L 65.320312 58.351562 C 65.371094 58.300781 65.371094 58.253906 65.421875 58.203125 C 65.523438 58.050781 65.621094 57.902344 65.671875 57.753906 C 65.972656 57.253906 66.222656 56.753906 66.472656 56.257812 L 66.472656 56.207031 C 66.574219 56.007812 66.671875 55.808594 66.824219 55.605469 C 67.125 55.007812 67.425781 54.410156 67.726562 53.808594 L 67.875 53.5625 C 68.527344 52.214844 69.125 50.714844 69.578125 49.117188 C 69.675781 48.71875 69.777344 48.320312 69.878906 47.921875 L 69.878906 47.871094 C 69.976562 47.570312 70.027344 47.273438 70.128906 46.921875 C 70.226562 46.625 70.328125 46.273438 70.429688 45.976562 L 70.429688 45.925781 L 70.480469 45.824219 C 70.578125 45.574219 70.679688 45.324219 70.730469 45.027344 C 70.777344 44.925781 70.828125 44.828125 70.828125 44.726562 C 70.929688 44.378906 71.078125 44.078125 71.230469 43.730469 L 71.230469 43.679688 C 71.378906 43.328125 71.53125 42.929688 71.679688 42.582031 C 71.929688 41.882812 72.179688 41.132812 72.429688 40.386719 C 72.78125 39.1875 73.28125 37.640625 73.632812 35.992188 C 73.832031 35.246094 73.984375 34.546875 74.132812 33.796875 C 74.234375 33.097656 74.382812 32.351562 74.484375 31.550781 C 74.585938 30.652344 74.734375 29.703125 74.632812 28.804688 C 74.535156 27.910156 74.234375 27.058594 73.933594 26.359375 C 73.882812 26.261719 73.832031 26.113281 73.78125 25.960938 C 73.78125 25.910156 73.734375 25.863281 73.734375 25.8125 L 73.734375 25.761719 C 73.683594 25.664062 73.683594 25.5625 73.632812 25.460938 C 73.582031 25.3125 73.484375 25.164062 73.433594 25.011719 L 73.382812 24.914062 L 73.332031 24.8125 C 73.183594 24.464844 73.03125 24.164062 72.832031 23.867188 C 72.632812 23.515625 72.429688 23.21875 72.230469 22.96875 C 71.929688 22.617188 71.679688 22.269531 71.429688 22.019531 C 71.03125 21.621094 70.679688 21.171875 70.277344 20.769531 L 70.179688 20.621094 L 69.976562 20.371094 C 69.527344 19.824219 69.027344 19.273438 68.527344 18.773438 C 68.226562 18.476562 68.027344 18.226562 67.773438 18.027344 C 67.675781 17.925781 67.574219 17.828125 67.476562 17.726562 L 67.425781 17.675781 C 67.273438 17.527344 67.175781 17.425781 67.023438 17.277344 C 66.972656 17.226562 66.925781 17.179688 66.925781 17.179688 C 66.824219 17.078125 66.773438 17.027344 66.671875 16.929688 C 66.523438 16.828125 66.421875 16.679688 66.273438 16.578125 L 66.222656 16.527344 C 65.972656 16.328125 65.722656 16.128906 65.523438 15.980469 C 65.472656 15.929688 65.371094 15.878906 65.320312 15.832031 L 65.273438 15.78125 C 65.222656 15.730469 65.121094 15.679688 65.070312 15.628906 C 64.21875 14.980469 63.519531 14.433594 62.867188 13.984375 C 62.769531 13.882812 62.617188 13.785156 62.519531 13.734375 C 62.269531 13.585938 62.015625 13.386719 61.765625 13.183594 C 61.464844 12.984375 61.167969 12.785156 60.816406 12.488281 C 60.664062 12.386719 60.515625 12.238281 60.414062 12.136719 C 60.214844 11.988281 60.066406 11.835938 59.863281 11.6875 C 59.515625 11.4375 59.164062 11.238281 58.761719 11.039062 C 58.5625 10.941406 58.363281 10.839844 58.164062 10.738281 L 58.0625 10.691406 C 57.863281 10.589844 57.710938 10.492188 57.511719 10.441406 C 57.109375 10.242188 56.710938 10.042969 56.308594 9.890625 L 56.210938 9.839844 C 55.808594 9.691406 55.457031 9.542969 55.15625 9.390625 C 55.058594 9.34375 54.90625 9.292969 54.808594 9.242188 L 54.757812 9.242188 C 54.507812 9.144531 54.308594 9.042969 54.105469 8.992188 C 53.757812 8.894531 53.457031 8.792969 53.105469 8.644531 C 52.804688 8.542969 52.453125 8.445312 52.152344 8.34375 C 52.054688 8.292969 51.902344 8.246094 51.804688 8.246094 L 51.753906 8.246094 C 51.554688 8.195312 51.351562 8.144531 51.203125 8.042969 C 51.050781 7.996094 50.902344 7.945312 50.753906 7.894531 C 50.601562 7.84375 50.402344 7.796875 50.25 7.695312 C 49.652344 7.496094 48.949219 7.246094 48.25 7.046875 L 48.148438 7.046875 C 47.398438 6.847656 46.746094 6.648438 46.046875 6.496094 C 45.292969 6.296875 44.492188 6.199219 43.691406 6.148438 C 43.242188 6.148438 42.890625 6.097656 42.542969 6.097656 C 42.742188 6.097656 42.691406 6.097656 42.640625 6.097656 "/>
</g>
<g clip-path="url(#clip2)" clip-rule="nonzero">
<path style=" stroke:none;fill-rule:nonzero;fill:rgb(74.119568%,87.449646%,57.649231%);fill-opacity:1;" d="M 49.296875 26.308594 C 49.347656 26.34375 49.402344 26.378906 49.460938 26.410156 C 49.5 26.566406 49.53125 26.710938 49.5625 26.839844 C 49.46875 26.667969 49.382812 26.488281 49.296875 26.308594 Z M 52.613281 27.964844 L 52.847656 27.902344 C 52.761719 27.941406 52.679688 27.980469 52.601562 28.019531 C 52.605469 28.003906 52.609375 27.984375 52.613281 27.964844 Z M 51.324219 21.808594 C 51.335938 21.804688 51.34375 21.800781 51.351562 21.796875 C 51.472656 21.746094 51.585938 21.703125 51.585938 21.703125 C 51.585938 21.703125 51.703125 21.671875 51.832031 21.636719 C 51.863281 21.628906 51.894531 21.621094 51.925781 21.613281 C 51.96875 21.695312 52.007812 21.773438 52.050781 21.851562 C 52.039062 21.867188 52.027344 21.886719 52.015625 21.902344 C 51.976562 21.859375 51.9375 21.839844 51.894531 21.839844 C 51.8125 21.84375 51.59375 21.882812 51.367188 21.9375 C 51.351562 21.894531 51.339844 21.851562 51.324219 21.808594 Z M 50.078125 18.089844 C 50.097656 18.152344 50.125 18.21875 50.15625 18.28125 C 50.140625 18.289062 50.125 18.292969 50.113281 18.296875 C 50.082031 18.214844 50.050781 18.128906 50.019531 18.039062 C 50.039062 18.058594 50.058594 18.074219 50.078125 18.089844 Z M 64.789062 32.085938 C 64.714844 31.574219 64.617188 31.117188 64.617188 31.117188 C 64.617188 31.117188 64.535156 30.660156 64.414062 30.160156 C 64.296875 29.660156 64.132812 29.121094 64.0625 28.949219 C 63.996094 28.773438 63.792969 28.683594 63.460938 28.652344 C 63.265625 27.632812 63.007812 26.867188 63.007812 26.867188 C 63.007812 26.867188 62.910156 26.550781 62.734375 26.066406 C 62.554688 25.585938 62.277344 24.9375 61.964844 24.320312 C 61.652344 23.703125 61.324219 23.097656 61.066406 22.601562 C 60.808594 22.105469 60.621094 21.714844 60.53125 21.519531 C 60.199219 20.800781 59.597656 20.644531 58.496094 20.117188 C 58.484375 20.128906 58.476562 20.140625 58.464844 20.152344 C 58.269531 20.082031 58.046875 20.035156 57.792969 20.007812 C 57.703125 19.847656 57.625 19.703125 57.554688 19.589844 C 57.40625 19.355469 57.324219 19.222656 57.324219 19.222656 C 57.324219 19.222656 57.003906 18.679688 56.421875 17.894531 C 55.851562 17.105469 54.996094 16.113281 54.050781 15.167969 C 53.105469 14.21875 52.078125 13.304688 51.21875 12.554688 C 50.359375 11.8125 49.652344 11.203125 49.300781 10.898438 C 48.929688 10.585938 48.578125 10.34375 48.226562 10.148438 C 47.910156 9.769531 47.601562 9.433594 47.46875 9.3125 C 47.214844 9.074219 46.796875 9.164062 46.148438 9.460938 C 46.105469 9.453125 46.0625 9.445312 46.015625 9.441406 C 45.953125 9.144531 45.871094 8.839844 45.769531 8.542969 C 45.589844 8.011719 45.320312 7.550781 45.148438 7.316406 L 44.007812 5.785156 L 43.914062 5.890625 C 43.820312 5.628906 43.558594 5.265625 43.160156 4.800781 C 42.273438 4.375 41.816406 4.105469 41.675781 4.230469 C 41.597656 4.296875 41.390625 4.511719 41.175781 4.695312 C 40.964844 4.875 40.757812 5.023438 40.757812 5.023438 C 40.757812 5.023438 40.546875 5.164062 40.300781 5.292969 C 40.054688 5.425781 39.777344 5.542969 39.6875 5.589844 C 39.519531 5.679688 39.605469 6.199219 39.6875 7.179688 C 40.152344 8.039062 40.496094 8.476562 40.78125 8.390625 C 40.933594 8.347656 41.375 8.160156 41.757812 7.945312 C 42.140625 7.734375 42.464844 7.503906 42.464844 7.503906 C 42.464844 7.503906 42.511719 7.472656 42.589844 7.417969 C 42.273438 7.894531 42.253906 8.390625 42.417969 8.792969 C 42.503906 9.007812 42.648438 9.203125 42.835938 9.363281 C 42.859375 9.414062 42.878906 9.472656 42.902344 9.535156 C 42.9375 9.632812 42.972656 9.75 43.003906 9.878906 C 42.527344 10.84375 42.328125 11.695312 42.5 12.898438 C 42.617188 13.742188 43.0625 16.265625 43.628906 18.539062 C 44.183594 20.820312 44.828125 22.851562 44.828125 22.851562 C 44.828125 22.851562 44.992188 23.363281 45.242188 24.148438 C 45.496094 24.933594 45.859375 26.015625 46.351562 27.148438 C 46.839844 28.28125 47.5 29.460938 48.226562 30.378906 C 48.59375 30.84375 48.9375 31.226562 49.296875 31.5625 C 49.648438 31.886719 49.960938 32.117188 50.175781 32.265625 C 50.972656 32.800781 51.796875 33 52.578125 32.910156 C 52.964844 32.863281 53.34375 32.734375 53.683594 32.535156 C 54.023438 32.332031 54.320312 32.050781 54.53125 31.710938 C 53.972656 31.546875 53.621094 31.289062 53.339844 31.039062 C 53.570312 30.925781 54.0625 30.667969 54.53125 30.457031 C 54.792969 30.335938 55.507812 31.132812 55.246094 31.21875 C 54.582031 31.949219 54.328125 32.496094 54.59375 32.816406 C 54.734375 32.988281 55.222656 33.457031 55.742188 33.769531 C 55.996094 33.929688 56.257812 34.054688 56.449219 34.140625 C 56.644531 34.222656 56.769531 34.273438 56.769531 34.273438 C 56.769531 34.273438 56.898438 34.320312 57.097656 34.394531 C 57.300781 34.457031 57.574219 34.542969 57.875 34.59375 C 57.988281 34.617188 58.109375 34.632812 58.226562 34.648438 C 58.199219 34.742188 58.171875 34.835938 58.136719 34.9375 C 58.371094 35.90625 58.777344 36.417969 59.261719 36.328125 C 59.4375 36.304688 59.835938 36.1875 60.253906 35.984375 C 60.675781 36.714844 60.921875 37.101562 61.054688 37.070312 C 61.101562 37.058594 61.199219 37.023438 61.3125 36.976562 C 61.527344 37.324219 61.699219 37.488281 61.839844 37.453125 C 61.960938 37.421875 62.308594 37.285156 62.617188 37.132812 C 62.925781 36.984375 63.191406 36.824219 63.191406 36.824219 C 63.191406 36.824219 63.464844 36.675781 63.75 36.484375 C 64.035156 36.296875 64.328125 36.0625 64.417969 35.976562 C 64.578125 35.808594 64.339844 35.324219 63.800781 34.519531 C 64 34.507812 64.160156 34.460938 64.304688 34.398438 C 64.503906 34.308594 64.664062 34.179688 64.78125 33.960938 C 64.8125 33.90625 64.835938 33.847656 64.855469 33.773438 C 64.875 33.707031 64.894531 33.625 64.898438 33.53125 C 64.90625 33.410156 64.910156 33.429688 64.914062 33.398438 C 64.917969 33.378906 64.921875 33.359375 64.921875 33.335938 C 64.917969 33.148438 64.867188 32.589844 64.789062 32.085938 "/>
</g>
<g clip-path="url(#clip3)" clip-rule="nonzero">
<path style=" stroke:none;fill-rule:nonzero;fill:rgb(100%,67.059326%,62.348938%);fill-opacity:1;" d="M 55.097656 46.523438 C 55.046875 47.078125 54.9375 47.601562 54.839844 47.976562 C 54.792969 48.167969 54.742188 48.320312 54.707031 48.429688 C 54.671875 48.535156 54.65625 48.59375 54.65625 48.59375 C 54.65625 48.59375 54.632812 48.652344 54.59375 48.757812 C 54.554688 48.863281 54.496094 49.011719 54.414062 49.191406 C 54.257812 49.546875 54.015625 50.023438 53.707031 50.488281 C 53.398438 50.957031 53.027344 51.410156 52.6875 51.773438 C 52.347656 52.132812 52.039062 52.398438 51.886719 52.53125 C 51.574219 52.804688 51.429688 53.125 51.328125 53.558594 C 50.976562 53.464844 50.75 53.453125 50.605469 53.589844 C 50.484375 53.699219 50.167969 54.015625 49.820312 54.308594 C 49.601562 54.058594 49.417969 53.894531 49.257812 53.824219 C 49.261719 53.8125 49.269531 53.800781 49.273438 53.789062 C 49.433594 53.382812 49.539062 53.121094 49.539062 53.121094 C 49.539062 53.121094 51.246094 48.9375 51.558594 48.089844 C 51.65625 47.824219 51.683594 47.570312 51.648438 47.3125 C 52.230469 46.554688 52.777344 45.832031 53.214844 45.226562 C 54.082031 45.042969 54.546875 44.925781 54.558594 44.800781 C 54.570312 44.660156 54.472656 43.972656 54.472656 43.972656 C 54.472656 43.972656 54.457031 43.671875 54.429688 43.425781 C 54.460938 43.375 54.5 43.316406 54.539062 43.25 C 54.601562 43.136719 54.679688 43 54.761719 42.839844 C 54.808594 42.921875 54.847656 42.988281 54.867188 43.027344 C 54.890625 43.066406 54.929688 43.09375 54.976562 43.109375 C 54.917969 43.332031 54.90625 43.550781 54.949219 43.792969 C 54.988281 43.992188 55.058594 44.390625 55.101562 44.886719 C 55.144531 45.378906 55.148438 45.964844 55.097656 46.523438 Z M 32.65625 63.769531 C 32.152344 64.433594 31.550781 65.035156 31.09375 65.46875 C 30.933594 65.613281 30.796875 65.738281 30.679688 65.839844 C 30.816406 65.675781 30.949219 65.511719 31.085938 65.34375 C 31.949219 64.277344 32.734375 63.304688 32.734375 63.304688 C 32.734375 63.304688 32.933594 63.054688 33.242188 62.671875 C 33.335938 62.550781 33.441406 62.417969 33.554688 62.273438 C 33.332031 62.78125 33.042969 63.277344 32.65625 63.769531 Z M 35.820312 52.078125 C 35.898438 52.246094 35.980469 52.414062 36.066406 52.585938 C 35.957031 52.492188 35.84375 52.394531 35.730469 52.285156 C 35.707031 52.261719 35.683594 52.238281 35.660156 52.214844 C 35.714844 52.171875 35.765625 52.125 35.820312 52.078125 Z M 50.816406 43.257812 C 50.765625 43.328125 50.710938 43.402344 50.65625 43.476562 C 50.640625 43.445312 50.625 43.414062 50.609375 43.382812 C 50.625 43.359375 50.640625 43.335938 50.65625 43.316406 C 50.894531 43.007812 51.113281 42.765625 51.292969 42.582031 C 51.160156 42.769531 51.003906 43 50.816406 43.257812 Z M 26.027344 67.269531 C 26.050781 67.265625 26.078125 67.261719 26.105469 67.257812 C 26.105469 67.507812 26.132812 67.78125 26.171875 68.085938 C 26.011719 68.074219 25.847656 68.058594 25.695312 68.035156 C 25.652344 68.027344 25.613281 68.023438 25.570312 68.015625 C 25.742188 67.742188 25.898438 67.484375 26.027344 67.269531 Z M 44.351562 44.242188 C 44.363281 44.234375 44.375 44.230469 44.386719 44.226562 C 44.359375 44.277344 44.332031 44.328125 44.308594 44.378906 C 43.914062 45.15625 43.578125 45.914062 43.347656 46.476562 C 43.113281 47.050781 42.976562 47.4375 42.976562 47.4375 C 42.976562 47.4375 42.910156 47.609375 42.8125 47.910156 C 42.796875 47.75 42.785156 47.605469 42.769531 47.546875 C 42.734375 47.410156 42.289062 47.363281 41.464844 47.320312 C 41.5 47.210938 41.523438 47.144531 41.523438 47.144531 C 41.523438 47.144531 41.78125 46.472656 42.058594 45.730469 C 42.15625 45.480469 42.257812 45.21875 42.351562 44.972656 C 42.417969 44.933594 42.457031 44.914062 42.457031 44.914062 C 42.457031 44.914062 42.835938 44.726562 43.269531 44.570312 C 43.703125 44.40625 44.191406 44.289062 44.351562 44.242188 Z M 21.539062 59.695312 C 21.539062 59.710938 21.535156 59.726562 21.535156 59.742188 C 21.53125 59.742188 21.53125 59.742188 21.53125 59.746094 C 21.53125 59.730469 21.535156 59.710938 21.539062 59.695312 Z M 23.964844 61.191406 C 23.964844 61.191406 23.964844 61.199219 23.960938 61.199219 C 23.960938 61.199219 23.960938 61.195312 23.960938 61.191406 Z M 21.835938 58.660156 C 21.871094 58.660156 21.902344 58.660156 21.941406 58.65625 C 21.929688 58.734375 21.921875 58.8125 21.917969 58.894531 C 21.902344 58.910156 21.886719 58.925781 21.875 58.941406 C 21.75 59.078125 21.660156 59.226562 21.605469 59.386719 C 21.628906 59.300781 21.652344 59.210938 21.679688 59.121094 C 21.722656 58.96875 21.777344 58.816406 21.835938 58.660156 Z M 25.574219 59.617188 C 25.605469 59.625 25.636719 59.636719 25.667969 59.648438 C 25.621094 59.652344 25.578125 59.652344 25.535156 59.65625 C 25.546875 59.644531 25.5625 59.628906 25.574219 59.617188 Z M 23.125 56.996094 C 23.058594 57.039062 23 57.078125 22.945312 57.117188 C 22.9375 57.117188 22.929688 57.117188 22.925781 57.117188 C 22.992188 57.074219 23.058594 57.035156 23.125 56.996094 Z M 26.839844 60.144531 C 26.695312 60.050781 26.515625 59.957031 26.300781 59.851562 C 26.546875 59.820312 26.765625 59.796875 26.957031 59.765625 C 26.910156 59.894531 26.871094 60.019531 26.839844 60.144531 Z M 42.148438 50.851562 C 42.117188 51.136719 42.097656 51.425781 42.089844 51.71875 C 42.011719 51.683594 41.929688 51.648438 41.84375 51.613281 C 41.628906 51.496094 41.390625 51.378906 41.152344 51.246094 C 41.058594 51.183594 40.960938 51.125 40.863281 51.0625 C 40.804688 50.972656 40.746094 50.882812 40.6875 50.792969 C 40.660156 50.714844 40.621094 50.644531 40.566406 50.582031 C 40.554688 50.570312 40.542969 50.554688 40.527344 50.539062 C 40.515625 50.523438 40.507812 50.503906 40.496094 50.488281 C 40.519531 50.441406 40.542969 50.394531 40.554688 50.34375 C 40.578125 50.265625 40.609375 50.144531 40.648438 49.992188 C 40.867188 50.007812 41.125 50.023438 41.425781 50.039062 C 41.777344 49.960938 42.066406 49.898438 42.300781 49.835938 C 42.238281 50.15625 42.183594 50.5 42.148438 50.851562 Z M 58.203125 44.621094 C 58.144531 43.960938 58.035156 43.421875 57.972656 43.15625 C 57.871094 42.738281 57.679688 42.417969 57.398438 42.167969 C 57.597656 41.941406 57.675781 41.757812 57.609375 41.609375 C 57.542969 41.453125 57.300781 41 57.054688 40.601562 C 56.808594 40.199219 56.5625 39.851562 56.5625 39.851562 C 56.5625 39.851562 56.328125 39.492188 56.046875 39.117188 C 55.769531 38.738281 55.4375 38.347656 55.316406 38.226562 C 55.222656 38.132812 55.070312 38.117188 54.863281 38.171875 C 54.8125 38.09375 54.757812 38.023438 54.703125 37.949219 C 54.3125 37.472656 53.796875 37.128906 53.289062 36.917969 C 52.273438 36.488281 51.246094 36.515625 50.367188 36.671875 C 49.46875 36.832031 48.6875 37.191406 48.054688 37.566406 C 46.90625 38.257812 46.179688 38.984375 45.765625 39.40625 C 45.414062 39.078125 44.988281 38.773438 44.496094 38.542969 C 43.929688 38.273438 43.316406 38.117188 42.710938 38.070312 C 41.503906 37.957031 40.367188 38.300781 39.609375 38.738281 C 39.546875 38.773438 39.488281 38.808594 39.433594 38.847656 C 39.042969 38.660156 38.59375 38.53125 38.054688 38.480469 C 37.800781 38.460938 37.414062 38.4375 36.929688 38.464844 C 36.4375 38.492188 35.859375 38.582031 35.238281 38.765625 C 34.621094 38.953125 33.964844 39.234375 33.34375 39.652344 C 32.722656 40.0625 32.140625 40.621094 31.699219 41.257812 C 31.257812 41.886719 30.964844 42.566406 30.78125 43.183594 C 30.59375 43.804688 30.503906 44.367188 30.453125 44.835938 C 30.402344 45.308594 30.394531 45.691406 30.390625 45.953125 C 30.390625 46.214844 30.390625 46.363281 30.390625 46.363281 C 30.390625 46.363281 30.394531 46.507812 30.402344 46.765625 C 30.40625 46.84375 30.414062 46.933594 30.417969 47.027344 C 30.277344 47.03125 30.144531 47.039062 30.03125 47.050781 C 29.859375 47.0625 29.71875 47.082031 29.621094 47.097656 C 29.523438 47.113281 29.46875 47.121094 29.46875 47.121094 C 29.46875 47.121094 29.421875 47.132812 29.328125 47.148438 C 29.238281 47.164062 29.105469 47.191406 28.949219 47.226562 C 28.640625 47.304688 28.226562 47.429688 27.828125 47.59375 C 27.019531 47.917969 26.277344 48.375 26.046875 48.53125 C 25.742188 48.742188 25.679688 49.109375 25.746094 49.671875 C 25.28125 49.832031 24.863281 49.988281 24.519531 50.121094 C 24.082031 49.851562 23.597656 49.675781 22.976562 49.589844 C 22.582031 49.542969 21.757812 49.4375 20.851562 49.324219 C 20.398438 49.269531 19.921875 49.214844 19.46875 49.160156 C 19.273438 49.136719 19.082031 49.113281 18.894531 49.09375 C 18.671875 49.070312 18.457031 49.070312 18.257812 49.089844 C 17.855469 49.128906 17.492188 49.265625 17.203125 49.464844 C 16.738281 49.773438 16.460938 50.238281 16.261719 50.738281 C 15.835938 51.089844 15.515625 51.578125 15.328125 52.230469 C 15.292969 52.367188 15.25 52.554688 15.207031 52.78125 C 14.179688 53.296875 13.53125 54.042969 13.324219 55.3125 C 13.261719 55.722656 13.175781 56.542969 13.234375 57.527344 C 13.28125 58.515625 13.46875 59.65625 13.777344 60.703125 C 14.078125 61.753906 14.492188 62.707031 14.84375 63.386719 C 15.1875 64.066406 15.453125 64.480469 15.453125 64.480469 C 15.453125 64.480469 15.691406 64.90625 16.140625 65.535156 C 16.585938 66.160156 17.25 66.984375 18.085938 67.734375 C 18.914062 68.484375 19.925781 69.152344 20.859375 69.578125 C 21.199219 69.734375 21.527344 69.859375 21.824219 69.964844 C 21.855469 69.988281 21.886719 70.015625 21.917969 70.042969 C 21.914062 70.050781 21.910156 70.058594 21.90625 70.0625 C 21.867188 70.09375 21.800781 70.101562 21.734375 70.082031 C 21.683594 70.128906 21.640625 70.195312 21.636719 70.285156 C 21.632812 70.371094 21.671875 70.472656 21.738281 70.554688 C 21.875 70.714844 22.046875 70.792969 22.199219 70.851562 C 22.507812 70.960938 22.785156 70.984375 23.070312 70.917969 C 23.191406 70.882812 23.3125 70.835938 23.4375 70.753906 C 23.835938 70.851562 24.480469 71.003906 25.289062 71.109375 C 26.234375 71.230469 27.441406 71.328125 28.78125 70.933594 C 29.121094 70.808594 29.453125 70.679688 29.777344 70.464844 L 30.011719 70.316406 L 30.160156 70.210938 C 30.25 70.140625 30.34375 70.070312 30.433594 70.003906 C 30.792969 69.734375 31.121094 69.484375 31.398438 69.261719 C 31.957031 68.820312 32.308594 68.515625 32.308594 68.515625 C 32.308594 68.515625 32.664062 68.21875 33.203125 67.726562 C 33.734375 67.230469 34.453125 66.527344 35.125 65.65625 C 35.804688 64.808594 36.40625 63.667969 36.703125 62.738281 C 37.019531 61.804688 37.160156 61.074219 37.234375 60.71875 C 37.496094 59.390625 37.070312 58.679688 36.433594 57.363281 C 36.398438 57.386719 36.367188 57.40625 36.335938 57.425781 C 36.382812 57.011719 36.296875 56.617188 36.09375 56.21875 C 36.828125 56.511719 37.511719 56.5625 38.140625 56.441406 C 38.199219 56.429688 38.261719 56.414062 38.320312 56.398438 C 38.332031 56.820312 38.457031 57.117188 38.75 57.300781 C 39.023438 57.476562 39.886719 57.933594 40.722656 58.234375 C 41.136719 58.394531 41.542969 58.511719 41.84375 58.59375 C 42.148438 58.671875 42.34375 58.722656 42.34375 58.722656 C 42.34375 58.722656 42.539062 58.765625 42.84375 58.835938 C 43.152344 58.894531 43.566406 58.972656 44.011719 59.019531 C 44.890625 59.128906 45.867188 59.109375 46.1875 59.078125 C 46.511719 59.046875 46.746094 58.863281 46.941406 58.535156 C 47.222656 58.847656 47.484375 58.980469 47.761719 58.910156 C 48.007812 58.847656 48.730469 58.59375 49.351562 58.28125 C 49.980469 57.976562 50.511719 57.628906 50.511719 57.628906 C 50.511719 57.628906 51.054688 57.300781 51.601562 56.863281 C 52.152344 56.4375 52.695312 55.894531 52.855469 55.699219 C 52.949219 55.589844 52.992188 55.457031 52.992188 55.300781 C 53.289062 55.25 53.578125 55.125 53.855469 54.910156 C 54.070312 54.738281 54.488281 54.386719 54.949219 53.90625 C 55.40625 53.425781 55.902344 52.816406 56.308594 52.183594 C 56.71875 51.554688 57.042969 50.914062 57.253906 50.425781 C 57.359375 50.183594 57.4375 49.976562 57.488281 49.832031 C 57.539062 49.691406 57.570312 49.613281 57.570312 49.613281 C 57.570312 49.613281 57.597656 49.53125 57.644531 49.386719 C 57.695312 49.242188 57.761719 49.035156 57.828125 48.777344 C 57.96875 48.265625 58.121094 47.5625 58.191406 46.8125 C 58.265625 46.070312 58.261719 45.28125 58.203125 44.621094 "/>
</g>
<g clip-path="url(#clip4)" clip-rule="nonzero">
<path style=" stroke:none;fill-rule:nonzero;fill:rgb(25.878906%,34.899902%,39.99939%);fill-opacity:1;" d="M 54.976562 43.941406 C 54.972656 43.945312 54.96875 43.945312 54.972656 43.945312 L 54.972656 43.941406 C 54.972656 43.9375 54.976562 43.9375 54.976562 43.941406 Z M 54.066406 44.828125 C 53.957031 44.679688 53.9375 44.503906 53.988281 44.363281 C 54.050781 44.242188 54.164062 44.117188 54.332031 43.980469 C 54.542969 43.996094 54.703125 43.996094 54.820312 44.003906 C 54.925781 43.988281 54.96875 43.945312 54.972656 43.945312 C 54.976562 43.945312 54.976562 43.941406 54.976562 43.941406 C 54.980469 43.9375 54.988281 43.925781 54.996094 43.917969 C 55.003906 43.90625 55.011719 43.902344 55.011719 43.902344 C 55.015625 43.90625 55.089844 43.777344 55.074219 43.769531 C 55.074219 43.753906 55.078125 43.769531 55.082031 43.761719 C 55.082031 43.757812 55.101562 43.707031 55.09375 43.625 C 55.082031 43.546875 55.042969 43.4375 54.949219 43.371094 C 54.933594 42.851562 55.316406 42.574219 55.667969 42.71875 C 55.761719 42.753906 55.953125 42.855469 56.097656 43.0625 C 56.246094 43.257812 56.335938 43.5625 56.316406 43.824219 C 56.304688 44.101562 56.203125 44.324219 56.125 44.457031 C 56.042969 44.59375 55.980469 44.664062 55.980469 44.664062 C 55.980469 44.664062 55.964844 44.683594 55.941406 44.714844 C 55.914062 44.746094 55.882812 44.785156 55.804688 44.859375 C 55.667969 45 55.453125 45.171875 55.203125 45.242188 C 54.949219 45.316406 54.664062 45.277344 54.460938 45.167969 C 54.253906 45.0625 54.128906 44.902344 54.066406 44.828125 Z M 49.816406 53.734375 C 49.796875 53.609375 49.792969 53.457031 49.804688 53.355469 C 49.8125 53.257812 49.832031 53.167969 49.847656 53.082031 C 49.925781 52.75 50.070312 52.496094 50.15625 52.328125 C 50.253906 52.148438 50.335938 52.007812 50.398438 51.914062 C 50.835938 51.234375 51.324219 51 52.042969 50.84375 C 51.878906 51.5625 51.808594 51.976562 51.449219 52.558594 C 51.402344 52.636719 51.332031 52.757812 51.253906 52.90625 C 51.167969 53.070312 51.09375 53.21875 51.0625 53.367188 C 51.054688 53.402344 51.046875 53.4375 51.046875 53.464844 C 51.042969 53.46875 51.042969 53.472656 51.042969 53.472656 C 51.070312 53.46875 51.105469 53.453125 51.140625 53.441406 C 51.207031 53.414062 51.277344 53.363281 51.367188 53.296875 C 51.449219 53.234375 51.527344 53.167969 51.601562 53.097656 C 51.742188 52.957031 51.867188 52.800781 51.964844 52.660156 C 52.164062 52.378906 52.28125 52.167969 52.28125 52.167969 C 52.28125 52.167969 52.394531 51.964844 52.574219 51.621094 C 52.753906 51.277344 52.992188 50.8125 53.226562 50.320312 C 53.703125 49.339844 54.113281 48.238281 54.230469 47.867188 C 54.460938 47.1875 54.765625 46.863281 55.277344 46.332031 C 55.539062 47.019531 55.632812 47.515625 55.402344 48.253906 C 55.285156 48.65625 54.847656 49.832031 54.347656 50.851562 C 54.105469 51.363281 53.855469 51.84375 53.671875 52.195312 C 53.488281 52.542969 53.351562 52.777344 53.351562 52.777344 C 53.351562 52.777344 53.226562 53.015625 52.976562 53.375 C 52.847656 53.554688 52.6875 53.765625 52.472656 53.976562 C 52.367188 54.082031 52.246094 54.1875 52.117188 54.289062 C 51.988281 54.382812 51.832031 54.492188 51.644531 54.574219 C 51.550781 54.613281 51.453125 54.652344 51.34375 54.679688 C 51.21875 54.707031 51.070312 54.726562 50.933594 54.722656 C 50.652344 54.710938 50.382812 54.609375 50.183594 54.425781 C 49.980469 54.246094 49.859375 53.992188 49.816406 53.734375 Z M 20.082031 65.242188 C 20.089844 65.425781 20.058594 65.570312 20.027344 65.667969 C 19.996094 65.761719 19.96875 65.8125 19.96875 65.8125 C 19.96875 65.8125 19.945312 65.867188 19.886719 65.945312 C 19.828125 66.027344 19.726562 66.136719 19.574219 66.230469 C 19.429688 66.320312 19.171875 66.398438 19.058594 66.429688 C 18.910156 66.46875 18.742188 66.496094 18.5625 66.503906 C 18.210938 66.527344 17.785156 66.441406 17.46875 66.238281 C 17.117188 66.015625 16.96875 65.722656 16.90625 65.582031 C 16.792969 65.316406 16.816406 65.058594 16.941406 64.855469 C 17.0625 64.65625 17.296875 64.515625 17.542969 64.535156 C 17.601562 64.78125 17.75 64.882812 17.84375 64.941406 C 17.941406 64.996094 18.003906 65.019531 18.03125 65.074219 C 18.046875 65.101562 18.085938 65.160156 18.132812 65.1875 C 18.207031 65.234375 18.335938 65.273438 18.503906 65.265625 C 18.621094 65.265625 18.78125 65.222656 18.828125 65.210938 C 18.824219 65.191406 18.8125 65.160156 18.804688 65.132812 C 18.78125 65.074219 18.75 65.011719 18.707031 64.957031 C 18.53125 64.703125 18.234375 64.65625 18.125 64.664062 C 17.929688 64.675781 17.796875 64.476562 17.324219 64.328125 C 17.320312 63.839844 17.574219 63.46875 18.078125 63.433594 C 18.214844 63.425781 18.5 63.425781 18.828125 63.550781 C 19.15625 63.667969 19.488281 63.914062 19.707031 64.222656 C 19.820312 64.375 19.90625 64.542969 19.96875 64.703125 C 19.996094 64.789062 20.019531 64.859375 20.039062 64.949219 C 20.058594 65.054688 20.074219 65.152344 20.082031 65.242188 Z M 14.824219 53.609375 C 14.824219 53.609375 14.824219 53.605469 14.824219 53.609375 Z M 15.808594 58.992188 C 15.824219 58.550781 15.890625 57.652344 15.980469 56.207031 C 16.011719 55.710938 16.054688 55.019531 16.089844 54.453125 C 16.109375 54.179688 16.128906 53.875 16.09375 53.617188 C 16.0625 53.359375 15.988281 53.1875 15.988281 53.1875 C 15.988281 53.1875 15.980469 53.167969 15.960938 53.121094 C 15.945312 53.078125 15.898438 52.976562 15.816406 52.863281 C 15.730469 52.75 15.601562 52.605469 15.394531 52.484375 C 15.191406 52.363281 14.894531 52.265625 14.546875 52.339844 C 14.425781 52.371094 14.1875 52.445312 13.972656 52.675781 C 13.867188 52.785156 13.761719 52.949219 13.695312 53.105469 C 13.640625 53.222656 13.597656 53.339844 13.566406 53.441406 C 13.421875 53.859375 13.304688 54.335938 13.246094 54.660156 C 13.039062 55.800781 13.0625 56.351562 13.050781 56.683594 C 13.039062 57.675781 13.171875 58.433594 13.351562 59.132812 C 13.53125 59.832031 13.78125 60.46875 14.097656 61.21875 C 14.171875 60.40625 14.226562 59.730469 14.25 59.03125 C 14.28125 58.332031 14.265625 57.609375 14.285156 56.703125 C 14.296875 56.402344 14.285156 55.894531 14.464844 54.894531 C 14.519531 54.609375 14.621094 54.199219 14.746094 53.839844 C 14.773438 53.742188 14.800781 53.671875 14.824219 53.617188 C 14.828125 53.613281 14.828125 53.613281 14.828125 53.613281 C 14.828125 53.613281 14.832031 53.621094 14.835938 53.628906 C 14.835938 53.632812 14.855469 53.660156 14.867188 53.769531 C 14.882812 53.875 14.875 54.074219 14.851562 54.371094 C 14.816406 54.941406 14.769531 55.632812 14.738281 56.125 C 14.648438 57.570312 14.585938 58.464844 14.574219 58.953125 C 14.546875 59.9375 14.675781 60.761719 14.988281 61.472656 C 15.304688 62.171875 15.792969 62.785156 16.515625 63.175781 C 16.066406 62.492188 15.949219 61.859375 15.859375 61.21875 C 15.78125 60.578125 15.777344 59.902344 15.808594 58.992188 Z M 63.378906 33.117188 C 63.382812 34.007812 63.316406 34.667969 63.15625 35.261719 C 63.050781 35.664062 62.886719 36.046875 62.5625 36.378906 C 62.273438 36.519531 61.996094 36.609375 61.734375 36.644531 C 61.414062 36.683594 61.128906 36.648438 60.84375 36.574219 C 60.558594 36.492188 60.277344 36.363281 59.960938 36.203125 C 59.804688 36.121094 59.636719 36.027344 59.464844 35.929688 C 59.296875 35.832031 59.171875 35.742188 59.015625 35.617188 C 58.875 35.488281 58.664062 35.292969 58.414062 34.957031 C 58.160156 34.621094 57.875 34.148438 57.523438 33.515625 C 57.347656 33.214844 57.09375 32.726562 56.699219 32.164062 C 56.5 31.890625 56.296875 31.621094 56.042969 31.332031 C 55.914062 31.191406 55.78125 31.046875 55.628906 30.914062 C 55.464844 30.777344 55.359375 30.664062 55.007812 30.472656 C 54.386719 30.101562 53.785156 30.167969 53.25 30.097656 L 53.167969 30.089844 L 53.136719 30.085938 L 53.121094 30.085938 L 53.125 30.101562 L 53.140625 30.183594 L 53.207031 30.496094 C 53.253906 30.710938 53.296875 30.917969 53.324219 31.109375 C 53.347656 31.210938 53.34375 31.296875 53.347656 31.382812 C 53.347656 31.46875 53.351562 31.582031 53.347656 31.59375 C 53.339844 31.667969 53.332031 31.738281 53.320312 31.800781 C 53.292969 31.933594 53.261719 32.066406 53.214844 32.191406 C 53.191406 32.25 53.167969 32.316406 53.136719 32.375 C 53.128906 32.390625 53.125 32.402344 53.121094 32.40625 C 53.121094 32.402344 53.113281 32.398438 53.101562 32.390625 L 52.933594 32.246094 C 52.816406 32.15625 52.710938 32.054688 52.609375 31.953125 C 52.394531 31.757812 52.207031 31.542969 52.023438 31.339844 C 51.660156 30.921875 51.359375 30.488281 51.09375 30.082031 C 50.574219 29.257812 50.226562 28.515625 49.992188 27.992188 C 49.875 27.730469 49.785156 27.523438 49.730469 27.378906 C 49.671875 27.238281 49.640625 27.164062 49.640625 27.164062 C 49.640625 27.164062 49.378906 26.535156 49.019531 25.484375 C 48.65625 24.433594 48.183594 22.976562 47.730469 21.359375 C 47.273438 19.746094 46.84375 17.972656 46.5 16.3125 C 46.15625 14.648438 45.898438 13.097656 45.726562 11.941406 C 45.636719 11.292969 45.578125 10.847656 45.539062 10.527344 C 45.964844 11.199219 46.449219 11.851562 47.152344 12.65625 C 47.363281 12.894531 47.707031 13.289062 48.417969 14.105469 C 49.285156 15.101562 50.710938 16.800781 51.878906 18.28125 C 52.457031 19.027344 52.988281 19.703125 53.351562 20.210938 C 53.722656 20.714844 53.953125 21.027344 53.953125 21.027344 C 53.953125 21.027344 54.144531 21.289062 54.445312 21.730469 C 54.746094 22.167969 55.175781 22.769531 55.617188 23.472656 C 56.078125 24.164062 56.546875 24.953125 57.003906 25.71875 C 57.445312 26.492188 57.859375 27.246094 58.1875 27.886719 C 58.5 28.527344 58.765625 29.039062 58.953125 29.457031 C 59.140625 29.875 59.273438 30.183594 59.367188 30.394531 C 59.464844 30.605469 59.558594 30.804688 59.644531 30.996094 C 59.730469 31.1875 59.8125 31.371094 59.890625 31.550781 C 60.054688 31.902344 60.21875 32.21875 60.386719 32.527344 C 60.722656 33.144531 61.046875 33.730469 61.484375 34.429688 C 61.429688 33.621094 61.382812 32.929688 61.242188 32.222656 C 61.164062 31.875 61.074219 31.515625 60.957031 31.132812 C 60.898438 30.941406 60.839844 30.746094 60.765625 30.539062 C 60.683594 30.339844 60.59375 30.128906 60.503906 29.90625 C 60.40625 29.6875 60.269531 29.371094 60.082031 28.941406 C 59.890625 28.507812 59.617188 27.980469 59.296875 27.320312 C 58.960938 26.664062 58.53125 25.886719 58.078125 25.097656 C 57.613281 24.3125 57.132812 23.503906 56.660156 22.800781 C 56.207031 22.082031 55.769531 21.46875 55.457031 21.023438 C 55.152344 20.574219 54.957031 20.308594 54.957031 20.308594 C 54.957031 20.308594 54.722656 19.988281 54.347656 19.476562 C 53.980469 18.960938 53.441406 18.273438 52.855469 17.515625 C 51.671875 16.015625 50.234375 14.292969 49.359375 13.296875 C 48.648438 12.46875 48.292969 12.082031 48.082031 11.839844 C 47.085938 10.726562 46.328125 10.082031 45.394531 9.417969 C 45.339844 9.042969 45.28125 8.699219 45.21875 8.375 C 46.042969 8.832031 46.839844 9.230469 47.996094 9.714844 C 48.285156 9.839844 48.761719 10.035156 49.722656 10.5 C 50.671875 10.949219 51.914062 11.609375 53.203125 12.414062 C 54.492188 13.214844 55.824219 14.167969 56.988281 15.117188 C 57.28125 15.347656 57.558594 15.589844 57.828125 15.820312 C 58.097656 16.054688 58.355469 16.277344 58.574219 16.492188 C 59.019531 16.921875 59.316406 17.339844 59.449219 17.699219 C 59.484375 17.789062 59.507812 17.875 59.523438 17.957031 C 59.539062 18.03125 59.546875 18.097656 59.546875 18.164062 C 59.546875 18.296875 59.535156 18.414062 59.507812 18.511719 C 59.457031 18.699219 59.402344 18.792969 59.402344 18.792969 C 59.398438 18.789062 59.394531 18.828125 59.292969 18.96875 C 59.261719 19 59.234375 19.042969 59.191406 19.078125 C 59.171875 19.097656 59.148438 19.117188 59.125 19.136719 L 59.105469 19.148438 C 59.066406 19.171875 59.027344 19.199219 58.992188 19.199219 C 58.914062 19.214844 58.832031 19.230469 58.746094 19.246094 C 58.707031 19.253906 58.664062 19.261719 58.617188 19.269531 C 58.5625 19.273438 58.503906 19.28125 58.449219 19.285156 C 58.328125 19.296875 58.210938 19.304688 58.085938 19.316406 C 57.957031 19.328125 57.824219 19.339844 57.6875 19.351562 L 57.585938 19.363281 C 57.601562 19.386719 57.609375 19.394531 57.621094 19.40625 L 57.6875 19.488281 C 57.910156 19.753906 58.15625 20.050781 58.4375 20.386719 C 58.566406 20.53125 58.898438 20.960938 58.992188 21.085938 C 59.144531 21.292969 59.335938 21.558594 59.542969 21.878906 C 59.960938 22.511719 60.457031 23.363281 60.933594 24.328125 C 61.898438 26.25 62.722656 28.648438 63.082031 30.453125 C 63.355469 31.828125 63.382812 32.683594 63.378906 33.117188 Z M 54.589844 31.664062 C 54.589844 31.65625 54.589844 31.664062 54.589844 31.664062 Z M 54.585938 31.664062 C 54.570312 31.65625 54.574219 31.65625 54.585938 31.664062 Z M 44.105469 7.644531 C 44.132812 7.609375 44.160156 7.574219 44.1875 7.539062 C 44.183594 7.578125 44.179688 7.613281 44.175781 7.648438 C 44.152344 7.648438 44.128906 7.648438 44.105469 7.644531 Z M 59.828125 20.148438 L 59.832031 20.148438 C 59.832031 20.148438 59.832031 20.152344 59.828125 20.148438 Z M 38.441406 23.019531 C 38.472656 23.574219 38.496094 24.074219 38.519531 24.492188 C 38.554688 25.335938 38.617188 25.859375 38.617188 25.859375 C 38.617188 25.859375 38.664062 26.296875 38.738281 27.015625 C 38.757812 27.195312 38.777344 27.390625 38.800781 27.601562 C 38.835938 27.816406 38.871094 28.039062 38.910156 28.277344 C 38.992188 28.753906 39.0625 29.285156 39.171875 29.835938 C 39.296875 30.390625 39.429688 30.972656 39.5625 31.5625 C 39.710938 32.152344 39.910156 32.738281 40.082031 33.324219 C 40.125 33.46875 40.167969 33.613281 40.214844 33.757812 C 40.269531 33.898438 40.324219 34.039062 40.375 34.179688 C 40.484375 34.457031 40.589844 34.730469 40.695312 34.996094 C 40.800781 35.261719 40.886719 35.527344 41.003906 35.769531 C 41.121094 36.011719 41.234375 36.246094 41.339844 36.46875 C 41.5 36.804688 41.648438 37.105469 41.777344 37.378906 C 41.902344 37.632812 42.042969 37.84375 42.152344 38.039062 C 41.488281 37.652344 40.652344 37.46875 39.679688 37.554688 C 39.332031 37.582031 38.761719 37.628906 37.660156 37.949219 C 37.160156 38.09375 36.371094 38.378906 35.675781 38.757812 C 35.355469 38.964844 35.054688 39.148438 34.859375 39.308594 C 34.667969 39.472656 34.542969 39.570312 34.542969 39.570312 C 34.542969 39.570312 34.4375 39.652344 34.28125 39.800781 C 34.136719 39.957031 33.917969 40.164062 33.699219 40.417969 C 33.496094 40.683594 33.25 40.960938 33.074219 41.277344 C 32.980469 41.425781 32.882812 41.578125 32.800781 41.722656 C 32.722656 41.875 32.652344 42.015625 32.589844 42.144531 C 31.914062 43.570312 31.875 44.585938 31.839844 45.085938 C 31.839844 45.34375 31.816406 45.585938 31.847656 45.820312 C 31.875 46.050781 31.902344 46.273438 31.9375 46.484375 C 31.984375 46.691406 32.050781 46.886719 32.109375 47.078125 C 32.140625 47.171875 32.164062 47.265625 32.203125 47.355469 C 32.226562 47.402344 32.25 47.449219 32.273438 47.496094 C 31.867188 47.3125 31.441406 47.183594 31.015625 47.128906 C 30.160156 46.988281 29.324219 47.070312 28.617188 47.230469 C 27.914062 47.40625 27.296875 47.617188 26.800781 47.824219 C 25.769531 48.238281 25.304688 48.457031 25.007812 48.578125 C 24.148438 48.941406 23.503906 49.25 22.882812 49.503906 C 22.535156 49.644531 22.191406 49.78125 21.820312 49.902344 C 21.898438 49.203125 22.011719 48.617188 22.121094 48.011719 C 22.246094 47.332031 22.367188 46.625 22.511719 45.710938 C 22.585938 45.261719 22.726562 44.390625 23.046875 42.988281 C 23.625 40.195312 24.691406 36.335938 25.804688 33.242188 C 26.339844 31.6875 26.902344 30.335938 27.285156 29.355469 C 27.703125 28.386719 27.957031 27.800781 27.957031 27.800781 C 27.957031 27.800781 28.25 27.085938 28.789062 25.976562 C 29.308594 24.859375 30.066406 23.335938 30.960938 21.703125 C 31.410156 20.890625 31.875 20.039062 32.386719 19.207031 C 32.636719 18.789062 32.886719 18.371094 33.132812 17.957031 C 33.394531 17.546875 33.652344 17.144531 33.90625 16.75 C 34.40625 15.949219 34.925781 15.207031 35.398438 14.519531 C 35.863281 13.828125 36.316406 13.21875 36.703125 12.699219 C 37.335938 11.828125 37.648438 11.414062 37.851562 11.167969 C 38.433594 10.429688 38.832031 9.804688 39.207031 9.207031 C 39.386719 8.914062 39.550781 8.621094 39.714844 8.316406 C 39.722656 8.328125 39.730469 8.339844 39.738281 8.351562 C 39.335938 9.503906 39.074219 10.488281 38.921875 12.042969 C 38.890625 12.363281 38.828125 12.882812 38.746094 13.972656 C 38.585938 15.722656 38.417969 18.6875 38.417969 21.226562 C 38.425781 21.859375 38.433594 22.464844 38.441406 23.019531 Z M 45.90625 39.9375 C 46.226562 39.726562 46.515625 39.476562 46.800781 39.226562 C 47.089844 38.96875 47.355469 38.742188 47.714844 38.515625 C 47.90625 38.394531 48.207031 38.222656 48.609375 38.058594 C 48.816406 37.976562 49.039062 37.890625 49.292969 37.816406 L 49.449219 37.769531 L 49.636719 37.71875 C 49.761719 37.6875 49.890625 37.65625 50.023438 37.628906 C 50.285156 37.570312 50.558594 37.519531 50.84375 37.480469 C 51.972656 37.3125 53.210938 37.289062 54.269531 37.796875 C 55.339844 38.289062 56.222656 39.269531 56.761719 40.375 C 57.304688 41.488281 57.488281 42.722656 57.460938 43.871094 C 57.441406 45.023438 57.234375 46.089844 57.007812 46.984375 C 56.777344 47.882812 56.539062 48.597656 56.34375 49.085938 C 56.160156 49.578125 56.027344 49.847656 56.027344 49.847656 C 56.027344 49.847656 55.957031 50.007812 55.824219 50.300781 C 55.675781 50.585938 55.476562 51.003906 55.179688 51.5 C 54.601562 52.503906 53.660156 53.824219 52.375 55.101562 C 51.734375 55.742188 51.003906 56.359375 50.21875 56.9375 C 50.023438 57.082031 49.824219 57.222656 49.617188 57.359375 C 49.414062 57.496094 49.214844 57.636719 49 57.761719 C 48.792969 57.882812 48.578125 58.039062 48.375 58.128906 C 48.171875 58.226562 47.972656 58.335938 47.769531 58.421875 C 46.933594 58.765625 46.019531 58.839844 45.152344 58.773438 C 44.28125 58.703125 43.449219 58.519531 42.703125 58.269531 C 41.375 57.839844 40.570312 57.449219 40.144531 57.273438 C 38.652344 56.613281 37.644531 56.285156 36.335938 56.050781 C 36.34375 55.867188 36.347656 55.769531 36.347656 55.769531 C 36.347656 55.769531 36.359375 55.605469 36.355469 55.308594 C 36.355469 55.160156 36.351562 54.980469 36.347656 54.773438 C 36.332031 54.5625 36.320312 54.324219 36.292969 54.0625 C 36.234375 53.535156 36.140625 52.914062 35.953125 52.242188 C 35.769531 51.5625 35.476562 50.835938 35.066406 50.132812 C 34.65625 49.429688 34.109375 48.746094 33.417969 48.195312 C 33.398438 48.179688 33.378906 48.164062 33.359375 48.148438 C 33.328125 48.039062 33.300781 47.929688 33.273438 47.824219 C 33.246094 47.65625 33.21875 47.492188 33.195312 47.332031 C 33.179688 47.253906 33.164062 47.171875 33.148438 47.089844 C 33.136719 47.007812 33.132812 46.925781 33.125 46.839844 C 33.105469 46.667969 33.089844 46.496094 33.070312 46.320312 C 33.070312 46.140625 33.066406 45.957031 33.054688 45.761719 C 33.039062 45.570312 33.070312 45.363281 33.070312 45.152344 C 33.109375 44.734375 33.136719 43.882812 33.714844 42.679688 C 33.769531 42.570312 33.828125 42.445312 33.890625 42.320312 C 33.960938 42.195312 34.042969 42.070312 34.125 41.941406 C 34.269531 41.675781 34.480469 41.441406 34.648438 41.214844 C 34.832031 41 35.015625 40.828125 35.132812 40.695312 C 35.261719 40.570312 35.351562 40.503906 35.351562 40.503906 C 35.351562 40.503906 35.453125 40.421875 35.617188 40.285156 C 35.777344 40.152344 36.027344 40.011719 36.289062 39.835938 C 36.828125 39.546875 37.582031 39.261719 38.019531 39.136719 C 39.007812 38.847656 39.492188 38.808594 39.78125 38.785156 C 40.648438 38.703125 41.289062 38.769531 41.882812 38.921875 C 42.277344 39.03125 42.667969 39.203125 43.042969 39.488281 C 43.0625 39.515625 43.085938 39.546875 43.105469 39.574219 C 43.234375 39.746094 43.367188 39.914062 43.492188 40.070312 C 43.554688 40.144531 43.617188 40.222656 43.675781 40.292969 C 43.667969 40.296875 43.65625 40.296875 43.644531 40.296875 C 43.664062 40.304688 43.679688 40.3125 43.699219 40.320312 C 43.878906 40.535156 44.058594 40.730469 44.238281 40.921875 C 44.621094 41.273438 45.011719 41.589844 45.445312 41.914062 C 45.429688 41.917969 45.417969 41.917969 45.417969 41.917969 C 45.417969 41.917969 45.34375 41.921875 45.226562 41.945312 C 45.113281 41.960938 44.957031 41.996094 44.789062 42.035156 C 44.617188 42.085938 44.433594 42.136719 44.265625 42.191406 C 44.089844 42.257812 43.941406 42.308594 43.871094 42.335938 C 43.578125 42.472656 43.316406 42.722656 43.058594 42.695312 C 43.265625 42.824219 43.410156 42.925781 43.691406 43.011719 C 43.84375 43.058594 44.316406 43.175781 44.761719 43.183594 C 44.980469 43.195312 45.191406 43.179688 45.347656 43.167969 C 45.503906 43.148438 45.601562 43.140625 45.601562 43.140625 C 45.601562 43.140625 45.703125 43.121094 45.855469 43.089844 C 46.007812 43.058594 46.214844 43.011719 46.421875 42.933594 C 46.84375 42.796875 47.261719 42.550781 47.390625 42.460938 C 47.636719 42.292969 47.746094 42.15625 47.902344 41.972656 C 47.667969 42.070312 47.34375 41.910156 47.027344 41.867188 C 46.949219 41.863281 46.792969 41.855469 46.605469 41.847656 C 46.425781 41.839844 46.238281 41.847656 46.058594 41.851562 C 45.953125 41.859375 45.851562 41.863281 45.761719 41.875 C 45.492188 41.332031 45.246094 40.855469 44.96875 40.386719 C 45.3125 40.292969 45.625 40.128906 45.90625 39.9375 Z M 35.113281 55.722656 C 35.113281 55.722656 35.109375 56.214844 34.988281 57.019531 C 34.871094 57.824219 34.605469 58.929688 34.113281 60.109375 C 33.621094 61.28125 32.902344 62.515625 32.042969 63.601562 C 31.191406 64.695312 30.230469 65.648438 29.382812 66.390625 C 28.316406 67.316406 27.59375 67.828125 27.222656 68.097656 C 26.855469 68.367188 26.527344 68.609375 26.214844 68.835938 C 25.921875 69.046875 25.644531 69.226562 25.371094 69.382812 C 25.089844 69.539062 24.8125 69.667969 24.503906 69.738281 C 24.199219 69.8125 23.847656 69.800781 23.480469 69.605469 C 23.527344 69.675781 23.578125 69.738281 23.632812 69.796875 C 23.363281 69.707031 23.097656 69.617188 22.832031 69.523438 C 22.164062 69.292969 21.492188 69.058594 20.636719 68.761719 C 20.210938 68.609375 19.367188 68.3125 18.0625 67.746094 C 17.15625 67.347656 16.097656 66.820312 15.175781 66.085938 C 14.253906 65.355469 13.46875 64.402344 12.917969 63.445312 C 12.359375 62.492188 12.039062 61.546875 11.851562 60.863281 C 11.753906 60.519531 11.699219 60.238281 11.664062 60.042969 C 11.625 59.847656 11.601562 59.742188 11.601562 59.742188 C 11.601562 59.742188 11.582031 59.613281 11.554688 59.382812 C 11.539062 59.265625 11.519531 59.121094 11.5 58.957031 C 11.484375 58.792969 11.476562 58.601562 11.460938 58.394531 C 11.417969 57.5625 11.453125 56.398438 11.730469 55.171875 C 11.996094 53.941406 12.527344 52.660156 13.25 51.648438 C 13.96875 50.636719 14.902344 49.9375 15.640625 49.609375 C 16.53125 49.242188 17.019531 49.234375 17.296875 49.207031 C 18.144531 49.140625 18.800781 49.242188 19.429688 49.375 C 19.976562 49.511719 20.511719 49.703125 21.074219 50.09375 C 21 50.105469 20.925781 50.121094 20.847656 50.132812 C 21.621094 50.398438 22.355469 50.449219 23.101562 50.382812 C 23.847656 50.308594 24.597656 50.078125 25.488281 49.714844 C 25.792969 49.59375 26.273438 49.371094 27.257812 48.976562 C 28.203125 48.609375 29.5 48.128906 30.8125 48.351562 C 31.472656 48.4375 32.097656 48.738281 32.644531 49.164062 C 33.191406 49.601562 33.644531 50.164062 33.996094 50.761719 C 34.703125 51.957031 34.960938 53.257812 35.0625 54.1875 C 35.082031 54.421875 35.097656 54.636719 35.113281 54.824219 C 35.117188 55.011719 35.117188 55.175781 35.121094 55.308594 C 35.121094 55.574219 35.113281 55.722656 35.113281 55.722656 Z M 64.300781 30.207031 C 63.917969 28.28125 63.0625 25.789062 62.046875 23.78125 C 61.550781 22.769531 61.027344 21.875 60.578125 21.199219 C 60.359375 20.855469 60.148438 20.574219 59.984375 20.351562 C 59.875 20.207031 59.839844 20.160156 59.832031 20.144531 L 59.863281 20.125 C 59.929688 20.074219 59.988281 20.023438 60.039062 19.972656 C 60.144531 19.878906 60.210938 19.789062 60.273438 19.71875 C 60.382812 19.570312 60.4375 19.476562 60.464844 19.421875 C 60.496094 19.367188 60.5 19.355469 60.5 19.355469 C 60.5 19.355469 60.609375 19.171875 60.707031 18.8125 C 60.753906 18.632812 60.789062 18.40625 60.785156 18.136719 C 60.78125 18 60.765625 17.855469 60.734375 17.699219 C 60.703125 17.5625 60.664062 17.414062 60.609375 17.269531 C 60.390625 16.675781 59.953125 16.105469 59.445312 15.609375 C 59.1875 15.359375 58.917969 15.125 58.640625 14.886719 C 58.363281 14.644531 58.074219 14.398438 57.773438 14.15625 C 56.570312 13.171875 55.195312 12.1875 53.863281 11.359375 C 52.527344 10.527344 51.242188 9.847656 50.265625 9.382812 C 49.269531 8.90625 48.777344 8.703125 48.472656 8.578125 C 47.132812 8.03125 46.164062 7.8125 45.074219 7.710938 C 44.972656 7.277344 44.855469 6.859375 44.722656 6.417969 C 44.75 6.3125 44.773438 6.207031 44.785156 6.105469 C 44.898438 5.3125 44.707031 4.492188 44.148438 3.886719 C 44.347656 4.683594 44.160156 5.308594 43.914062 5.859375 C 43.648438 6.40625 43.261719 6.902344 42.605469 7.414062 C 42.425781 7.550781 42.144531 7.746094 41.761719 7.9375 C 41.566406 8.035156 41.375 8.105469 41.277344 8.105469 C 41.191406 8.101562 41.117188 8.082031 40.972656 7.933594 C 40.957031 7.914062 40.941406 7.894531 40.921875 7.875 C 40.894531 7.84375 40.867188 7.808594 40.867188 7.808594 C 40.867188 7.808594 40.796875 7.703125 40.769531 7.65625 C 40.65625 7.46875 40.550781 7.25 40.484375 7.097656 C 40.417969 6.945312 40.394531 6.84375 40.394531 6.792969 C 40.390625 6.738281 40.398438 6.726562 40.40625 6.703125 C 40.414062 6.679688 40.441406 6.644531 40.46875 6.609375 C 40.550781 6.511719 40.738281 6.359375 40.886719 6.226562 C 41.039062 6.09375 41.183594 5.96875 41.332031 5.839844 C 41.59375 5.617188 41.859375 5.394531 42.144531 5.148438 C 42.671875 4.707031 43.175781 4.269531 43.835938 3.785156 C 43.027344 3.90625 42.347656 4.085938 41.671875 4.378906 C 41.332031 4.523438 40.996094 4.703125 40.652344 4.921875 C 40.480469 5.03125 40.304688 5.152344 40.125 5.289062 C 39.945312 5.429688 39.769531 5.546875 39.535156 5.800781 C 39.460938 5.890625 39.371094 6.003906 39.285156 6.179688 C 39.199219 6.355469 39.136719 6.605469 39.15625 6.859375 C 39.167969 7.113281 39.246094 7.359375 39.339844 7.582031 C 39.382812 7.671875 39.421875 7.757812 39.464844 7.847656 C 39.128906 8.105469 38.816406 8.355469 38.507812 8.628906 C 37.964844 9.101562 37.472656 9.667969 36.875 10.410156 C 36.667969 10.660156 36.347656 11.078125 35.699219 11.964844 C 35.308594 12.492188 34.847656 13.113281 34.375 13.8125 C 33.894531 14.507812 33.367188 15.265625 32.863281 16.078125 C 32.605469 16.480469 32.339844 16.890625 32.074219 17.300781 C 31.824219 17.722656 31.570312 18.148438 31.316406 18.574219 C 30.796875 19.417969 30.328125 20.285156 29.871094 21.109375 C 28.964844 22.769531 28.195312 24.316406 27.671875 25.453125 C 27.125 26.582031 26.828125 27.304688 26.828125 27.304688 C 26.828125 27.304688 26.566406 27.902344 26.140625 28.882812 C 25.75 29.878906 25.175781 31.253906 24.632812 32.832031 C 23.5 35.96875 22.414062 39.890625 21.828125 42.726562 C 21.507812 44.148438 21.363281 45.050781 21.289062 45.523438 C 21.148438 46.484375 21.132812 47.257812 21.214844 47.984375 C 21.292969 48.640625 21.449219 49.265625 21.707031 49.933594 C 21.546875 49.984375 21.382812 50.027344 21.207031 50.066406 C 20.878906 49.410156 20.390625 48.902344 19.78125 48.539062 C 19.105469 48.160156 18.269531 47.90625 17.214844 47.976562 C 16.863281 48.007812 16.265625 48.011719 15.136719 48.476562 C 14.183594 48.894531 13.078125 49.746094 12.238281 50.929688 C 11.398438 52.101562 10.816406 53.539062 10.519531 54.898438 C 10.214844 56.261719 10.175781 57.539062 10.226562 58.457031 C 10.242188 58.6875 10.25 58.898438 10.269531 59.078125 C 10.292969 59.261719 10.3125 59.417969 10.328125 59.546875 C 10.359375 59.804688 10.382812 59.945312 10.382812 59.945312 C 10.382812 59.945312 10.40625 60.0625 10.449219 60.277344 C 10.488281 60.492188 10.550781 60.804688 10.660156 61.183594 C 10.863281 61.945312 11.21875 62.992188 11.84375 64.066406 C 12.457031 65.136719 13.347656 66.222656 14.402344 67.058594 C 15.457031 67.898438 16.609375 68.464844 17.5625 68.882812 C 18.921875 69.46875 19.777344 69.769531 20.234375 69.925781 C 21.160156 70.234375 21.929688 70.382812 22.664062 70.414062 C 23.261719 70.4375 23.84375 70.386719 24.460938 70.253906 C 24.472656 70.253906 24.480469 70.257812 24.492188 70.261719 C 24.890625 70.34375 25.292969 70.316406 25.675781 70.234375 C 26.0625 70.148438 26.433594 70.007812 26.8125 69.808594 C 27.199219 69.601562 27.539062 69.382812 27.941406 69.101562 C 28.328125 68.824219 29.082031 68.296875 30.207031 67.324219 C 31.09375 66.542969 32.117188 65.535156 33.023438 64.363281 C 33.941406 63.203125 34.722656 61.867188 35.261719 60.585938 C 35.792969 59.300781 36.085938 58.089844 36.210938 57.203125 C 36.261719 56.878906 36.289062 56.597656 36.3125 56.375 C 37.328125 57.132812 38.15625 57.722656 39.640625 58.402344 C 40.078125 58.585938 40.898438 58.988281 42.328125 59.453125 C 43.125 59.722656 44.054688 59.929688 45.0625 60.011719 C 46.066406 60.089844 47.183594 60 48.226562 59.578125 C 48.480469 59.472656 48.726562 59.339844 48.980469 59.214844 C 49.238281 59.09375 49.433594 58.945312 49.664062 58.8125 C 49.886719 58.679688 50.101562 58.53125 50.316406 58.386719 C 50.535156 58.242188 50.746094 58.09375 50.953125 57.933594 C 51.789062 57.324219 52.566406 56.664062 53.25 55.980469 C 54.621094 54.617188 55.628906 53.199219 56.246094 52.125 C 56.566406 51.589844 56.78125 51.140625 56.941406 50.832031 C 57.082031 50.519531 57.160156 50.34375 57.160156 50.34375 C 57.160156 50.34375 57.300781 50.058594 57.496094 49.53125 C 57.707031 49.003906 57.964844 48.230469 58.207031 47.285156 C 58.449219 46.335938 58.675781 45.1875 58.703125 43.894531 C 58.734375 42.617188 58.53125 41.160156 57.878906 39.832031 C 57.242188 38.519531 56.183594 37.3125 54.796875 36.671875 C 54.105469 36.347656 53.359375 36.183594 52.65625 36.144531 C 51.957031 36.101562 51.28125 36.164062 50.664062 36.253906 C 50.355469 36.296875 50.054688 36.351562 49.757812 36.414062 C 49.609375 36.445312 49.464844 36.484375 49.324219 36.519531 L 49.113281 36.578125 L 48.929688 36.628906 C 48.640625 36.714844 48.375 36.8125 48.136719 36.910156 C 47.65625 37.109375 47.285156 37.324219 47.042969 37.480469 C 46.601562 37.765625 46.242188 38.117188 45.984375 38.421875 C 45.722656 38.730469 45.511719 39.011719 45.304688 39.261719 C 45.113281 39.496094 44.929688 39.703125 44.703125 39.882812 C 44.617188 39.730469 44.527344 39.574219 44.433594 39.417969 C 44.332031 39.253906 44.226562 39.082031 44.113281 38.90625 C 44.054688 38.820312 43.996094 38.730469 43.9375 38.640625 C 43.882812 38.546875 43.828125 38.449219 43.769531 38.347656 C 43.652344 38.148438 43.484375 37.863281 43.257812 37.46875 C 43.148438 37.273438 43.003906 37.0625 42.878906 36.800781 C 42.753906 36.542969 42.617188 36.253906 42.464844 35.9375 C 42.363281 35.722656 42.253906 35.503906 42.144531 35.273438 C 42.035156 35.039062 41.949219 34.785156 41.847656 34.535156 C 41.75 34.28125 41.648438 34.019531 41.546875 33.753906 C 41.496094 33.621094 41.445312 33.488281 41.390625 33.355469 C 41.347656 33.21875 41.308594 33.078125 41.265625 32.9375 C 41.101562 32.378906 40.910156 31.816406 40.765625 31.253906 C 40.636719 30.683594 40.507812 30.128906 40.386719 29.597656 C 40.285156 29.0625 40.214844 28.550781 40.136719 28.09375 C 40.097656 27.863281 40.0625 27.644531 40.027344 27.441406 C 40.007812 27.234375 39.984375 27.042969 39.96875 26.871094 C 39.894531 26.175781 39.847656 25.75 39.847656 25.75 C 39.847656 25.75 39.789062 25.242188 39.753906 24.417969 C 39.734375 24.007812 39.707031 23.519531 39.679688 22.980469 C 39.675781 22.4375 39.667969 21.84375 39.660156 21.222656 C 39.664062 18.734375 39.828125 15.808594 39.984375 14.070312 C 40.0625 12.996094 40.125 12.476562 40.152344 12.160156 C 40.269531 10.828125 40.261719 9.898438 40.171875 8.890625 C 40.292969 9.003906 40.4375 9.109375 40.601562 9.191406 C 40.820312 9.300781 41.078125 9.351562 41.3125 9.34375 C 41.78125 9.320312 42.082031 9.15625 42.3125 9.046875 C 42.785156 8.8125 43.136719 8.566406 43.363281 8.386719 C 43.632812 8.175781 43.863281 7.949219 44.054688 7.710938 C 44.09375 7.730469 44.132812 7.753906 44.167969 7.773438 C 44.125 8.488281 44.148438 9.242188 44.25 10.191406 C 44.285156 10.511719 44.347656 11.035156 44.5 12.121094 C 44.671875 13.296875 44.929688 14.871094 45.28125 16.5625 C 45.628906 18.25 46.070312 20.054688 46.535156 21.695312 C 46.996094 23.335938 47.480469 24.820312 47.847656 25.886719 C 48.21875 26.957031 48.492188 27.621094 48.492188 27.621094 C 48.492188 27.621094 48.523438 27.699219 48.585938 27.847656 C 48.648438 27.996094 48.738281 28.214844 48.863281 28.492188 C 49.109375 29.046875 49.480469 29.835938 50.046875 30.742188 C 50.339844 31.191406 50.671875 31.671875 51.082031 32.144531 C 51.292969 32.378906 51.507812 32.621094 51.75 32.847656 C 51.871094 32.960938 51.992188 33.078125 52.125 33.1875 L 52.320312 33.351562 C 52.402344 33.429688 52.554688 33.535156 52.679688 33.613281 L 53.070312 33.867188 L 53.265625 33.996094 L 53.363281 34.0625 C 53.378906 34.074219 53.394531 34.089844 53.410156 34.089844 L 53.449219 34.046875 C 53.652344 33.796875 53.851562 33.578125 54.039062 33.300781 L 54.167969 33.089844 C 54.210938 33.015625 54.246094 32.9375 54.265625 32.898438 C 54.308594 32.808594 54.34375 32.710938 54.382812 32.617188 C 54.453125 32.421875 54.507812 32.222656 54.542969 32.015625 C 54.5625 31.914062 54.578125 31.8125 54.585938 31.710938 C 54.585938 31.6875 54.589844 31.675781 54.589844 31.667969 C 54.625 31.695312 54.726562 31.769531 54.796875 31.835938 C 54.90625 31.929688 55.007812 32.042969 55.109375 32.15625 C 55.3125 32.382812 55.515625 32.648438 55.683594 32.882812 C 56.011719 33.347656 56.265625 33.824219 56.4375 34.125 C 56.792969 34.757812 57.113281 35.289062 57.421875 35.695312 C 57.722656 36.105469 58.015625 36.382812 58.222656 36.5625 C 58.4375 36.738281 58.6875 36.894531 58.902344 36.996094 C 59.105469 37.09375 59.308594 37.183594 59.511719 37.253906 C 59.921875 37.394531 60.335938 37.480469 60.753906 37.472656 C 61.171875 37.460938 61.585938 37.34375 61.921875 37.128906 C 62.085938 37.027344 62.226562 36.910156 62.359375 36.777344 C 62.632812 36.730469 62.902344 36.644531 63.140625 36.492188 C 63.476562 36.28125 63.773438 35.988281 63.980469 35.644531 C 64.410156 34.960938 64.609375 34.128906 64.613281 33.121094 C 64.625 32.625 64.589844 31.671875 64.300781 30.207031 "/>
</g>
</g>
</svg>
